{"glyphs":{"0":{"ha":872,"x_min":83,"x_max":790,"o":"m 436 -14 q 173 106 263 -14 q 83 458 83 226 q 173 810 83 690 q 436 931 263 931 q 700 810 610 931 q 790 458 790 690 q 700 106 790 226 q 436 -14 610 -14 m 436 113 q 588 199 536 113 q 639 458 639 286 q 588 717 639 631 q 436 804 536 804 q 235 458 235 804 q 436 113 235 113 z "},"1":{"ha":581,"x_min":47,"x_max":450,"o":"m 450 917 l 450 0 l 304 0 l 304 678 q 306 751 304 725 q 198 672 258 706 q 75 625 138 639 l 47 754 q 141 785 83 758 q 250 847 199 811 q 325 917 301 883 l 450 917 z "},"2":{"ha":815,"x_min":68,"x_max":735,"o":"m 97 110 q 378 324 278 236 q 522 485 478 413 q 565 636 565 558 q 519 756 565 710 q 392 801 472 801 q 255 744 306 801 q 197 586 204 688 l 68 646 q 169 854 82 778 q 400 931 257 931 q 571 892 499 931 q 681 789 643 854 q 718 642 718 724 q 620 390 718 510 q 294 125 522 271 l 294 122 q 446 128 364 128 l 735 128 l 735 0 l 97 0 l 97 110 z "},"3":{"ha":814,"x_min":64,"x_max":726,"o":"m 407 931 q 569 898 501 931 q 671 810 636 865 q 706 686 706 754 q 680 570 706 621 q 615 492 654 519 q 533 464 575 464 l 533 461 q 630 435 586 461 q 700 360 674 408 q 726 247 726 311 q 685 113 726 172 q 567 19 643 53 q 393 -14 492 -14 q 64 208 144 -14 l 200 274 q 267 153 221 193 q 399 114 313 114 q 529 155 482 114 q 576 264 576 196 q 531 370 576 339 q 388 401 486 401 l 346 401 l 346 519 l 383 519 q 556 661 556 519 q 516 767 556 731 q 404 803 476 803 q 287 767 331 803 q 231 667 243 732 l 94 722 q 208 876 124 822 q 407 931 292 931 z "},"4":{"ha":864,"x_min":57,"x_max":804,"o":"m 804 229 l 649 229 l 649 0 l 508 0 l 508 229 l 57 229 l 57 319 l 467 917 l 649 917 l 649 344 l 804 344 l 804 229 m 206 344 l 508 344 l 508 658 l 514 807 l 511 807 q 422 654 478 736 l 206 344 z "},"5":{"ha":808,"x_min":74,"x_max":732,"o":"m 443 589 q 596 552 531 589 q 697 450 661 515 q 732 299 732 385 q 643 68 732 150 q 406 -14 554 -14 q 201 36 281 -14 q 74 188 121 86 l 213 264 q 276 151 233 189 q 403 113 318 113 q 537 158 488 113 q 586 288 586 204 q 540 420 586 374 q 408 467 494 467 q 222 388 278 467 l 99 396 l 156 917 l 688 917 l 688 789 l 274 789 l 242 535 l 239 515 l 240 515 q 443 589 307 589 z "},"6":{"ha":857,"x_min":90,"x_max":779,"o":"m 461 931 q 647 884 574 931 q 761 735 721 838 l 631 672 q 453 801 590 801 q 335 756 386 801 q 255 629 283 710 q 226 449 226 549 l 226 424 l 232 424 q 322 538 254 499 q 474 578 390 578 q 633 542 564 578 q 741 440 703 506 q 779 285 779 374 q 692 67 779 147 q 453 -14 604 -14 q 185 113 279 -14 q 90 458 90 240 q 138 717 90 610 q 270 877 186 824 q 461 931 354 931 m 453 454 q 323 408 372 454 q 274 286 274 361 q 322 161 274 208 q 453 114 371 114 q 585 159 538 114 q 632 286 632 204 q 585 410 632 365 q 453 454 538 454 z "},"7":{"ha":801,"x_min":57,"x_max":756,"o":"m 756 917 l 756 793 q 511 426 586 619 q 436 0 436 233 l 285 0 q 364 419 285 221 q 601 788 443 618 l 57 788 l 57 917 l 756 917 z "},"8":{"ha":860,"x_min":85,"x_max":775,"o":"m 431 929 q 654 863 571 929 q 738 683 738 796 q 702 560 738 613 q 603 479 667 507 l 603 478 q 730 389 685 447 q 775 246 775 331 q 682 56 775 126 q 431 -14 589 -14 q 178 56 272 -14 q 85 246 85 126 q 131 389 85 329 q 258 478 176 449 l 258 479 q 158 559 194 506 q 122 683 122 613 q 206 863 122 797 q 431 929 289 929 m 431 804 q 314 769 357 804 q 271 669 271 733 q 314 572 271 607 q 431 536 357 536 q 547 572 503 536 q 590 669 590 607 q 547 768 590 732 q 431 804 504 804 m 431 111 q 573 151 521 111 q 625 263 625 192 q 572 374 625 333 q 431 415 519 415 q 288 374 342 415 q 235 263 235 333 q 288 151 235 192 q 431 111 340 111 z "},"9":{"ha":863,"x_min":85,"x_max":775,"o":"m 413 931 q 681 803 586 931 q 775 457 775 676 q 681 105 775 224 q 411 -14 588 -14 q 208 38 286 -14 q 88 192 129 89 l 228 257 q 289 149 250 185 q 411 114 328 114 q 586 206 533 114 q 639 475 639 299 l 639 490 l 633 490 q 545 372 614 410 q 389 333 476 333 q 231 369 300 333 q 124 473 163 406 q 85 629 85 540 q 173 850 85 769 q 413 931 261 931 m 413 800 q 281 755 328 800 q 233 628 233 710 q 281 504 233 549 q 413 460 328 460 q 542 506 493 460 q 592 628 592 553 q 542 753 592 706 q 413 800 493 800 z "}," ":{"ha":451,"x_min":0,"x_max":0,"o":""},"A":{"ha":924,"x_min":28,"x_max":897,"o":"m 654 240 l 268 240 l 181 0 l 28 0 l 374 917 l 551 917 l 897 0 l 740 0 l 654 240 m 610 361 l 504 656 l 463 788 l 458 788 l 419 658 l 311 361 l 610 361 z "},"Á":{"ha":924,"x_min":28,"x_max":897,"o":"m 506 1024 l 392 1024 l 469 1233 l 628 1233 l 506 1024 m 654 240 l 268 240 l 181 0 l 28 0 l 374 917 l 551 917 l 897 0 l 740 0 l 654 240 m 610 361 l 504 656 l 463 788 l 458 788 l 419 658 l 311 361 l 610 361 z "},"Ă":{"ha":924,"x_min":28,"x_max":897,"o":"m 654 240 l 268 240 l 181 0 l 28 0 l 374 917 l 551 917 l 897 0 l 740 0 l 654 240 m 610 361 l 504 656 l 463 788 l 458 788 l 419 658 l 311 361 l 610 361 m 676 1226 q 618 1072 676 1131 q 463 1014 560 1014 q 307 1072 365 1014 q 249 1226 249 1131 l 358 1226 q 388 1146 358 1179 q 463 1113 417 1113 q 538 1146 508 1113 q 567 1226 567 1179 l 676 1226 z "},"Â":{"ha":924,"x_min":28,"x_max":897,"o":"m 351 1015 l 228 1015 l 385 1247 l 540 1247 l 697 1015 l 574 1015 l 463 1164 l 351 1015 m 654 240 l 268 240 l 181 0 l 28 0 l 374 917 l 551 917 l 897 0 l 740 0 l 654 240 m 610 361 l 504 656 l 463 788 l 458 788 l 419 658 l 311 361 l 610 361 z "},"Ä":{"ha":924,"x_min":28,"x_max":897,"o":"m 654 240 l 268 240 l 181 0 l 28 0 l 374 917 l 551 917 l 897 0 l 740 0 l 654 240 m 610 361 l 504 656 l 463 788 l 458 788 l 419 658 l 311 361 l 610 361 m 321 1194 q 388 1171 363 1194 q 413 1107 413 1147 q 388 1043 413 1067 q 321 1019 363 1019 q 256 1044 281 1019 q 231 1107 231 1068 q 256 1171 231 1147 q 321 1194 281 1194 m 601 1194 q 668 1171 643 1194 q 693 1107 693 1147 q 668 1043 693 1067 q 601 1019 643 1019 q 535 1043 560 1019 q 511 1107 511 1067 q 535 1171 511 1147 q 601 1194 560 1194 z "},"À":{"ha":924,"x_min":28,"x_max":897,"o":"m 403 1024 l 281 1233 l 439 1233 l 517 1024 l 403 1024 m 654 240 l 268 240 l 181 0 l 28 0 l 374 917 l 551 917 l 897 0 l 740 0 l 654 240 m 610 361 l 504 656 l 463 788 l 458 788 l 419 658 l 311 361 l 610 361 z "},"Ā":{"ha":924,"x_min":28,"x_max":897,"o":"m 654 240 l 268 240 l 181 0 l 28 0 l 374 917 l 551 917 l 897 0 l 740 0 l 654 240 m 610 361 l 504 656 l 463 788 l 458 788 l 419 658 l 311 361 l 610 361 m 710 1039 l 215 1039 l 215 1147 l 710 1147 l 710 1039 z "},"Ą":{"ha":924,"x_min":28,"x_max":911,"o":"m 911 -271 q 788 -299 868 -299 q 661 -260 708 -299 q 614 -150 614 -221 q 736 14 614 -42 l 654 240 l 268 240 l 181 0 l 28 0 l 374 917 l 551 917 l 897 0 l 896 0 q 763 -60 800 -28 q 726 -135 726 -93 q 749 -185 726 -167 q 813 -203 772 -203 q 886 -186 861 -203 l 911 -271 m 610 361 l 504 656 l 463 788 l 458 788 l 419 658 l 311 361 l 610 361 z "},"Å":{"ha":924,"x_min":28,"x_max":897,"o":"m 654 240 l 268 240 l 181 0 l 28 0 l 360 875 q 299 933 321 896 q 278 1018 278 969 q 329 1140 278 1093 q 464 1188 381 1188 q 597 1140 547 1188 q 647 1018 647 1093 q 626 933 647 969 q 565 875 604 896 l 897 0 l 740 0 l 654 240 m 463 1107 q 394 1082 421 1107 q 368 1017 368 1057 q 394 951 368 976 q 463 926 421 926 q 529 951 503 926 q 556 1017 556 976 q 529 1081 556 1056 q 463 1107 503 1107 m 610 361 l 504 656 l 463 788 l 458 788 l 419 658 l 311 361 l 610 361 z "},"Ã":{"ha":924,"x_min":28,"x_max":897,"o":"m 654 240 l 268 240 l 181 0 l 28 0 l 374 917 l 551 917 l 897 0 l 740 0 l 654 240 m 610 361 l 504 656 l 463 788 l 458 788 l 419 658 l 311 361 l 610 361 m 719 1218 q 556 1022 707 1022 q 488 1037 515 1022 q 432 1078 461 1051 q 396 1105 408 1097 q 367 1113 383 1113 q 326 1090 340 1113 q 304 1021 311 1067 l 203 1021 q 368 1218 215 1218 q 433 1204 407 1218 q 490 1163 458 1190 q 526 1135 514 1143 q 554 1128 539 1128 q 597 1150 582 1128 q 618 1218 611 1172 l 719 1218 z "},"Æ":{"ha":1313,"x_min":4,"x_max":1249,"o":"m 1249 125 l 1249 0 l 614 0 l 614 289 l 310 289 l 160 0 l 4 0 l 497 917 l 1229 917 l 1229 792 l 758 792 l 758 525 l 1117 525 l 1117 401 l 758 401 l 758 125 l 1249 125 m 614 408 l 614 793 l 571 793 l 372 408 l 614 408 z "},"B":{"ha":919,"x_min":136,"x_max":839,"o":"m 136 917 l 497 917 q 737 851 658 917 q 815 665 815 786 q 772 535 815 590 q 651 465 729 479 l 651 464 q 788 392 738 450 q 839 254 839 333 q 751 67 839 135 q 503 0 664 0 l 136 0 l 136 917 m 486 522 q 661 657 661 522 q 486 792 661 792 l 282 792 l 282 522 l 486 522 m 510 124 q 640 159 596 124 q 685 261 685 194 q 640 363 685 328 q 510 399 596 399 l 282 399 l 282 124 l 510 124 z "},"C":{"ha":950,"x_min":85,"x_max":896,"o":"m 896 243 q 753 53 854 119 q 517 -14 653 -14 q 288 43 385 -14 q 138 207 190 100 q 85 458 85 314 q 138 710 85 603 q 288 874 190 817 q 515 931 385 931 q 747 874 653 931 q 882 706 840 817 l 742 643 q 661 763 714 725 q 524 801 608 801 q 317 710 394 801 q 240 458 240 619 q 314 206 240 296 q 518 115 388 115 q 667 160 607 115 q 754 290 728 204 l 896 243 z "},"Ć":{"ha":950,"x_min":85,"x_max":896,"o":"m 679 1233 l 557 1024 l 443 1024 l 521 1233 l 679 1233 m 896 243 q 753 53 854 119 q 517 -14 653 -14 q 288 43 385 -14 q 138 207 190 100 q 85 458 85 314 q 138 710 85 603 q 288 874 190 817 q 515 931 385 931 q 747 874 653 931 q 882 706 840 817 l 742 643 q 661 763 714 725 q 524 801 608 801 q 317 710 394 801 q 240 458 240 619 q 314 206 240 296 q 518 115 388 115 q 667 160 607 115 q 754 290 728 204 l 896 243 z "},"Č":{"ha":950,"x_min":85,"x_max":896,"o":"m 589 1018 l 433 1018 l 276 1250 l 400 1250 l 511 1101 l 622 1250 l 746 1250 l 589 1018 m 896 243 q 753 53 854 119 q 517 -14 653 -14 q 288 43 385 -14 q 138 207 190 100 q 85 458 85 314 q 138 710 85 603 q 288 874 190 817 q 515 931 385 931 q 747 874 653 931 q 882 706 840 817 l 742 643 q 661 763 714 725 q 524 801 608 801 q 317 710 394 801 q 240 458 240 619 q 314 206 240 296 q 518 115 388 115 q 667 160 607 115 q 754 290 728 204 l 896 243 z "},"Ç":{"ha":950,"x_min":85,"x_max":896,"o":"m 896 243 q 784 75 861 139 q 600 -7 707 11 q 659 -71 639 -35 q 679 -146 679 -107 q 632 -256 679 -212 q 507 -299 585 -299 q 415 -286 453 -299 q 347 -247 376 -274 l 393 -161 q 436 -191 411 -179 q 490 -203 461 -203 q 546 -181 524 -203 q 568 -125 568 -160 q 546 -63 568 -89 q 465 -11 524 -37 q 263 59 349 -1 q 131 222 176 119 q 85 458 85 324 q 138 710 85 603 q 288 874 190 817 q 515 931 385 931 q 747 874 653 931 q 882 706 840 817 l 742 643 q 661 763 714 725 q 524 801 608 801 q 317 710 394 801 q 240 458 240 619 q 314 206 240 296 q 518 115 388 115 q 667 160 607 115 q 754 290 728 204 l 896 243 z "},"D":{"ha":1000,"x_min":136,"x_max":915,"o":"m 460 917 q 796 797 676 917 q 915 458 915 678 q 796 119 915 239 q 460 0 676 0 l 136 0 l 136 917 l 460 917 m 460 126 q 682 213 604 126 q 760 458 760 300 q 682 703 760 617 q 460 790 604 790 l 285 790 l 285 126 l 460 126 z "},"Ð":{"ha":1025,"x_min":31,"x_max":940,"o":"m 485 917 q 821 797 701 917 q 940 458 940 678 q 821 119 940 239 q 485 0 701 0 l 161 0 l 161 408 l 31 408 l 31 514 l 161 514 l 161 917 l 485 917 m 485 126 q 708 213 631 126 q 786 458 786 300 q 708 703 786 617 q 485 790 631 790 l 310 790 l 310 514 l 556 514 l 556 408 l 310 408 l 310 126 l 485 126 z "},"Ď":{"ha":1000,"x_min":136,"x_max":915,"o":"m 374 1018 l 217 1250 l 340 1250 l 451 1101 l 563 1250 l 686 1250 l 529 1018 l 374 1018 m 460 917 q 796 797 676 917 q 915 458 915 678 q 796 119 915 239 q 460 0 676 0 l 136 0 l 136 917 l 460 917 m 460 126 q 682 213 604 126 q 760 458 760 300 q 682 703 760 617 q 460 790 604 790 l 285 790 l 285 126 l 460 126 z "},"Đ":{"ha":1025,"x_min":31,"x_max":940,"o":"m 485 917 q 821 797 701 917 q 940 458 940 678 q 821 119 940 239 q 485 0 701 0 l 161 0 l 161 408 l 31 408 l 31 514 l 161 514 l 161 917 l 485 917 m 485 126 q 708 213 631 126 q 786 458 786 300 q 708 703 786 617 q 485 790 631 790 l 310 790 l 310 514 l 556 514 l 556 408 l 310 408 l 310 126 l 485 126 z "},"E":{"ha":883,"x_min":136,"x_max":819,"o":"m 819 128 l 819 0 l 136 0 l 136 917 l 800 917 l 800 789 l 285 789 l 285 525 l 688 525 l 688 400 l 285 400 l 285 128 l 819 128 z "},"É":{"ha":883,"x_min":136,"x_max":819,"o":"m 508 1024 l 394 1024 l 472 1233 l 631 1233 l 508 1024 m 819 128 l 819 0 l 136 0 l 136 917 l 800 917 l 800 789 l 285 789 l 285 525 l 688 525 l 688 400 l 285 400 l 285 128 l 819 128 z "},"Ě":{"ha":883,"x_min":136,"x_max":819,"o":"m 385 1018 l 228 1250 l 351 1250 l 463 1101 l 574 1250 l 697 1250 l 540 1018 l 385 1018 m 819 128 l 819 0 l 136 0 l 136 917 l 800 917 l 800 789 l 285 789 l 285 525 l 688 525 l 688 400 l 285 400 l 285 128 l 819 128 z "},"Ê":{"ha":883,"x_min":136,"x_max":819,"o":"m 353 1015 l 229 1015 l 386 1247 l 542 1247 l 699 1015 l 575 1015 l 464 1164 l 353 1015 m 819 128 l 819 0 l 136 0 l 136 917 l 800 917 l 800 789 l 285 789 l 285 525 l 688 525 l 688 400 l 285 400 l 285 128 l 819 128 z "},"Ë":{"ha":883,"x_min":136,"x_max":819,"o":"m 819 128 l 819 0 l 136 0 l 136 917 l 800 917 l 800 789 l 285 789 l 285 525 l 688 525 l 688 400 l 285 400 l 285 128 l 819 128 m 324 1194 q 390 1171 365 1194 q 415 1107 415 1147 q 390 1043 415 1067 q 324 1019 365 1019 q 258 1044 283 1019 q 233 1107 233 1068 q 258 1171 233 1147 q 324 1194 283 1194 m 604 1194 q 671 1171 646 1194 q 696 1107 696 1147 q 671 1043 696 1067 q 604 1019 646 1019 q 538 1043 563 1019 q 514 1107 514 1067 q 538 1171 514 1147 q 604 1194 563 1194 z "},"Ė":{"ha":883,"x_min":136,"x_max":819,"o":"m 819 128 l 819 0 l 136 0 l 136 917 l 800 917 l 800 789 l 285 789 l 285 525 l 688 525 l 688 400 l 285 400 l 285 128 l 819 128 m 464 1219 q 535 1195 508 1219 q 561 1128 561 1171 q 535 1060 561 1085 q 464 1036 508 1036 q 394 1060 419 1036 q 368 1128 368 1085 q 394 1195 368 1171 q 464 1219 419 1219 z "},"È":{"ha":883,"x_min":136,"x_max":819,"o":"m 429 1024 l 307 1233 l 465 1233 l 543 1024 l 429 1024 m 819 128 l 819 0 l 136 0 l 136 917 l 800 917 l 800 789 l 285 789 l 285 525 l 688 525 l 688 400 l 285 400 l 285 128 l 819 128 z "},"Ē":{"ha":883,"x_min":136,"x_max":819,"o":"m 819 128 l 819 0 l 136 0 l 136 917 l 800 917 l 800 789 l 285 789 l 285 525 l 688 525 l 688 400 l 285 400 l 285 128 l 819 128 m 711 1039 l 217 1039 l 217 1147 l 711 1147 l 711 1039 z "},"Ę":{"ha":883,"x_min":136,"x_max":835,"o":"m 835 -271 q 711 -299 793 -299 q 585 -261 632 -299 q 538 -157 538 -224 q 567 -65 538 -103 q 657 0 597 -26 l 136 0 l 136 917 l 800 917 l 800 789 l 285 789 l 285 525 l 688 525 l 688 400 l 285 400 l 285 128 l 819 128 l 819 0 l 821 0 q 687 -60 724 -28 q 650 -135 650 -93 q 673 -185 650 -167 q 736 -203 696 -203 q 810 -186 785 -203 l 835 -271 z "},"F":{"ha":849,"x_min":136,"x_max":799,"o":"m 285 789 l 285 524 l 688 524 l 688 394 l 285 394 l 285 0 l 136 0 l 136 917 l 799 917 l 799 789 l 285 789 z "},"G":{"ha":1006,"x_min":85,"x_max":904,"o":"m 904 474 l 904 0 l 794 0 l 790 117 q 679 20 750 54 q 510 -14 608 -14 q 286 43 382 -14 q 138 206 190 100 q 85 458 85 313 q 139 709 85 603 q 292 873 193 815 q 521 931 390 931 q 754 878 663 931 q 899 714 846 825 l 763 649 q 674 763 736 724 q 524 801 611 801 q 317 711 393 801 q 240 458 240 621 q 313 203 240 293 q 526 114 386 114 q 704 168 636 114 q 772 325 772 222 l 772 351 l 492 351 l 492 474 l 904 474 z "},"Ğ":{"ha":1006,"x_min":85,"x_max":904,"o":"m 904 474 l 904 0 l 794 0 l 790 117 q 679 20 750 54 q 510 -14 608 -14 q 286 43 382 -14 q 138 206 190 100 q 85 458 85 313 q 139 709 85 603 q 292 873 193 815 q 521 931 390 931 q 754 878 663 931 q 899 714 846 825 l 763 649 q 674 763 736 724 q 524 801 611 801 q 317 711 393 801 q 240 458 240 621 q 313 203 240 293 q 526 114 386 114 q 704 168 636 114 q 772 325 772 222 l 772 351 l 492 351 l 492 474 l 904 474 m 729 1226 q 671 1072 729 1131 q 515 1014 613 1014 q 360 1072 418 1014 q 301 1226 301 1131 l 411 1226 q 440 1146 411 1179 q 515 1113 469 1113 q 590 1146 561 1113 q 619 1226 619 1179 l 729 1226 z "},"H":{"ha":1022,"x_min":136,"x_max":888,"o":"m 888 917 l 888 0 l 738 0 l 738 400 l 285 400 l 285 0 l 136 0 l 136 917 l 285 917 l 285 528 l 738 528 l 738 917 l 888 917 z "},"I":{"ha":421,"x_min":136,"x_max":285,"o":"m 285 0 l 136 0 l 136 917 l 285 917 l 285 0 z "},"Ĳ":{"ha":1229,"x_min":136,"x_max":1106,"o":"m 285 0 l 136 0 l 136 917 l 285 917 l 285 0 m 1106 325 q 1017 76 1106 165 q 772 -14 929 -14 q 551 55 628 -14 q 475 243 475 124 q 482 321 475 286 l 624 347 q 618 276 618 294 q 656 154 618 193 q 772 115 693 115 q 915 173 874 115 q 957 353 957 231 l 957 917 l 1106 917 l 1106 325 z "},"Í":{"ha":421,"x_min":136,"x_max":376,"o":"m 376 1233 l 254 1024 l 140 1024 l 218 1233 l 376 1233 m 285 0 l 136 0 l 136 917 l 285 917 l 285 0 z "},"Î":{"ha":421,"x_min":-25,"x_max":444,"o":"m 321 1015 l 210 1164 l 99 1015 l -25 1015 l 132 1247 l 288 1247 l 444 1015 l 321 1015 m 285 0 l 136 0 l 136 917 l 285 917 l 285 0 z "},"Ï":{"ha":421,"x_min":-6,"x_max":426,"o":"m 83 1194 q 149 1171 125 1194 q 174 1107 174 1147 q 149 1043 174 1067 q 83 1019 125 1019 q 19 1043 43 1019 q -6 1107 -6 1067 q 19 1171 -6 1147 q 83 1194 43 1194 m 336 1194 q 401 1171 376 1194 q 426 1107 426 1147 q 401 1044 426 1068 q 336 1019 376 1019 q 271 1044 296 1019 q 246 1107 246 1068 q 271 1171 246 1147 q 336 1194 296 1194 m 285 0 l 136 0 l 136 917 l 285 917 l 285 0 z "},"İ":{"ha":421,"x_min":114,"x_max":307,"o":"m 285 0 l 136 0 l 136 917 l 285 917 l 285 0 m 210 1219 q 281 1195 254 1219 q 307 1128 307 1171 q 281 1060 307 1085 q 210 1036 254 1036 q 140 1060 165 1036 q 114 1128 114 1085 q 140 1195 114 1171 q 210 1219 165 1219 z "},"Ì":{"ha":421,"x_min":28,"x_max":285,"o":"m 264 1024 l 150 1024 l 28 1233 l 186 1233 l 264 1024 m 285 0 l 136 0 l 136 917 l 285 917 l 285 0 z "},"Ī":{"ha":421,"x_min":46,"x_max":374,"o":"m 374 1039 l 46 1039 l 46 1147 l 374 1147 l 374 1039 m 285 0 l 136 0 l 136 917 l 285 917 l 285 0 z "},"Į":{"ha":421,"x_min":22,"x_max":319,"o":"m 319 -267 q 193 -299 271 -299 q 69 -261 115 -299 q 22 -157 22 -224 q 136 4 22 -54 l 136 917 l 285 917 l 285 0 q 167 -65 200 -33 q 135 -132 135 -97 q 214 -203 135 -203 q 290 -183 261 -203 l 319 -267 z "},"J":{"ha":808,"x_min":54,"x_max":685,"o":"m 685 325 q 597 76 685 165 q 351 -14 508 -14 q 131 55 207 -14 q 54 243 54 124 q 61 321 54 286 l 203 347 q 197 276 197 294 q 235 154 197 193 q 351 115 272 115 q 494 173 453 115 q 536 353 536 231 l 536 917 l 685 917 l 685 325 z "},"K":{"ha":926,"x_min":136,"x_max":896,"o":"m 433 442 l 285 282 l 285 0 l 136 0 l 136 917 l 285 917 l 285 461 l 706 917 l 888 917 l 540 542 l 896 0 l 721 0 l 433 442 z "},"L":{"ha":832,"x_min":136,"x_max":790,"o":"m 790 128 l 790 0 l 136 0 l 136 917 l 285 917 l 285 128 l 790 128 z "},"Ĺ":{"ha":832,"x_min":136,"x_max":790,"o":"m 254 1024 l 140 1024 l 218 1233 l 376 1233 l 254 1024 m 790 128 l 790 0 l 136 0 l 136 917 l 285 917 l 285 128 l 790 128 z "},"Ľ":{"ha":832,"x_min":136,"x_max":790,"o":"m 507 682 l 410 682 l 439 974 l 572 974 l 507 682 m 790 128 l 790 0 l 136 0 l 136 917 l 285 917 l 285 128 l 790 128 z "},"Ŀ":{"ha":869,"x_min":136,"x_max":839,"o":"m 790 128 l 790 0 l 136 0 l 136 917 l 285 917 l 285 128 l 790 128 m 735 581 q 810 553 782 581 q 839 481 839 526 q 810 407 839 435 q 735 379 782 379 q 658 407 688 379 q 629 481 629 435 q 658 553 629 526 q 735 581 686 581 z "},"Ł":{"ha":879,"x_min":35,"x_max":836,"o":"m 836 128 l 836 0 l 182 0 l 182 338 l 35 260 l 35 393 l 182 471 l 182 917 l 332 917 l 332 550 l 575 679 l 575 546 l 332 418 l 332 128 l 836 128 z "},"M":{"ha":1210,"x_min":136,"x_max":1074,"o":"m 1074 0 l 938 0 l 938 531 l 947 783 l 946 783 l 667 0 l 543 0 l 264 783 l 263 783 l 274 531 l 274 0 l 136 0 l 136 917 l 357 917 l 542 386 l 606 168 l 608 168 l 674 386 l 857 917 l 1074 917 l 1074 0 z "},"N":{"ha":1022,"x_min":136,"x_max":888,"o":"m 888 0 l 711 0 l 357 578 l 268 747 l 267 747 l 272 592 l 272 0 l 136 0 l 136 917 l 311 917 l 664 340 l 754 169 l 756 169 l 750 325 l 750 917 l 888 917 l 888 0 z "},"Ń":{"ha":1022,"x_min":136,"x_max":888,"o":"m 682 1233 l 560 1024 l 446 1024 l 524 1233 l 682 1233 m 888 0 l 711 0 l 357 578 l 268 747 l 267 747 l 272 592 l 272 0 l 136 0 l 136 917 l 311 917 l 664 340 l 754 169 l 756 169 l 750 325 l 750 917 l 888 917 l 888 0 z "},"Ň":{"ha":1022,"x_min":136,"x_max":888,"o":"m 592 1018 l 436 1018 l 279 1250 l 403 1250 l 514 1101 l 625 1250 l 749 1250 l 592 1018 m 888 0 l 711 0 l 357 578 l 268 747 l 267 747 l 272 592 l 272 0 l 136 0 l 136 917 l 311 917 l 664 340 l 754 169 l 756 169 l 750 325 l 750 917 l 888 917 l 888 0 z "},"Ñ":{"ha":1022,"x_min":136,"x_max":888,"o":"m 888 0 l 711 0 l 357 578 l 268 747 l 267 747 l 272 592 l 272 0 l 136 0 l 136 917 l 311 917 l 664 340 l 754 169 l 756 169 l 750 325 l 750 917 l 888 917 l 888 0 m 774 1218 q 610 1022 761 1022 q 542 1037 569 1022 q 486 1078 515 1051 q 450 1105 463 1097 q 421 1113 438 1113 q 380 1090 394 1113 q 358 1021 365 1067 l 257 1021 q 422 1218 269 1218 q 487 1204 461 1218 q 544 1163 513 1190 q 581 1135 568 1143 q 608 1128 593 1128 q 651 1150 636 1128 q 672 1218 665 1172 l 774 1218 z "},"O":{"ha":1035,"x_min":85,"x_max":950,"o":"m 517 931 q 747 874 649 931 q 897 710 844 817 q 950 458 950 603 q 897 207 950 314 q 747 43 844 100 q 517 -14 649 -14 q 288 43 385 -14 q 138 207 190 100 q 85 458 85 314 q 138 710 85 603 q 288 874 190 817 q 517 931 385 931 m 517 801 q 314 711 388 801 q 240 458 240 621 q 314 206 240 296 q 517 115 388 115 q 721 206 647 115 q 794 458 794 296 q 721 711 794 621 q 517 801 647 801 z "},"Ó":{"ha":1035,"x_min":85,"x_max":950,"o":"m 683 1233 l 561 1024 l 447 1024 l 525 1233 l 683 1233 m 517 931 q 747 874 649 931 q 897 710 844 817 q 950 458 950 603 q 897 207 950 314 q 747 43 844 100 q 517 -14 649 -14 q 288 43 385 -14 q 138 207 190 100 q 85 458 85 314 q 138 710 85 603 q 288 874 190 817 q 517 931 385 931 m 517 801 q 314 711 388 801 q 240 458 240 621 q 314 206 240 296 q 517 115 388 115 q 721 206 647 115 q 794 458 794 296 q 721 711 794 621 q 517 801 647 801 z "},"Ô":{"ha":1035,"x_min":85,"x_max":950,"o":"m 628 1015 l 517 1164 l 406 1015 l 282 1015 l 439 1247 l 594 1247 l 751 1015 l 628 1015 m 517 931 q 747 874 649 931 q 897 710 844 817 q 950 458 950 603 q 897 207 950 314 q 747 43 844 100 q 517 -14 649 -14 q 288 43 385 -14 q 138 207 190 100 q 85 458 85 314 q 138 710 85 603 q 288 874 190 817 q 517 931 385 931 m 517 801 q 314 711 388 801 q 240 458 240 621 q 314 206 240 296 q 517 115 388 115 q 721 206 647 115 q 794 458 794 296 q 721 711 794 621 q 517 801 647 801 z "},"Ö":{"ha":1035,"x_min":85,"x_max":950,"o":"m 517 931 q 747 874 649 931 q 897 710 844 817 q 950 458 950 603 q 897 207 950 314 q 747 43 844 100 q 517 -14 649 -14 q 288 43 385 -14 q 138 207 190 100 q 85 458 85 314 q 138 710 85 603 q 288 874 190 817 q 517 931 385 931 m 517 801 q 314 711 388 801 q 240 458 240 621 q 314 206 240 296 q 517 115 388 115 q 721 206 647 115 q 794 458 794 296 q 721 711 794 621 q 517 801 647 801 m 376 1194 q 443 1171 418 1194 q 468 1107 468 1147 q 443 1043 468 1067 q 376 1019 418 1019 q 311 1044 336 1019 q 286 1107 286 1068 q 311 1171 286 1147 q 376 1194 336 1194 m 657 1194 q 724 1171 699 1194 q 749 1107 749 1147 q 724 1043 749 1067 q 657 1019 699 1019 q 591 1043 615 1019 q 567 1107 567 1067 q 591 1171 567 1147 q 657 1194 615 1194 z "},"Ò":{"ha":1035,"x_min":85,"x_max":950,"o":"m 571 1024 l 457 1024 l 335 1233 l 493 1233 l 571 1024 m 517 931 q 747 874 649 931 q 897 710 844 817 q 950 458 950 603 q 897 207 950 314 q 747 43 844 100 q 517 -14 649 -14 q 288 43 385 -14 q 138 207 190 100 q 85 458 85 314 q 138 710 85 603 q 288 874 190 817 q 517 931 385 931 m 517 801 q 314 711 388 801 q 240 458 240 621 q 314 206 240 296 q 517 115 388 115 q 721 206 647 115 q 794 458 794 296 q 721 711 794 621 q 517 801 647 801 z "},"Ő":{"ha":1035,"x_min":85,"x_max":950,"o":"m 564 1233 l 442 1024 l 328 1024 l 406 1233 l 564 1233 m 829 1233 l 707 1024 l 593 1024 l 671 1233 l 829 1233 m 517 931 q 747 874 649 931 q 897 710 844 817 q 950 458 950 603 q 897 207 950 314 q 747 43 844 100 q 517 -14 649 -14 q 288 43 385 -14 q 138 207 190 100 q 85 458 85 314 q 138 710 85 603 q 288 874 190 817 q 517 931 385 931 m 517 801 q 314 711 388 801 q 240 458 240 621 q 314 206 240 296 q 517 115 388 115 q 721 206 647 115 q 794 458 794 296 q 721 711 794 621 q 517 801 647 801 z "},"Ō":{"ha":1035,"x_min":85,"x_max":950,"o":"m 517 931 q 747 874 649 931 q 897 710 844 817 q 950 458 950 603 q 897 207 950 314 q 747 43 844 100 q 517 -14 649 -14 q 288 43 385 -14 q 138 207 190 100 q 85 458 85 314 q 138 710 85 603 q 288 874 190 817 q 517 931 385 931 m 517 801 q 314 711 388 801 q 240 458 240 621 q 314 206 240 296 q 517 115 388 115 q 721 206 647 115 q 794 458 794 296 q 721 711 794 621 q 517 801 647 801 m 764 1039 l 269 1039 l 269 1147 l 764 1147 l 764 1039 z "},"Ø":{"ha":1035,"x_min":85,"x_max":950,"o":"m 826 811 q 918 660 886 750 q 950 458 950 569 q 897 207 950 314 q 747 43 844 100 q 517 -14 649 -14 q 283 46 382 -14 l 217 -47 l 113 -47 l 215 99 q 119 253 153 161 q 85 458 85 344 q 138 710 85 603 q 288 874 190 817 q 517 931 385 931 q 760 865 658 931 l 818 947 l 922 947 l 826 811 m 517 801 q 314 711 388 801 q 240 458 240 621 q 303 218 240 308 l 678 753 q 517 801 613 801 m 517 115 q 721 206 647 115 q 794 458 794 296 q 738 689 794 603 l 367 157 q 517 115 429 115 z "},"Õ":{"ha":1035,"x_min":85,"x_max":950,"o":"m 517 931 q 747 874 649 931 q 897 710 844 817 q 950 458 950 603 q 897 207 950 314 q 747 43 844 100 q 517 -14 649 -14 q 288 43 385 -14 q 138 207 190 100 q 85 458 85 314 q 138 710 85 603 q 288 874 190 817 q 517 931 385 931 m 517 801 q 314 711 388 801 q 240 458 240 621 q 314 206 240 296 q 517 115 388 115 q 721 206 647 115 q 794 458 794 296 q 721 711 794 621 q 517 801 647 801 m 775 1218 q 611 1022 763 1022 q 544 1037 571 1022 q 488 1078 517 1051 q 451 1105 464 1097 q 422 1113 439 1113 q 381 1090 396 1113 q 360 1021 367 1067 l 258 1021 q 424 1218 271 1218 q 488 1204 463 1218 q 546 1163 514 1190 q 582 1135 569 1143 q 610 1128 594 1128 q 652 1150 638 1128 q 674 1218 667 1172 l 775 1218 z "},"Œ":{"ha":1486,"x_min":85,"x_max":1424,"o":"m 1424 128 l 1424 0 l 803 0 l 803 128 q 676 23 751 60 q 510 -14 601 -14 q 283 43 379 -14 q 136 207 188 100 q 85 458 85 314 q 136 710 85 603 q 284 874 188 817 q 514 931 381 931 q 678 894 604 931 q 803 792 751 858 l 803 917 l 1403 917 l 1403 789 l 922 789 l 922 525 l 1292 525 l 1292 400 l 922 400 l 922 128 l 1424 128 m 517 115 q 709 206 638 115 q 781 458 781 297 q 709 710 781 619 q 517 801 638 801 q 311 712 383 801 q 239 458 239 622 q 311 205 239 294 q 517 115 383 115 z "},"P":{"ha":871,"x_min":136,"x_max":811,"o":"m 489 917 q 724 840 638 917 q 811 631 811 764 q 724 422 811 497 q 489 346 638 346 l 285 346 l 285 0 l 136 0 l 136 917 l 489 917 m 465 472 q 610 512 563 472 q 657 631 657 551 q 465 790 657 790 l 285 790 l 285 472 l 465 472 z "},"Þ":{"ha":888,"x_min":136,"x_max":818,"o":"m 471 760 q 730 685 642 760 q 818 468 818 610 q 730 251 818 326 q 471 176 642 176 l 285 176 l 285 0 l 136 0 l 136 917 l 285 917 l 285 760 l 471 760 m 469 303 q 617 344 568 303 q 664 468 665 385 q 617 592 665 551 q 469 633 568 633 l 285 633 l 285 303 l 469 303 z "},"Q":{"ha":1035,"x_min":85,"x_max":950,"o":"m 739 -140 q 835 -126 792 -140 q 904 -87 878 -112 l 947 -212 q 855 -258 914 -242 q 735 -275 796 -275 q 537 -210 613 -275 q 457 -11 461 -146 q 184 133 283 8 q 85 458 85 257 q 138 710 85 603 q 288 874 190 817 q 517 931 385 931 q 747 874 649 931 q 897 710 844 817 q 950 458 950 603 q 849 131 950 256 q 574 -11 749 7 q 623 -113 581 -86 q 739 -140 665 -140 m 240 458 q 314 206 240 296 q 517 115 388 115 q 721 206 647 115 q 794 458 794 296 q 721 711 794 621 q 517 801 647 801 q 314 711 388 801 q 240 458 240 621 z "},"R":{"ha":933,"x_min":136,"x_max":885,"o":"m 481 367 l 283 367 l 283 0 l 136 0 l 136 917 l 510 917 q 744 844 658 917 q 831 642 831 771 q 780 477 831 543 q 636 383 729 411 l 885 0 l 714 0 l 481 367 m 283 490 l 497 490 q 632 527 588 490 q 676 640 676 564 q 632 753 676 717 q 497 790 588 790 l 283 790 l 283 490 z "},"Ŕ":{"ha":933,"x_min":136,"x_max":885,"o":"m 494 1024 l 381 1024 l 458 1233 l 617 1233 l 494 1024 m 481 367 l 283 367 l 283 0 l 136 0 l 136 917 l 510 917 q 744 844 658 917 q 831 642 831 771 q 780 477 831 543 q 636 383 729 411 l 885 0 l 714 0 l 481 367 m 283 490 l 497 490 q 632 527 588 490 q 676 640 676 564 q 632 753 676 717 q 497 790 588 790 l 283 790 l 283 490 z "},"Ř":{"ha":933,"x_min":136,"x_max":885,"o":"m 371 1018 l 214 1250 l 338 1250 l 449 1101 l 560 1250 l 683 1250 l 526 1018 l 371 1018 m 481 367 l 283 367 l 283 0 l 136 0 l 136 917 l 510 917 q 744 844 658 917 q 831 642 831 771 q 780 477 831 543 q 636 383 729 411 l 885 0 l 714 0 l 481 367 m 283 490 l 497 490 q 632 527 588 490 q 676 640 676 564 q 632 753 676 717 q 497 790 588 790 l 283 790 l 283 490 z "},"S":{"ha":892,"x_min":60,"x_max":819,"o":"m 449 931 q 665 885 575 931 q 815 744 754 839 l 703 643 q 606 764 664 726 q 450 801 547 801 q 301 763 354 801 q 249 665 249 725 q 300 577 249 610 q 483 521 351 544 q 680 465 607 499 q 786 380 753 431 q 819 254 819 329 q 774 113 819 174 q 645 19 728 51 q 454 -14 563 -14 q 60 172 175 -14 l 164 276 q 278 154 208 193 q 453 115 349 115 q 608 149 551 115 q 664 246 664 183 q 613 326 664 296 q 436 381 563 357 q 235 439 310 404 q 126 525 160 474 q 92 650 92 576 q 135 792 92 728 q 259 893 178 856 q 449 931 340 931 z "},"Ś":{"ha":892,"x_min":60,"x_max":819,"o":"m 621 1233 l 499 1024 l 385 1024 l 463 1233 l 621 1233 m 449 931 q 665 885 575 931 q 815 744 754 839 l 703 643 q 606 764 664 726 q 450 801 547 801 q 301 763 354 801 q 249 665 249 725 q 300 577 249 610 q 483 521 351 544 q 680 465 607 499 q 786 380 753 431 q 819 254 819 329 q 774 113 819 174 q 645 19 728 51 q 454 -14 563 -14 q 60 172 175 -14 l 164 276 q 278 154 208 193 q 453 115 349 115 q 608 149 551 115 q 664 246 664 183 q 613 326 664 296 q 436 381 563 357 q 235 439 310 404 q 126 525 160 474 q 92 650 92 576 q 135 792 92 728 q 259 893 178 856 q 449 931 340 931 z "},"Š":{"ha":892,"x_min":60,"x_max":819,"o":"m 531 1018 l 375 1018 l 218 1250 l 342 1250 l 453 1101 l 564 1250 l 688 1250 l 531 1018 m 449 931 q 665 885 575 931 q 815 744 754 839 l 703 643 q 606 764 664 726 q 450 801 547 801 q 301 763 354 801 q 249 665 249 725 q 300 577 249 610 q 483 521 351 544 q 680 465 607 499 q 786 380 753 431 q 819 254 819 329 q 774 113 819 174 q 645 19 728 51 q 454 -14 563 -14 q 60 172 175 -14 l 164 276 q 278 154 208 193 q 453 115 349 115 q 608 149 551 115 q 664 246 664 183 q 613 326 664 296 q 436 381 563 357 q 235 439 310 404 q 126 525 160 474 q 92 650 92 576 q 135 792 92 728 q 259 893 178 856 q 449 931 340 931 z "},"ẞ":{"ha":971,"x_min":136,"x_max":924,"o":"m 636 511 q 845 446 767 511 q 924 258 924 381 q 887 117 924 178 q 784 25 850 57 q 635 -7 718 -7 q 483 17 547 -7 q 392 79 419 40 l 443 179 q 515 133 469 150 q 613 115 560 115 q 729 155 685 115 q 774 260 774 194 q 724 366 774 328 q 586 404 675 404 l 474 404 l 474 511 l 704 790 l 478 790 q 340 735 396 790 q 285 594 285 681 l 285 0 l 136 0 l 136 606 q 178 769 136 699 q 294 878 219 840 q 465 917 369 917 l 865 917 l 865 790 l 625 511 l 636 511 z "},"T":{"ha":860,"x_min":42,"x_max":818,"o":"m 818 789 l 504 789 l 504 0 l 356 0 l 356 789 l 42 789 l 42 917 l 818 917 l 818 789 z "},"Ť":{"ha":860,"x_min":42,"x_max":818,"o":"m 350 1018 l 193 1250 l 317 1250 l 428 1101 l 539 1250 l 663 1250 l 506 1018 l 350 1018 m 818 789 l 504 789 l 504 0 l 356 0 l 356 789 l 42 789 l 42 917 l 818 917 l 818 789 z "},"U":{"ha":997,"x_min":124,"x_max":874,"o":"m 874 351 q 778 78 874 171 q 499 -14 682 -14 q 219 78 315 -14 q 124 351 124 171 l 124 917 l 274 917 l 274 369 q 328 177 274 239 q 499 115 383 115 q 669 177 614 115 q 724 369 724 239 l 724 917 l 874 917 l 874 351 z "},"Ú":{"ha":997,"x_min":124,"x_max":874,"o":"m 664 1233 l 542 1024 l 428 1024 l 506 1233 l 664 1233 m 874 351 q 778 78 874 171 q 499 -14 682 -14 q 219 78 315 -14 q 124 351 124 171 l 124 917 l 274 917 l 274 369 q 328 177 274 239 q 499 115 383 115 q 669 177 614 115 q 724 369 724 239 l 724 917 l 874 917 l 874 351 z "},"Û":{"ha":997,"x_min":124,"x_max":874,"o":"m 610 1015 l 499 1164 l 388 1015 l 264 1015 l 421 1247 l 576 1247 l 733 1015 l 610 1015 m 874 351 q 778 78 874 171 q 499 -14 682 -14 q 219 78 315 -14 q 124 351 124 171 l 124 917 l 274 917 l 274 369 q 328 177 274 239 q 499 115 383 115 q 669 177 614 115 q 724 369 724 239 l 724 917 l 874 917 l 874 351 z "},"Ü":{"ha":997,"x_min":124,"x_max":874,"o":"m 874 351 q 778 78 874 171 q 499 -14 682 -14 q 219 78 315 -14 q 124 351 124 171 l 124 917 l 274 917 l 274 369 q 328 177 274 239 q 499 115 383 115 q 669 177 614 115 q 724 369 724 239 l 724 917 l 874 917 l 874 351 m 357 1194 q 424 1171 399 1194 q 449 1107 449 1147 q 424 1043 449 1067 q 357 1019 399 1019 q 292 1044 317 1019 q 267 1107 267 1068 q 292 1171 267 1147 q 357 1194 317 1194 m 638 1194 q 704 1171 679 1194 q 729 1107 729 1147 q 704 1043 729 1067 q 638 1019 679 1019 q 572 1043 596 1019 q 547 1107 547 1067 q 572 1171 547 1147 q 638 1194 596 1194 z "},"Ù":{"ha":997,"x_min":124,"x_max":874,"o":"m 553 1024 l 439 1024 l 317 1233 l 475 1233 l 553 1024 m 874 351 q 778 78 874 171 q 499 -14 682 -14 q 219 78 315 -14 q 124 351 124 171 l 124 917 l 274 917 l 274 369 q 328 177 274 239 q 499 115 383 115 q 669 177 614 115 q 724 369 724 239 l 724 917 l 874 917 l 874 351 z "},"Ű":{"ha":997,"x_min":124,"x_max":874,"o":"m 529 1236 l 407 1026 l 293 1026 l 371 1236 l 529 1236 m 789 1233 l 667 1024 l 553 1024 l 631 1233 l 789 1233 m 874 351 q 778 78 874 171 q 499 -14 682 -14 q 219 78 315 -14 q 124 351 124 171 l 124 917 l 274 917 l 274 369 q 328 177 274 239 q 499 115 383 115 q 669 177 614 115 q 724 369 724 239 l 724 917 l 874 917 l 874 351 z "},"Ū":{"ha":997,"x_min":124,"x_max":874,"o":"m 874 351 q 778 78 874 171 q 499 -14 682 -14 q 219 78 315 -14 q 124 351 124 171 l 124 917 l 274 917 l 274 369 q 328 177 274 239 q 499 115 383 115 q 669 177 614 115 q 724 369 724 239 l 724 917 l 874 917 l 874 351 m 746 1039 l 251 1039 l 251 1147 l 746 1147 l 746 1039 z "},"Ų":{"ha":997,"x_min":124,"x_max":874,"o":"m 874 917 l 874 351 q 809 114 874 203 q 618 -3 744 25 q 492 -133 492 -62 q 515 -185 492 -167 q 576 -203 538 -203 q 650 -187 625 -203 l 675 -272 q 553 -299 631 -299 q 427 -260 475 -299 q 379 -156 379 -221 q 457 -12 379 -68 q 209 89 294 -3 q 124 351 124 181 l 124 917 l 274 917 l 274 369 q 328 177 274 239 q 499 115 383 115 q 669 177 614 115 q 724 369 724 239 l 724 917 l 874 917 z "},"Ů":{"ha":997,"x_min":124,"x_max":874,"o":"m 874 351 q 778 78 874 171 q 499 -14 682 -14 q 219 78 315 -14 q 124 351 124 171 l 124 917 l 274 917 l 274 369 q 328 177 274 239 q 499 115 383 115 q 669 177 614 115 q 724 369 724 239 l 724 917 l 874 917 l 874 351 m 500 1242 q 628 1197 581 1242 q 676 1078 676 1151 q 628 956 676 1001 q 500 911 581 911 q 369 956 418 911 q 321 1078 321 1001 q 370 1197 321 1151 q 500 1242 419 1242 m 500 1165 q 434 1141 460 1165 q 408 1078 408 1117 q 434 1014 408 1039 q 500 989 460 989 q 565 1014 540 989 q 590 1078 590 1039 q 565 1141 590 1117 q 500 1165 540 1165 z "},"V":{"ha":915,"x_min":31,"x_max":885,"o":"m 544 0 l 371 0 l 31 917 l 189 917 l 403 307 l 458 125 l 514 306 l 728 917 l 885 917 l 544 0 z "},"W":{"ha":1350,"x_min":39,"x_max":1311,"o":"m 485 0 l 308 0 l 39 917 l 200 917 l 400 118 l 601 917 l 754 917 l 957 117 l 1158 917 l 1311 917 l 1043 0 l 868 0 l 722 550 l 676 761 l 675 761 l 629 550 l 485 0 z "},"X":{"ha":861,"x_min":29,"x_max":826,"o":"m 650 0 l 425 357 l 200 0 l 29 0 l 347 465 l 54 917 l 231 917 l 442 576 l 653 917 l 814 917 l 518 471 l 826 0 l 650 0 z "},"Y":{"ha":829,"x_min":14,"x_max":817,"o":"m 489 351 l 489 0 l 340 0 l 340 351 l 14 917 l 179 917 l 343 622 l 415 485 l 488 622 l 650 917 l 817 917 l 489 351 z "},"Ý":{"ha":829,"x_min":14,"x_max":817,"o":"m 581 1233 l 458 1024 l 344 1024 l 422 1233 l 581 1233 m 489 351 l 489 0 l 340 0 l 340 351 l 14 917 l 179 917 l 343 622 l 415 485 l 488 622 l 650 917 l 817 917 l 489 351 z "},"Ÿ":{"ha":829,"x_min":14,"x_max":817,"o":"m 489 351 l 489 0 l 340 0 l 340 351 l 14 917 l 179 917 l 343 622 l 415 485 l 488 622 l 650 917 l 817 917 l 489 351 m 274 1194 q 340 1171 315 1194 q 365 1107 365 1147 q 340 1043 365 1067 q 274 1019 315 1019 q 208 1044 233 1019 q 183 1107 183 1068 q 208 1171 183 1147 q 274 1194 233 1194 m 554 1194 q 621 1171 596 1194 q 646 1107 646 1147 q 621 1043 646 1067 q 554 1019 596 1019 q 488 1043 513 1019 q 464 1107 464 1067 q 488 1171 464 1147 q 554 1194 513 1194 z "},"Z":{"ha":876,"x_min":69,"x_max":810,"o":"m 810 126 l 810 0 l 69 0 l 69 121 l 624 790 l 82 790 l 82 917 l 793 917 l 793 796 l 239 126 l 810 126 z "},"Ź":{"ha":876,"x_min":69,"x_max":810,"o":"m 475 1024 l 361 1024 l 439 1233 l 597 1233 l 475 1024 m 810 126 l 810 0 l 69 0 l 69 121 l 624 790 l 82 790 l 82 917 l 793 917 l 793 796 l 239 126 l 810 126 z "},"Ž":{"ha":876,"x_min":69,"x_max":810,"o":"m 351 1018 l 194 1250 l 318 1250 l 429 1101 l 540 1250 l 664 1250 l 507 1018 l 351 1018 m 810 126 l 810 0 l 69 0 l 69 121 l 624 790 l 82 790 l 82 917 l 793 917 l 793 796 l 239 126 l 810 126 z "},"Ż":{"ha":876,"x_min":69,"x_max":810,"o":"m 810 126 l 810 0 l 69 0 l 69 121 l 624 790 l 82 790 l 82 917 l 793 917 l 793 796 l 239 126 l 810 126 m 431 1219 q 501 1195 475 1219 q 528 1128 528 1171 q 501 1060 528 1085 q 431 1036 475 1036 q 360 1060 386 1036 q 335 1128 335 1085 q 360 1195 335 1171 q 431 1219 386 1219 z "},"Ģ":{"ha":1006,"x_min":85,"x_max":904,"o":"m 904 474 l 904 0 l 794 0 l 790 117 q 679 20 750 54 q 510 -14 608 -14 q 286 43 382 -14 q 138 206 190 100 q 85 458 85 313 q 139 709 85 603 q 292 873 193 815 q 521 931 390 931 q 754 878 663 931 q 899 714 846 825 l 763 649 q 674 763 736 724 q 524 801 611 801 q 317 711 393 801 q 240 458 240 621 q 313 203 240 293 q 526 114 386 114 q 704 168 636 114 q 772 325 772 222 l 772 351 l 492 351 l 492 474 l 904 474 m 524 -331 l 417 -331 l 472 -99 l 617 -99 l 524 -331 z "},"Ķ":{"ha":926,"x_min":136,"x_max":896,"o":"m 433 442 l 285 282 l 285 0 l 136 0 l 136 917 l 285 917 l 285 461 l 706 917 l 888 917 l 540 542 l 896 0 l 721 0 l 433 442 m 483 -331 l 376 -331 l 432 -99 l 576 -99 l 483 -331 z "},"Ļ":{"ha":832,"x_min":136,"x_max":790,"o":"m 790 128 l 790 0 l 136 0 l 136 917 l 285 917 l 285 128 l 790 128 m 461 -331 l 354 -331 l 410 -99 l 554 -99 l 461 -331 z "},"Ņ":{"ha":1022,"x_min":136,"x_max":888,"o":"m 888 0 l 711 0 l 357 578 l 268 747 l 267 747 l 272 592 l 272 0 l 136 0 l 136 917 l 311 917 l 664 340 l 754 169 l 756 169 l 750 325 l 750 917 l 888 917 l 888 0 m 514 -331 l 407 -331 l 463 -99 l 607 -99 l 514 -331 z "},"Ŗ":{"ha":933,"x_min":136,"x_max":885,"o":"m 481 367 l 283 367 l 283 0 l 136 0 l 136 917 l 510 917 q 744 844 658 917 q 831 642 831 771 q 780 477 831 543 q 636 383 729 411 l 885 0 l 714 0 l 481 367 m 283 490 l 497 490 q 632 527 588 490 q 676 640 676 564 q 632 753 676 717 q 497 790 588 790 l 283 790 l 283 490 m 475 -331 l 368 -331 l 424 -99 l 568 -99 l 475 -331 z "},"Ş":{"ha":892,"x_min":60,"x_max":819,"o":"m 819 254 q 745 80 819 149 q 543 -8 671 11 q 601 -72 581 -36 q 621 -146 621 -108 q 574 -256 621 -212 q 449 -299 526 -299 q 356 -286 394 -299 q 289 -247 318 -274 l 335 -161 q 378 -191 353 -179 q 432 -203 403 -203 q 488 -181 465 -203 q 510 -125 510 -160 q 488 -63 510 -89 q 410 -12 467 -37 q 60 172 167 1 l 164 276 q 278 154 208 193 q 453 115 349 115 q 608 149 551 115 q 664 246 664 183 q 613 326 664 296 q 436 381 563 357 q 235 439 310 404 q 126 525 160 474 q 92 650 92 576 q 135 792 92 728 q 259 893 178 856 q 449 931 340 931 q 665 885 575 931 q 815 744 754 839 l 703 643 q 606 764 664 726 q 450 801 547 801 q 301 763 354 801 q 249 665 249 725 q 300 577 249 610 q 483 521 351 544 q 680 465 607 499 q 786 380 753 431 q 819 254 819 329 z "},"Ţ":{"ha":860,"x_min":42,"x_max":818,"o":"m 504 789 l 504 4 q 594 -144 594 -53 q 547 -255 594 -211 q 421 -299 499 -299 q 260 -247 317 -299 l 308 -160 q 404 -201 347 -201 q 460 -181 438 -201 q 482 -124 482 -160 q 458 -60 482 -86 q 372 0 433 -35 l 356 0 l 356 789 l 42 789 l 42 917 l 818 917 l 818 789 l 504 789 z "},"Ș":{"ha":892,"x_min":60,"x_max":819,"o":"m 449 931 q 665 885 575 931 q 815 744 754 839 l 703 643 q 606 764 664 726 q 450 801 547 801 q 301 763 354 801 q 249 665 249 725 q 300 577 249 610 q 483 521 351 544 q 680 465 607 499 q 786 380 753 431 q 819 254 819 329 q 774 113 819 174 q 645 19 728 51 q 454 -14 563 -14 q 60 172 175 -14 l 164 276 q 278 154 208 193 q 453 115 349 115 q 608 149 551 115 q 664 246 664 183 q 613 326 664 296 q 436 381 563 357 q 235 439 310 404 q 126 525 160 474 q 92 650 92 576 q 135 792 92 728 q 259 893 178 856 q 449 931 340 931 m 463 -331 l 356 -331 l 411 -99 l 556 -99 l 463 -331 z "},"Ț":{"ha":860,"x_min":42,"x_max":818,"o":"m 818 789 l 504 789 l 504 0 l 356 0 l 356 789 l 42 789 l 42 917 l 818 917 l 818 789 m 413 -331 l 306 -331 l 361 -99 l 506 -99 l 413 -331 z "},"a":{"ha":792,"x_min":68,"x_max":767,"o":"m 715 97 q 767 103 746 97 l 757 3 q 671 -14 719 -14 q 576 10 611 -14 q 529 89 540 33 q 435 13 497 40 q 294 -14 372 -14 q 131 33 193 -14 q 68 168 68 81 q 136 306 68 250 q 339 386 204 363 l 515 417 l 515 454 q 478 555 515 518 q 374 592 440 592 q 194 467 236 592 l 79 528 q 181 660 104 611 q 371 708 258 708 q 585 646 506 708 q 664 463 664 583 l 664 149 q 676 110 664 122 q 715 97 688 97 m 326 99 q 458 135 401 99 q 515 231 515 171 l 515 314 l 364 283 q 257 244 292 269 q 222 178 222 219 q 249 119 222 139 q 326 99 276 99 z "},"á":{"ha":792,"x_min":68,"x_max":767,"o":"m 715 97 q 767 103 746 97 l 757 3 q 671 -14 719 -14 q 576 10 611 -14 q 529 89 540 33 q 435 13 497 40 q 294 -14 372 -14 q 131 33 193 -14 q 68 168 68 81 q 136 306 68 250 q 339 386 204 363 l 515 417 l 515 454 q 478 555 515 518 q 374 592 440 592 q 194 467 236 592 l 79 528 q 181 660 104 611 q 371 708 258 708 q 585 646 506 708 q 664 463 664 583 l 664 149 q 676 110 664 122 q 715 97 688 97 m 326 99 q 458 135 401 99 q 515 231 515 171 l 515 314 l 364 283 q 257 244 292 269 q 222 178 222 219 q 249 119 222 139 q 326 99 276 99 m 556 1036 l 418 803 l 304 803 l 406 1036 l 556 1036 z "},"ă":{"ha":792,"x_min":68,"x_max":767,"o":"m 715 97 q 767 103 746 97 l 757 3 q 671 -14 719 -14 q 576 10 611 -14 q 529 89 540 33 q 435 13 497 40 q 294 -14 372 -14 q 131 33 193 -14 q 68 168 68 81 q 136 306 68 250 q 339 386 204 363 l 515 417 l 515 454 q 478 555 515 518 q 374 592 440 592 q 194 467 236 592 l 79 528 q 181 660 104 611 q 371 708 258 708 q 585 646 506 708 q 664 463 664 583 l 664 149 q 676 110 664 122 q 715 97 688 97 m 326 99 q 458 135 401 99 q 515 231 515 171 l 515 314 l 364 283 q 257 244 292 269 q 222 178 222 219 q 249 119 222 139 q 326 99 276 99 m 597 1004 q 539 850 597 908 q 383 792 481 792 q 228 850 286 792 q 169 1004 169 908 l 279 1004 q 308 924 279 957 q 383 890 338 890 q 458 924 429 890 q 488 1004 488 957 l 597 1004 z "},"â":{"ha":792,"x_min":68,"x_max":767,"o":"m 715 97 q 767 103 746 97 l 757 3 q 671 -14 719 -14 q 576 10 611 -14 q 529 89 540 33 q 435 13 497 40 q 294 -14 372 -14 q 131 33 193 -14 q 68 168 68 81 q 136 306 68 250 q 339 386 204 363 l 515 417 l 515 454 q 478 555 515 518 q 374 592 440 592 q 194 467 236 592 l 79 528 q 181 660 104 611 q 371 708 258 708 q 585 646 506 708 q 664 463 664 583 l 664 149 q 676 110 664 122 q 715 97 688 97 m 326 99 q 458 135 401 99 q 515 231 515 171 l 515 314 l 364 283 q 257 244 292 269 q 222 178 222 219 q 249 119 222 139 q 326 99 276 99 m 494 793 l 383 938 l 272 793 l 150 793 l 304 1028 l 463 1028 l 617 793 l 494 793 z "},"ä":{"ha":792,"x_min":68,"x_max":767,"o":"m 715 97 q 767 103 746 97 l 757 3 q 671 -14 719 -14 q 576 10 611 -14 q 529 89 540 33 q 435 13 497 40 q 294 -14 372 -14 q 131 33 193 -14 q 68 168 68 81 q 136 306 68 250 q 339 386 204 363 l 515 417 l 515 454 q 478 555 515 518 q 374 592 440 592 q 194 467 236 592 l 79 528 q 181 660 104 611 q 371 708 258 708 q 585 646 506 708 q 664 463 664 583 l 664 149 q 676 110 664 122 q 715 97 688 97 m 326 99 q 458 135 401 99 q 515 231 515 171 l 515 314 l 364 283 q 257 244 292 269 q 222 178 222 219 q 249 119 222 139 q 326 99 276 99 m 243 972 q 310 949 285 972 q 335 885 335 925 q 310 821 335 844 q 243 797 285 797 q 178 822 203 797 q 153 885 153 846 q 178 949 153 925 q 243 972 203 972 m 524 972 q 590 949 565 972 q 615 885 615 925 q 590 821 615 844 q 524 797 565 797 q 458 821 482 797 q 433 885 433 844 q 458 949 433 925 q 524 972 482 972 z "},"à":{"ha":792,"x_min":68,"x_max":767,"o":"m 715 97 q 767 103 746 97 l 757 3 q 671 -14 719 -14 q 576 10 611 -14 q 529 89 540 33 q 435 13 497 40 q 294 -14 372 -14 q 131 33 193 -14 q 68 168 68 81 q 136 306 68 250 q 339 386 204 363 l 515 417 l 515 454 q 478 555 515 518 q 374 592 440 592 q 194 467 236 592 l 79 528 q 181 660 104 611 q 371 708 258 708 q 585 646 506 708 q 664 463 664 583 l 664 149 q 676 110 664 122 q 715 97 688 97 m 326 99 q 458 135 401 99 q 515 231 515 171 l 515 314 l 364 283 q 257 244 292 269 q 222 178 222 219 q 249 119 222 139 q 326 99 276 99 m 451 803 l 338 803 l 200 1036 l 350 1036 l 451 803 z "},"ā":{"ha":792,"x_min":68,"x_max":767,"o":"m 715 97 q 767 103 746 97 l 757 3 q 671 -14 719 -14 q 576 10 611 -14 q 529 89 540 33 q 435 13 497 40 q 294 -14 372 -14 q 131 33 193 -14 q 68 168 68 81 q 136 306 68 250 q 339 386 204 363 l 515 417 l 515 454 q 478 555 515 518 q 374 592 440 592 q 194 467 236 592 l 79 528 q 181 660 104 611 q 371 708 258 708 q 585 646 506 708 q 664 463 664 583 l 664 149 q 676 110 664 122 q 715 97 688 97 m 326 99 q 458 135 401 99 q 515 231 515 171 l 515 314 l 364 283 q 257 244 292 269 q 222 178 222 219 q 249 119 222 139 q 326 99 276 99 m 631 817 l 136 817 l 136 925 l 631 925 l 631 817 z "},"ą":{"ha":792,"x_min":68,"x_max":767,"o":"m 668 -204 q 742 -187 717 -204 l 767 -272 q 649 -299 722 -299 q 524 -261 571 -299 q 478 -158 478 -224 q 607 10 478 -50 q 535 100 551 35 q 441 16 506 46 q 294 -14 376 -14 q 131 33 193 -14 q 68 168 68 81 q 136 306 68 250 q 339 386 204 363 l 515 417 l 515 454 q 478 555 515 518 q 374 592 440 592 q 194 467 236 592 l 79 528 q 181 660 104 611 q 371 708 258 708 q 585 646 506 708 q 664 463 664 583 l 664 149 q 676 110 664 122 q 715 97 688 97 q 767 103 746 97 l 757 3 q 628 -56 665 -24 q 590 -133 590 -89 q 610 -185 590 -167 q 668 -204 631 -204 m 326 99 q 458 135 401 99 q 515 231 515 171 l 515 314 l 364 283 q 257 243 292 268 q 222 178 222 218 q 249 119 222 139 q 326 99 276 99 z "},"å":{"ha":792,"x_min":68,"x_max":767,"o":"m 715 97 q 767 103 746 97 l 757 3 q 671 -14 719 -14 q 576 10 611 -14 q 529 89 540 33 q 435 13 497 40 q 294 -14 372 -14 q 131 33 193 -14 q 68 168 68 81 q 136 306 68 250 q 339 386 204 363 l 515 417 l 515 454 q 478 555 515 518 q 374 592 440 592 q 194 467 236 592 l 79 528 q 181 660 104 611 q 371 708 258 708 q 585 646 506 708 q 664 463 664 583 l 664 149 q 676 110 664 122 q 715 97 688 97 m 326 99 q 458 135 401 99 q 515 231 515 171 l 515 314 l 364 283 q 257 244 292 269 q 222 178 222 219 q 249 119 222 139 q 326 99 276 99 m 382 1119 q 510 1074 463 1119 q 558 956 558 1029 q 510 834 558 879 q 382 789 463 789 q 251 834 300 789 q 203 956 203 879 q 252 1074 203 1029 q 382 1119 301 1119 m 382 1043 q 316 1019 342 1043 q 290 956 290 994 q 316 892 290 917 q 382 867 342 867 q 447 892 422 867 q 472 956 472 917 q 447 1019 472 994 q 382 1043 422 1043 z "},"ã":{"ha":792,"x_min":68,"x_max":767,"o":"m 715 97 q 767 103 746 97 l 757 3 q 671 -14 719 -14 q 576 10 611 -14 q 529 89 540 33 q 435 13 497 40 q 294 -14 372 -14 q 131 33 193 -14 q 68 168 68 81 q 136 306 68 250 q 339 386 204 363 l 515 417 l 515 454 q 478 555 515 518 q 374 592 440 592 q 194 467 236 592 l 79 528 q 181 660 104 611 q 371 708 258 708 q 585 646 506 708 q 664 463 664 583 l 664 149 q 676 110 664 122 q 715 97 688 97 m 326 99 q 458 135 401 99 q 515 231 515 171 l 515 314 l 364 283 q 257 244 292 269 q 222 178 222 219 q 249 119 222 139 q 326 99 276 99 m 640 996 q 476 800 628 800 q 409 815 436 800 q 353 856 382 829 q 317 883 329 875 q 288 890 304 890 q 247 867 261 890 q 225 799 232 844 l 124 799 q 289 996 136 996 q 353 982 328 996 q 411 940 379 968 q 447 913 435 921 q 475 906 460 906 q 517 928 503 906 q 539 996 532 950 l 640 996 z "},"æ":{"ha":1226,"x_min":68,"x_max":1153,"o":"m 1153 381 q 1147 297 1153 339 l 667 297 q 728 155 676 206 q 856 104 779 104 q 961 128 922 104 q 1017 199 1000 151 l 1139 147 q 1033 26 1101 67 q 853 -14 965 -14 q 694 24 761 -14 q 590 138 626 61 q 481 24 558 63 q 294 -14 403 -14 q 129 35 190 -14 q 68 168 68 85 q 133 304 68 250 q 326 379 199 358 l 524 410 l 524 454 q 484 555 524 518 q 372 592 444 592 q 263 560 308 592 q 196 468 218 529 l 81 525 q 185 660 107 611 q 378 708 263 708 q 519 676 460 708 q 611 582 578 644 q 710 676 650 643 q 846 708 769 708 q 1074 617 994 708 q 1153 381 1153 525 m 849 590 q 726 542 774 590 q 667 404 679 494 l 1015 404 q 849 590 997 590 m 332 99 q 467 144 410 99 q 524 265 524 189 l 524 313 l 369 283 q 256 244 290 268 q 222 178 222 221 q 332 99 222 99 z "},"b":{"ha":874,"x_min":115,"x_max":796,"o":"m 489 708 q 714 612 632 708 q 796 346 796 515 q 714 81 796 176 q 489 -14 632 -14 q 345 25 407 -14 q 253 129 283 64 l 246 0 l 115 0 l 115 1007 l 264 1007 l 264 583 q 355 675 296 642 q 489 708 414 708 m 456 106 q 597 169 546 106 q 647 347 647 233 q 597 524 647 461 q 456 588 546 588 q 320 531 371 588 q 264 374 269 474 l 264 321 q 320 163 269 219 q 456 106 371 106 z "},"c":{"ha":786,"x_min":75,"x_max":728,"o":"m 421 708 q 722 514 649 708 l 583 458 q 421 590 547 590 q 276 526 328 590 q 225 346 225 463 q 276 167 225 229 q 421 104 328 104 q 535 139 492 104 q 592 239 578 174 l 728 193 q 619 41 697 96 q 424 -14 542 -14 q 167 82 260 -14 q 75 347 75 178 q 167 613 75 517 q 421 708 258 708 z "},"ć":{"ha":786,"x_min":75,"x_max":728,"o":"m 421 708 q 722 514 649 708 l 583 458 q 421 590 547 590 q 276 526 328 590 q 225 346 225 463 q 276 167 225 229 q 421 104 328 104 q 535 139 492 104 q 592 239 578 174 l 728 193 q 619 41 697 96 q 424 -14 542 -14 q 167 82 260 -14 q 75 347 75 178 q 167 613 75 517 q 421 708 258 708 m 583 1036 l 446 803 l 332 803 l 433 1036 l 583 1036 z "},"č":{"ha":786,"x_min":75,"x_max":728,"o":"m 421 708 q 722 514 649 708 l 583 458 q 421 590 547 590 q 276 526 328 590 q 225 346 225 463 q 276 167 225 229 q 421 104 328 104 q 535 139 492 104 q 592 239 578 174 l 728 193 q 619 41 697 96 q 424 -14 542 -14 q 167 82 260 -14 q 75 347 75 178 q 167 613 75 517 q 421 708 258 708 m 489 803 l 331 803 l 176 1036 l 299 1036 l 410 893 l 521 1036 l 643 1036 l 489 803 z "},"ç":{"ha":786,"x_min":75,"x_max":728,"o":"m 728 193 q 645 60 703 113 q 500 -7 588 8 q 558 -71 538 -35 q 578 -146 578 -107 q 531 -256 578 -212 q 406 -299 483 -299 q 313 -286 351 -299 q 246 -247 275 -274 l 292 -161 q 335 -191 310 -179 q 389 -203 360 -203 q 444 -181 422 -203 q 467 -125 467 -160 q 444 -62 467 -87 q 361 -10 421 -36 q 150 101 225 8 q 75 347 75 194 q 167 613 75 517 q 421 708 258 708 q 722 514 649 708 l 583 458 q 421 590 547 590 q 276 526 328 590 q 225 346 225 463 q 276 167 225 229 q 421 104 328 104 q 535 139 492 104 q 592 239 578 174 l 728 193 z "},"d":{"ha":874,"x_min":78,"x_max":758,"o":"m 758 1007 l 758 0 l 628 0 l 619 124 q 527 24 589 61 q 386 -14 465 -14 q 160 81 243 -14 q 78 346 78 176 q 160 612 78 515 q 386 708 243 708 q 521 674 463 708 q 610 582 579 640 l 610 1007 l 758 1007 m 419 106 q 558 168 507 106 q 610 339 610 231 l 610 356 q 558 526 610 464 q 419 588 507 588 q 278 524 329 588 q 228 347 228 461 q 278 169 228 233 q 419 106 329 106 z "},"ð":{"ha":854,"x_min":78,"x_max":767,"o":"m 635 844 q 765 407 765 668 q 677 97 765 207 q 411 -14 589 -14 q 167 78 257 -14 q 78 332 78 169 q 120 516 78 438 q 237 636 163 594 q 407 678 311 678 q 631 581 560 678 q 521 818 600 719 l 271 757 l 257 828 l 471 871 q 272 1011 401 938 l 446 1011 q 590 897 531 961 l 746 940 l 767 868 l 635 844 m 421 104 q 568 169 514 104 q 622 332 622 235 q 571 503 622 443 q 426 563 519 563 q 281 503 332 563 q 229 332 229 443 q 280 164 229 224 q 421 104 331 104 z "},"ď":{"ha":921,"x_min":78,"x_max":986,"o":"m 986 1007 l 925 715 l 831 715 l 858 1007 l 986 1007 m 610 1007 l 758 1007 l 758 0 l 628 0 l 619 124 q 527 24 589 61 q 386 -14 465 -14 q 160 81 243 -14 q 78 346 78 176 q 160 612 78 515 q 386 708 243 708 q 521 674 463 708 q 610 582 579 640 l 610 1007 m 419 106 q 558 168 507 106 q 610 339 610 231 l 610 356 q 558 526 610 464 q 419 588 507 588 q 278 524 329 588 q 228 347 228 461 q 278 169 228 233 q 419 106 329 106 z "},"đ":{"ha":874,"x_min":78,"x_max":865,"o":"m 865 775 l 758 775 l 758 0 l 628 0 l 619 124 q 527 24 589 61 q 386 -14 465 -14 q 160 81 243 -14 q 78 346 78 176 q 160 612 78 515 q 386 708 243 708 q 521 674 463 708 q 610 582 579 640 l 610 775 l 403 775 l 403 874 l 610 874 l 610 1007 l 758 1007 l 758 874 l 865 874 l 865 775 m 419 106 q 558 168 507 106 q 610 339 610 231 l 610 356 q 558 526 610 464 q 419 588 507 588 q 278 524 329 588 q 228 347 228 461 q 278 169 228 233 q 419 106 329 106 z "},"e":{"ha":807,"x_min":75,"x_max":736,"o":"m 736 368 q 731 292 736 328 l 222 292 q 288 152 235 200 q 424 104 340 104 q 537 128 492 104 q 599 199 582 153 l 722 147 q 424 -14 644 -14 q 167 82 260 -14 q 75 347 75 178 q 164 613 75 518 q 414 708 253 708 q 651 615 567 708 q 736 368 736 522 m 414 590 q 284 543 333 590 q 222 406 235 496 l 597 406 q 538 542 586 493 q 414 590 490 590 z "},"é":{"ha":807,"x_min":75,"x_max":736,"o":"m 736 368 q 731 292 736 328 l 222 292 q 288 152 235 200 q 424 104 340 104 q 537 128 492 104 q 599 199 582 153 l 722 147 q 424 -14 644 -14 q 167 82 260 -14 q 75 347 75 178 q 164 613 75 518 q 414 708 253 708 q 651 615 567 708 q 736 368 736 522 m 414 590 q 284 543 333 590 q 222 406 235 496 l 597 406 q 538 542 586 493 q 414 590 490 590 m 582 1036 l 444 803 l 331 803 l 432 1036 l 582 1036 z "},"ě":{"ha":807,"x_min":75,"x_max":736,"o":"m 736 368 q 731 292 736 328 l 222 292 q 288 152 235 200 q 424 104 340 104 q 537 128 492 104 q 599 199 582 153 l 722 147 q 424 -14 644 -14 q 167 82 260 -14 q 75 347 75 178 q 164 613 75 518 q 414 708 253 708 q 651 615 567 708 q 736 368 736 522 m 414 590 q 284 543 333 590 q 222 406 235 496 l 597 406 q 538 542 586 493 q 414 590 490 590 m 488 803 l 329 803 l 175 1036 l 297 1036 l 408 893 l 519 1036 l 642 1036 l 488 803 z "},"ê":{"ha":807,"x_min":75,"x_max":736,"o":"m 736 368 q 731 292 736 328 l 222 292 q 288 152 235 200 q 424 104 340 104 q 537 128 492 104 q 599 199 582 153 l 722 147 q 424 -14 644 -14 q 167 82 260 -14 q 75 347 75 178 q 164 613 75 518 q 414 708 253 708 q 651 615 567 708 q 736 368 736 522 m 414 590 q 284 543 333 590 q 222 406 235 496 l 597 406 q 538 542 586 493 q 414 590 490 590 m 521 793 l 410 938 l 299 793 l 176 793 l 331 1028 l 489 1028 l 643 793 l 521 793 z "},"ë":{"ha":807,"x_min":75,"x_max":736,"o":"m 736 368 q 731 292 736 328 l 222 292 q 288 152 235 200 q 424 104 340 104 q 537 128 492 104 q 599 199 582 153 l 722 147 q 424 -14 644 -14 q 167 82 260 -14 q 75 347 75 178 q 164 613 75 518 q 414 708 253 708 q 651 615 567 708 q 736 368 736 522 m 414 590 q 284 543 333 590 q 222 406 235 496 l 597 406 q 538 542 586 493 q 414 590 490 590 m 269 972 q 336 949 311 972 q 361 885 361 925 q 336 821 361 844 q 269 797 311 797 q 204 822 229 797 q 179 885 179 846 q 204 949 179 925 q 269 972 229 972 m 550 972 q 617 949 592 972 q 642 885 642 925 q 617 821 642 844 q 550 797 592 797 q 484 821 508 797 q 460 885 460 844 q 484 949 460 925 q 550 972 508 972 z "},"ė":{"ha":807,"x_min":75,"x_max":736,"o":"m 736 368 q 731 292 736 328 l 222 292 q 288 152 235 200 q 424 104 340 104 q 537 128 492 104 q 599 199 582 153 l 722 147 q 424 -14 644 -14 q 167 82 260 -14 q 75 347 75 178 q 164 613 75 518 q 414 708 253 708 q 651 615 567 708 q 736 368 736 522 m 414 590 q 284 543 333 590 q 222 406 235 496 l 597 406 q 538 542 586 493 q 414 590 490 590 m 410 997 q 481 973 454 997 q 507 906 507 949 q 481 838 507 863 q 410 814 454 814 q 340 838 365 814 q 314 906 314 863 q 340 973 314 949 q 410 997 365 997 z "},"è":{"ha":807,"x_min":75,"x_max":736,"o":"m 736 368 q 731 292 736 328 l 222 292 q 288 152 235 200 q 424 104 340 104 q 537 128 492 104 q 599 199 582 153 l 722 147 q 424 -14 644 -14 q 167 82 260 -14 q 75 347 75 178 q 164 613 75 518 q 414 708 253 708 q 651 615 567 708 q 736 368 736 522 m 414 590 q 284 543 333 590 q 222 406 235 496 l 597 406 q 538 542 586 493 q 414 590 490 590 m 478 803 l 364 803 l 226 1036 l 376 1036 l 478 803 z "},"ē":{"ha":807,"x_min":75,"x_max":736,"o":"m 736 368 q 731 292 736 328 l 222 292 q 288 152 235 200 q 424 104 340 104 q 537 128 492 104 q 599 199 582 153 l 722 147 q 424 -14 644 -14 q 167 82 260 -14 q 75 347 75 178 q 164 613 75 518 q 414 708 253 708 q 651 615 567 708 q 736 368 736 522 m 414 590 q 284 543 333 590 q 222 406 235 496 l 597 406 q 538 542 586 493 q 414 590 490 590 m 657 817 l 163 817 l 163 925 l 657 925 l 657 817 z "},"ę":{"ha":807,"x_min":75,"x_max":736,"o":"m 736 368 q 731 292 736 328 l 222 292 q 288 152 235 200 q 424 104 340 104 q 537 128 492 104 q 599 199 582 153 l 722 147 q 550 3 668 38 q 463 -65 490 -33 q 435 -129 435 -96 q 458 -183 435 -164 q 519 -203 481 -203 q 592 -187 567 -203 l 617 -272 q 494 -299 572 -299 q 369 -259 417 -299 q 321 -153 321 -219 q 399 -14 321 -74 q 160 89 246 -6 q 75 347 75 183 q 164 613 75 518 q 414 708 253 708 q 651 615 567 708 q 736 368 736 522 m 414 590 q 284 543 333 590 q 222 406 235 496 l 597 406 q 538 542 586 493 q 414 590 490 590 z "},"f":{"ha":556,"x_min":38,"x_max":542,"o":"m 313 694 l 538 694 l 538 578 l 317 578 l 317 0 l 168 0 l 168 578 l 38 578 l 38 694 l 168 694 l 168 794 q 232 958 168 900 q 411 1017 296 1017 q 488 1008 453 1017 q 542 983 522 999 l 514 875 q 435 896 482 896 q 313 783 313 896 l 313 694 z "},"g":{"ha":769,"x_min":54,"x_max":753,"o":"m 519 108 q 683 61 625 108 q 742 -69 742 14 q 695 -192 742 -140 q 567 -271 649 -243 q 385 -299 486 -299 q 137 -250 219 -299 q 54 -121 54 -201 q 87 -38 54 -74 q 178 13 119 -3 q 107 66 133 33 q 81 144 81 99 q 189 283 81 246 q 109 363 136 314 q 82 474 82 411 q 119 597 82 543 q 226 679 157 650 q 383 708 294 708 q 524 686 460 708 q 594 802 543 763 q 728 840 644 842 l 753 725 q 645 708 686 726 q 589 654 604 690 q 660 576 635 622 q 685 474 685 531 q 602 303 685 367 q 383 239 519 239 q 268 251 319 239 q 217 224 233 243 q 201 175 201 206 q 224 126 201 143 q 288 108 247 108 l 519 108 m 383 604 q 276 567 319 604 q 233 474 233 531 q 276 378 233 415 q 383 342 319 342 q 491 378 449 342 q 533 474 533 415 q 491 568 533 532 q 383 604 449 604 m 399 -187 q 557 -158 500 -187 q 614 -86 614 -129 q 586 -33 614 -51 q 493 -15 558 -15 l 306 -15 q 212 -35 243 -15 q 181 -89 181 -54 q 235 -162 181 -136 q 399 -187 290 -187 z "},"ğ":{"ha":750,"x_min":43,"x_max":756,"o":"m 388 792 q 232 850 290 792 q 174 1004 174 908 l 283 1004 q 313 924 283 957 q 388 890 342 890 q 463 924 433 890 q 492 1004 492 957 l 601 1004 q 543 850 601 908 q 388 792 485 792 m 756 725 q 607 631 619 728 q 674 474 674 568 q 636 351 674 404 q 530 268 599 297 q 372 239 461 239 q 257 251 307 239 q 205 224 221 243 q 189 175 189 206 q 213 126 189 143 q 275 108 236 108 l 508 108 q 672 61 614 108 q 731 -69 731 14 q 684 -192 731 -140 q 556 -271 638 -243 q 374 -299 475 -299 q 126 -250 208 -299 q 43 -121 43 -201 q 76 -38 43 -74 q 167 13 108 -3 q 96 66 122 33 q 69 144 69 99 q 99 231 69 196 q 178 283 128 265 q 98 363 125 314 q 71 474 71 411 q 153 644 71 581 q 372 708 236 708 q 536 676 465 708 q 600 795 546 750 q 731 840 654 840 l 756 725 m 372 342 q 478 378 436 342 q 521 474 521 415 q 478 568 521 532 q 372 604 436 604 q 265 568 307 604 q 222 474 222 532 q 265 378 222 415 q 372 342 307 342 m 293 -15 q 201 -35 232 -15 q 169 -89 169 -54 q 224 -162 169 -136 q 388 -187 279 -187 q 546 -158 489 -187 q 603 -86 603 -129 q 575 -33 603 -51 q 481 -15 547 -15 l 293 -15 z "},"h":{"ha":860,"x_min":115,"x_max":750,"o":"m 489 708 q 677 642 604 708 q 750 450 750 575 l 750 0 l 601 0 l 601 403 q 453 586 601 586 q 319 532 375 586 q 264 367 264 478 l 264 0 l 115 0 l 115 1007 l 264 1007 l 264 583 q 356 678 299 647 q 489 708 414 708 z "},"i":{"ha":381,"x_min":90,"x_max":289,"o":"m 190 811 q 117 835 143 811 q 90 904 90 860 q 117 972 90 949 q 190 996 143 996 q 263 972 238 996 q 289 904 289 949 q 263 835 289 860 q 190 811 238 811 m 264 0 l 115 0 l 115 694 l 264 694 l 264 0 z "},"ı":{"ha":381,"x_min":115,"x_max":264,"o":"m 264 0 l 115 0 l 115 694 l 264 694 l 264 0 z "},"í":{"ha":381,"x_min":115,"x_max":374,"o":"m 264 0 l 115 0 l 115 694 l 264 694 l 264 0 m 374 1036 l 236 803 l 122 803 l 224 1036 l 374 1036 z "},"î":{"ha":381,"x_min":-43,"x_max":424,"o":"m 264 0 l 115 0 l 115 694 l 264 694 l 264 0 m 301 793 l 190 938 l 79 793 l -43 793 l 111 1028 l 269 1028 l 424 793 l 301 793 z "},"ï":{"ha":381,"x_min":-17,"x_max":397,"o":"m 72 797 q 8 821 32 797 q -17 885 -17 844 q 8 949 -17 925 q 72 974 32 974 q 138 949 114 974 q 163 885 163 925 q 138 821 163 844 q 72 797 114 797 m 308 797 q 242 821 265 797 q 218 885 218 844 q 242 950 218 926 q 308 974 267 974 q 373 949 349 974 q 397 885 397 925 q 373 821 397 844 q 308 797 349 797 m 264 0 l 115 0 l 115 694 l 264 694 l 264 0 z "},"ì":{"ha":381,"x_min":7,"x_max":264,"o":"m 264 0 l 115 0 l 115 694 l 264 694 l 264 0 m 258 803 l 144 803 l 7 1036 l 157 1036 l 258 803 z "},"ĳ":{"ha":760,"x_min":90,"x_max":669,"o":"m 190 811 q 117 835 143 811 q 90 904 90 860 q 117 972 90 949 q 190 996 143 996 q 263 972 238 996 q 289 904 289 949 q 263 835 289 860 q 190 811 238 811 m 264 0 l 115 0 l 115 694 l 264 694 l 264 0 m 571 996 q 642 971 615 996 q 669 904 669 946 q 642 837 669 863 q 571 811 615 811 q 498 837 525 811 q 471 904 471 863 q 498 971 471 946 q 571 996 525 996 m 644 -61 q 580 -242 644 -185 q 417 -299 515 -299 q 264 -253 326 -299 l 290 -133 q 397 -172 338 -172 q 470 -143 444 -172 q 496 -47 496 -114 l 496 694 l 644 694 l 644 -61 z "},"ī":{"ha":381,"x_min":25,"x_max":356,"o":"m 356 817 l 25 817 l 25 925 l 356 925 l 356 817 m 264 0 l 115 0 l 115 694 l 264 694 l 264 0 z "},"į":{"ha":381,"x_min":10,"x_max":306,"o":"m 190 811 q 117 835 143 811 q 90 904 90 860 q 117 972 90 949 q 190 996 143 996 q 263 972 238 996 q 289 904 289 949 q 263 835 289 860 q 190 811 238 811 m 306 -268 q 179 -299 258 -299 q 56 -261 101 -299 q 10 -157 10 -224 q 122 0 10 -62 l 115 0 l 115 694 l 264 694 l 264 0 q 155 -68 186 -36 q 124 -137 124 -100 q 143 -186 124 -168 q 200 -204 163 -204 q 278 -186 247 -204 l 306 -268 z "},"j":{"ha":379,"x_min":-117,"x_max":289,"o":"m 190 996 q 262 971 235 996 q 289 904 289 946 q 262 837 289 863 q 190 811 235 811 q 117 837 144 811 q 90 904 90 863 q 117 971 90 946 q 190 996 144 996 m 264 -61 q 199 -242 264 -185 q 36 -299 135 -299 q -117 -253 -54 -299 l -90 -133 q 17 -172 -43 -172 q 90 -143 64 -172 q 115 -47 115 -114 l 115 694 l 264 694 l 264 -61 z "},"k":{"ha":810,"x_min":115,"x_max":788,"o":"m 401 326 l 264 185 l 264 0 l 115 0 l 115 1007 l 264 1007 l 264 354 l 596 694 l 771 694 l 506 422 l 788 0 l 615 0 l 401 326 z "},"l":{"ha":433,"x_min":111,"x_max":424,"o":"m 260 203 q 275 131 260 151 q 332 111 290 111 q 377 115 358 111 q 424 129 396 118 l 407 10 q 292 -14 360 -14 q 155 33 199 -14 q 111 182 111 81 l 111 1007 l 260 1007 l 260 203 z "},"ĺ":{"ha":444,"x_min":111,"x_max":424,"o":"m 329 1288 l 238 1097 l 124 1097 l 181 1288 l 329 1288 m 260 203 q 275 131 260 151 q 332 111 290 111 q 377 115 358 111 q 424 129 396 118 l 407 10 q 292 -14 360 -14 q 155 33 199 -14 q 111 182 111 81 l 111 1007 l 260 1007 l 260 203 z "},"ľ":{"ha":469,"x_min":111,"x_max":486,"o":"m 425 715 l 331 715 l 358 1007 l 486 1007 l 425 715 m 260 203 q 275 131 260 151 q 332 111 290 111 q 377 115 358 111 q 424 129 396 118 l 407 10 q 292 -14 360 -14 q 155 33 199 -14 q 111 182 111 81 l 111 1007 l 260 1007 l 260 203 z "},"ŀ":{"ha":603,"x_min":111,"x_max":593,"o":"m 260 203 q 275 131 260 151 q 332 111 290 111 q 377 115 358 111 q 424 129 396 118 l 407 10 q 292 -14 360 -14 q 155 33 199 -14 q 111 182 111 81 l 111 1007 l 260 1007 l 260 203 m 489 593 q 565 566 538 593 q 593 492 593 539 q 565 419 593 446 q 489 392 536 392 q 412 419 440 392 q 383 492 383 446 q 412 566 383 539 q 489 593 440 593 z "},"ł":{"ha":526,"x_min":44,"x_max":486,"o":"m 393 111 q 440 115 419 111 q 486 129 460 119 l 468 10 q 353 -14 424 -14 q 217 33 261 -14 q 174 182 174 81 l 174 381 l 44 297 l 44 429 l 174 506 l 174 1007 l 322 1007 l 322 596 l 482 699 l 482 567 l 322 472 l 322 203 q 338 131 322 151 q 393 111 353 111 z "},"m":{"ha":1318,"x_min":115,"x_max":1208,"o":"m 953 708 q 1081 680 1022 708 q 1174 593 1139 651 q 1208 450 1208 535 l 1208 0 l 1060 0 l 1060 426 q 1021 547 1060 508 q 917 586 982 586 q 788 531 840 586 q 736 378 736 475 l 736 0 l 588 0 l 588 426 q 549 547 588 508 q 444 586 510 586 q 358 563 400 586 q 290 492 317 540 q 264 369 264 443 l 264 0 l 115 0 l 115 694 l 247 694 l 254 579 q 349 676 289 643 q 479 708 408 708 q 620 673 557 708 q 714 569 683 638 q 812 673 746 638 q 953 708 878 708 z "},"n":{"ha":860,"x_min":115,"x_max":750,"o":"m 489 708 q 677 642 604 708 q 750 450 750 575 l 750 0 l 601 0 l 601 403 q 453 586 601 586 q 319 533 375 586 q 264 368 264 479 l 264 0 l 115 0 l 115 694 l 247 694 l 254 579 q 350 676 289 644 q 489 708 411 708 z "},"ń":{"ha":860,"x_min":115,"x_max":750,"o":"m 489 708 q 677 642 604 708 q 750 450 750 575 l 750 0 l 601 0 l 601 403 q 453 586 601 586 q 319 533 375 586 q 264 368 264 479 l 264 0 l 115 0 l 115 694 l 247 694 l 254 579 q 350 676 289 644 q 489 708 411 708 m 611 1036 l 474 803 l 360 803 l 461 1036 l 611 1036 z "},"ň":{"ha":860,"x_min":115,"x_max":750,"o":"m 489 708 q 677 642 604 708 q 750 450 750 575 l 750 0 l 601 0 l 601 403 q 453 586 601 586 q 319 533 375 586 q 264 368 264 479 l 264 0 l 115 0 l 115 694 l 247 694 l 254 579 q 350 676 289 644 q 489 708 411 708 m 517 803 l 358 803 l 204 1036 l 326 1036 l 438 893 l 549 1036 l 671 1036 l 517 803 z "},"ñ":{"ha":860,"x_min":115,"x_max":750,"o":"m 489 708 q 677 642 604 708 q 750 450 750 575 l 750 0 l 601 0 l 601 403 q 453 586 601 586 q 319 533 375 586 q 264 368 264 479 l 264 0 l 115 0 l 115 694 l 247 694 l 254 579 q 350 676 289 644 q 489 708 411 708 m 697 996 q 533 800 685 800 q 466 815 493 800 q 410 856 439 829 q 374 883 386 875 q 344 890 361 890 q 303 867 318 890 q 282 799 289 844 l 181 799 q 346 996 193 996 q 410 982 385 996 q 468 940 436 968 q 504 913 492 921 q 532 906 517 906 q 574 928 560 906 q 596 996 589 950 l 697 996 z "},"o":{"ha":842,"x_min":75,"x_max":767,"o":"m 421 708 q 675 613 583 708 q 767 347 767 517 q 675 82 767 178 q 421 -14 583 -14 q 167 82 258 -14 q 75 347 75 178 q 167 613 75 517 q 421 708 258 708 m 421 592 q 276 528 326 592 q 225 347 225 465 q 276 166 225 229 q 421 103 326 103 q 567 167 515 103 q 618 347 618 231 q 567 528 618 464 q 421 592 515 592 z "},"ó":{"ha":842,"x_min":75,"x_max":767,"o":"m 421 708 q 675 613 583 708 q 767 347 767 517 q 675 82 767 178 q 421 -14 583 -14 q 167 82 258 -14 q 75 347 75 178 q 167 613 75 517 q 421 708 258 708 m 421 592 q 276 528 326 592 q 225 347 225 465 q 276 166 225 229 q 421 103 326 103 q 567 167 515 103 q 618 347 618 231 q 567 528 618 464 q 421 592 515 592 m 593 1036 l 456 803 l 342 803 l 443 1036 l 593 1036 z "},"ô":{"ha":842,"x_min":75,"x_max":767,"o":"m 421 708 q 675 613 583 708 q 767 347 767 517 q 675 82 767 178 q 421 -14 583 -14 q 167 82 258 -14 q 75 347 75 178 q 167 613 75 517 q 421 708 258 708 m 421 592 q 276 528 326 592 q 225 347 225 465 q 276 166 225 229 q 421 103 326 103 q 567 167 515 103 q 618 347 618 231 q 567 528 618 464 q 421 592 515 592 m 532 793 l 421 938 l 310 793 l 188 793 l 342 1028 l 500 1028 l 654 793 l 532 793 z "},"ö":{"ha":842,"x_min":75,"x_max":767,"o":"m 421 708 q 675 613 583 708 q 767 347 767 517 q 675 82 767 178 q 421 -14 583 -14 q 167 82 258 -14 q 75 347 75 178 q 167 613 75 517 q 421 708 258 708 m 421 592 q 276 528 326 592 q 225 347 225 465 q 276 166 225 229 q 421 103 326 103 q 567 167 515 103 q 618 347 618 231 q 567 528 618 464 q 421 592 515 592 m 281 972 q 347 949 322 972 q 372 885 372 925 q 347 821 372 844 q 281 797 322 797 q 215 822 240 797 q 190 885 190 846 q 215 949 190 925 q 281 972 240 972 m 561 972 q 628 949 603 972 q 653 885 653 925 q 628 821 653 844 q 561 797 603 797 q 495 821 519 797 q 471 885 471 844 q 495 949 471 925 q 561 972 519 972 z "},"ò":{"ha":842,"x_min":75,"x_max":767,"o":"m 421 708 q 675 613 583 708 q 767 347 767 517 q 675 82 767 178 q 421 -14 583 -14 q 167 82 258 -14 q 75 347 75 178 q 167 613 75 517 q 421 708 258 708 m 421 592 q 276 528 326 592 q 225 347 225 465 q 276 166 225 229 q 421 103 326 103 q 567 167 515 103 q 618 347 618 231 q 567 528 618 464 q 421 592 515 592 m 489 803 l 375 803 l 238 1036 l 388 1036 l 489 803 z "},"ő":{"ha":842,"x_min":75,"x_max":767,"o":"m 421 708 q 675 613 583 708 q 767 347 767 517 q 675 82 767 178 q 421 -14 583 -14 q 167 82 258 -14 q 75 347 75 178 q 167 613 75 517 q 421 708 258 708 m 421 592 q 276 528 326 592 q 225 347 225 465 q 276 166 225 229 q 421 103 326 103 q 567 167 515 103 q 618 347 618 231 q 567 528 618 464 q 421 592 515 592 m 322 803 l 210 803 l 313 1036 l 457 1036 l 322 803 m 581 803 l 469 803 l 572 1036 l 715 1036 l 581 803 z "},"ō":{"ha":842,"x_min":75,"x_max":767,"o":"m 421 708 q 675 613 583 708 q 767 347 767 517 q 675 82 767 178 q 421 -14 583 -14 q 167 82 258 -14 q 75 347 75 178 q 167 613 75 517 q 421 708 258 708 m 421 592 q 276 528 326 592 q 225 347 225 465 q 276 166 225 229 q 421 103 326 103 q 567 167 515 103 q 618 347 618 231 q 567 528 618 464 q 421 592 515 592 m 668 817 l 174 817 l 174 925 l 668 925 l 668 817 z "},"ø":{"ha":843,"x_min":75,"x_max":769,"o":"m 421 708 q 622 656 540 708 l 676 725 l 769 725 l 678 608 q 767 347 767 513 q 675 82 767 178 q 421 -14 583 -14 q 233 31 311 -14 l 174 -47 l 81 -47 l 174 75 q 75 347 75 171 q 167 613 75 517 q 421 708 258 708 m 267 189 l 311 251 l 539 553 q 421 592 492 592 q 276 528 326 592 q 225 347 225 465 q 265 189 225 250 l 267 189 m 421 103 q 567 167 515 103 q 618 347 618 231 q 583 490 618 432 l 582 490 l 542 435 l 315 133 q 421 103 358 103 z "},"õ":{"ha":842,"x_min":75,"x_max":767,"o":"m 421 708 q 675 613 583 708 q 767 347 767 517 q 675 82 767 178 q 421 -14 583 -14 q 167 82 258 -14 q 75 347 75 178 q 167 613 75 517 q 421 708 258 708 m 421 592 q 276 528 326 592 q 225 347 225 465 q 276 166 225 229 q 421 103 326 103 q 567 167 515 103 q 618 347 618 231 q 567 528 618 464 q 421 592 515 592 m 678 996 q 514 800 665 800 q 447 815 474 800 q 390 856 419 829 q 354 883 367 875 q 325 890 342 890 q 284 867 299 890 q 263 799 269 844 l 161 799 q 326 996 174 996 q 391 982 365 996 q 449 940 417 968 q 485 913 472 921 q 513 906 497 906 q 555 928 540 906 q 576 996 569 950 l 678 996 z "},"œ":{"ha":1358,"x_min":75,"x_max":1286,"o":"m 1286 381 q 1279 301 1286 333 l 771 301 q 834 156 781 207 q 974 104 888 104 q 1088 128 1043 104 q 1150 199 1133 153 l 1272 147 q 974 -14 1194 -14 q 810 24 879 -14 q 700 132 740 61 q 588 24 658 61 q 421 -14 517 -14 q 167 82 260 -14 q 75 347 75 178 q 167 613 75 517 q 421 708 260 708 q 587 672 517 708 q 699 564 657 635 q 805 672 738 635 q 964 708 872 708 q 1138 665 1065 708 q 1249 548 1211 622 q 1286 381 1286 474 m 964 590 q 833 543 882 590 q 772 404 785 496 l 1143 404 q 1087 542 1132 493 q 964 590 1042 590 m 425 104 q 569 167 518 104 q 621 347 621 231 q 569 527 621 464 q 425 590 518 590 q 279 527 331 590 q 228 347 228 464 q 279 167 228 231 q 425 104 331 104 z "},"p":{"ha":874,"x_min":115,"x_max":796,"o":"m 489 708 q 714 613 632 708 q 796 349 796 518 q 714 83 796 179 q 489 -14 632 -14 q 355 19 414 -14 q 264 111 296 53 l 264 -292 l 115 -292 l 115 694 l 246 694 l 253 565 q 345 669 283 631 q 489 708 407 708 m 456 107 q 597 170 546 107 q 647 347 647 233 q 597 525 647 461 q 456 589 546 589 q 320 532 371 589 q 264 374 269 475 l 264 321 q 320 164 269 221 q 456 107 371 107 z "},"þ":{"ha":874,"x_min":115,"x_max":796,"o":"m 490 708 q 713 614 629 708 q 796 349 796 519 q 756 150 796 232 q 648 27 717 68 q 489 -14 579 -14 q 356 16 414 -14 q 264 99 299 46 l 264 -292 l 115 -292 l 115 1007 l 264 1007 l 264 592 q 356 677 297 646 q 490 708 414 708 m 456 107 q 597 170 546 107 q 647 347 647 233 q 597 525 647 461 q 456 589 546 589 q 316 526 368 589 q 264 356 264 464 l 264 339 q 316 169 264 231 q 456 107 368 107 z "},"q":{"ha":875,"x_min":79,"x_max":760,"o":"m 760 694 l 760 -292 l 611 -292 l 611 113 q 521 20 579 54 q 388 -14 463 -14 q 162 83 244 -14 q 79 349 79 179 q 161 613 79 518 q 386 708 243 708 q 530 670 468 708 q 622 567 592 632 l 629 694 l 760 694 m 419 107 q 559 169 507 107 q 611 339 611 231 l 611 356 q 559 526 611 464 q 419 589 507 589 q 278 525 329 589 q 228 347 228 461 q 278 170 228 233 q 419 107 329 107 z "},"r":{"ha":575,"x_min":115,"x_max":550,"o":"m 474 708 q 550 694 522 708 l 526 558 q 439 576 494 576 q 355 553 394 576 q 290 482 315 529 q 264 368 264 435 l 264 0 l 115 0 l 115 694 l 242 694 l 254 569 q 474 708 313 708 z "},"ŕ":{"ha":575,"x_min":115,"x_max":550,"o":"m 474 708 q 550 694 522 708 l 526 558 q 439 576 494 576 q 355 553 394 576 q 290 482 315 529 q 264 368 264 435 l 264 0 l 115 0 l 115 694 l 242 694 l 254 569 q 474 708 313 708 m 483 1036 l 346 803 l 232 803 l 333 1036 l 483 1036 z "},"ř":{"ha":575,"x_min":76,"x_max":550,"o":"m 474 708 q 550 694 522 708 l 526 558 q 439 576 494 576 q 355 553 394 576 q 290 482 315 529 q 264 368 264 435 l 264 0 l 115 0 l 115 694 l 242 694 l 254 569 q 474 708 313 708 m 389 803 l 231 803 l 76 1036 l 199 1036 l 310 893 l 421 1036 l 543 1036 l 389 803 z "},"s":{"ha":735,"x_min":57,"x_max":669,"o":"m 367 -14 q 180 22 261 -14 q 57 132 99 58 l 157 218 q 239 131 183 158 q 372 103 294 103 q 482 126 443 103 q 521 186 521 149 q 485 240 521 219 q 360 278 449 260 q 143 356 206 307 q 81 493 81 404 q 115 599 81 550 q 216 678 150 649 q 372 708 282 708 q 557 670 488 708 q 664 551 626 632 l 558 474 q 488 563 533 535 q 374 592 443 592 q 270 566 311 592 q 229 507 229 540 q 266 447 229 469 q 400 407 303 425 q 608 332 547 381 q 669 196 669 283 q 589 44 669 103 q 367 -14 508 -14 z "},"ś":{"ha":735,"x_min":57,"x_max":669,"o":"m 367 -14 q 180 22 261 -14 q 57 132 99 58 l 157 218 q 239 131 183 158 q 372 103 294 103 q 482 126 443 103 q 521 186 521 149 q 485 240 521 219 q 360 278 449 260 q 143 356 206 307 q 81 493 81 404 q 115 599 81 550 q 216 678 150 649 q 372 708 282 708 q 557 670 488 708 q 664 551 626 632 l 558 474 q 488 563 533 535 q 374 592 443 592 q 270 566 311 592 q 229 507 229 540 q 266 447 229 469 q 400 407 303 425 q 608 332 547 381 q 669 196 669 283 q 589 44 669 103 q 367 -14 508 -14 m 543 1036 l 406 803 l 292 803 l 393 1036 l 543 1036 z "},"š":{"ha":735,"x_min":57,"x_max":669,"o":"m 367 -14 q 180 22 261 -14 q 57 132 99 58 l 157 218 q 239 131 183 158 q 372 103 294 103 q 482 126 443 103 q 521 186 521 149 q 485 240 521 219 q 360 278 449 260 q 143 356 206 307 q 81 493 81 404 q 115 599 81 550 q 216 678 150 649 q 372 708 282 708 q 557 670 488 708 q 664 551 626 632 l 558 474 q 488 563 533 535 q 374 592 443 592 q 270 566 311 592 q 229 507 229 540 q 266 447 229 469 q 400 407 303 425 q 608 332 547 381 q 669 196 669 283 q 589 44 669 103 q 367 -14 508 -14 m 449 803 l 290 803 l 136 1036 l 258 1036 l 369 893 l 481 1036 l 603 1036 l 449 803 z "},"ß":{"ha":872,"x_min":115,"x_max":800,"o":"m 543 532 q 688 494 631 532 q 773 397 746 457 q 800 268 800 336 q 765 128 800 193 q 661 25 731 64 q 493 -14 592 -14 q 404 -1 446 -14 q 340 32 363 13 l 374 142 q 485 108 413 108 q 612 157 567 108 q 657 286 657 206 q 602 417 657 372 q 443 461 547 461 l 385 461 l 392 585 l 443 585 q 572 628 525 585 q 619 742 619 672 q 576 852 619 815 q 451 889 533 889 q 306 831 347 889 q 264 646 264 772 l 264 0 l 115 0 l 115 675 q 196 925 115 836 q 460 1014 276 1014 q 633 976 564 1014 q 735 878 703 938 q 768 751 768 818 q 743 650 768 700 q 667 567 718 600 q 543 535 617 535 l 543 532 z "},"ſ":{"ha":389,"x_min":111,"x_max":438,"o":"m 111 794 q 165 959 111 901 q 322 1017 218 1017 q 438 985 401 1017 l 417 876 q 356 896 393 896 q 258 782 258 896 l 258 0 l 111 0 l 111 794 z "},"t":{"ha":589,"x_min":36,"x_max":565,"o":"m 565 46 q 484 2 532 18 q 381 -14 436 -14 q 227 34 285 -14 q 168 183 169 82 l 168 578 l 36 578 l 36 694 l 168 694 l 168 857 l 317 899 l 317 694 l 560 694 l 560 578 l 317 578 l 317 208 q 344 134 317 158 q 418 110 371 110 q 531 154 482 110 l 565 46 z "},"ť":{"ha":589,"x_min":36,"x_max":565,"o":"m 490 782 l 396 782 l 424 1065 l 551 1065 l 490 782 m 565 46 q 484 2 532 18 q 381 -14 436 -14 q 227 34 285 -14 q 168 183 169 82 l 168 578 l 36 578 l 36 694 l 168 694 l 168 857 l 317 899 l 317 694 l 560 694 l 560 578 l 317 578 l 317 208 q 344 134 317 158 q 418 110 371 110 q 531 154 482 110 l 565 46 z "},"u":{"ha":860,"x_min":110,"x_max":744,"o":"m 744 694 l 744 0 l 613 0 l 607 113 q 360 -14 536 -14 q 178 48 247 -14 q 110 238 110 110 l 110 694 l 258 694 l 258 276 q 294 147 258 185 q 401 108 331 108 q 541 162 486 108 q 596 319 596 215 l 596 694 l 744 694 z "},"ú":{"ha":860,"x_min":110,"x_max":744,"o":"m 744 694 l 744 0 l 613 0 l 607 113 q 360 -14 536 -14 q 178 48 247 -14 q 110 238 110 110 l 110 694 l 258 694 l 258 276 q 294 147 258 185 q 401 108 331 108 q 541 162 486 108 q 596 319 596 215 l 596 694 l 744 694 m 599 1036 l 461 803 l 347 803 l 449 1036 l 599 1036 z "},"û":{"ha":860,"x_min":110,"x_max":744,"o":"m 744 694 l 744 0 l 613 0 l 607 113 q 360 -14 536 -14 q 178 48 247 -14 q 110 238 110 110 l 110 694 l 258 694 l 258 276 q 294 147 258 185 q 401 108 331 108 q 541 162 486 108 q 596 319 596 215 l 596 694 l 744 694 m 538 793 l 426 938 l 315 793 l 193 793 l 347 1028 l 506 1028 l 660 793 l 538 793 z "},"ü":{"ha":860,"x_min":110,"x_max":744,"o":"m 744 694 l 744 0 l 613 0 l 607 113 q 360 -14 536 -14 q 178 48 247 -14 q 110 238 110 110 l 110 694 l 258 694 l 258 276 q 294 147 258 185 q 401 108 331 108 q 541 162 486 108 q 596 319 596 215 l 596 694 l 744 694 m 286 972 q 353 949 328 972 q 378 885 378 925 q 353 821 378 844 q 286 797 328 797 q 221 822 246 797 q 196 885 196 846 q 221 949 196 925 q 286 972 246 972 m 567 972 q 633 949 608 972 q 658 885 658 925 q 633 821 658 844 q 567 797 608 797 q 501 821 525 797 q 476 885 476 844 q 501 949 476 925 q 567 972 525 972 z "},"ù":{"ha":860,"x_min":110,"x_max":744,"o":"m 744 694 l 744 0 l 613 0 l 607 113 q 360 -14 536 -14 q 178 48 247 -14 q 110 238 110 110 l 110 694 l 258 694 l 258 276 q 294 147 258 185 q 401 108 331 108 q 541 162 486 108 q 596 319 596 215 l 596 694 l 744 694 m 494 803 l 381 803 l 243 1036 l 393 1036 l 494 803 z "},"ű":{"ha":860,"x_min":110,"x_max":744,"o":"m 744 694 l 744 0 l 613 0 l 607 113 q 360 -14 536 -14 q 178 48 247 -14 q 110 238 110 110 l 110 694 l 258 694 l 258 276 q 294 147 258 185 q 401 108 331 108 q 541 162 486 108 q 596 319 596 215 l 596 694 l 744 694 m 328 803 l 215 803 l 318 1036 l 463 1036 l 328 803 m 586 803 l 475 803 l 578 1036 l 721 1036 l 586 803 z "},"ū":{"ha":860,"x_min":110,"x_max":744,"o":"m 744 694 l 744 0 l 613 0 l 607 113 q 360 -14 536 -14 q 178 48 247 -14 q 110 238 110 110 l 110 694 l 258 694 l 258 276 q 294 147 258 185 q 401 108 331 108 q 541 162 486 108 q 596 319 596 215 l 596 694 l 744 694 m 674 817 l 179 817 l 179 925 l 674 925 l 674 817 z "},"ģ":{"ha":750,"x_min":54,"x_max":753,"o":"m 451 806 l 307 806 l 404 1078 l 507 1078 l 451 806 m 519 108 q 683 61 625 108 q 742 -69 742 14 q 695 -192 742 -140 q 567 -271 649 -243 q 385 -299 486 -299 q 137 -250 219 -299 q 54 -121 54 -201 q 87 -38 54 -74 q 178 13 119 -3 q 107 66 133 33 q 81 144 81 99 q 189 283 81 246 q 109 363 136 314 q 82 474 82 411 q 119 597 82 543 q 226 679 157 650 q 383 708 294 708 q 524 686 460 708 q 594 802 543 763 q 728 840 644 842 l 753 725 q 645 708 686 726 q 589 654 604 690 q 660 576 635 622 q 685 474 685 531 q 602 303 685 367 q 383 239 519 239 q 268 251 319 239 q 217 224 233 243 q 201 175 201 206 q 224 126 201 143 q 288 108 247 108 l 519 108 m 383 604 q 276 567 319 604 q 233 474 233 531 q 276 378 233 415 q 383 342 319 342 q 491 378 449 342 q 533 474 533 415 q 491 568 533 532 q 383 604 449 604 m 399 -187 q 557 -158 500 -187 q 614 -86 614 -129 q 586 -33 614 -51 q 493 -15 558 -15 l 306 -15 q 212 -35 243 -15 q 181 -89 181 -54 q 235 -162 181 -136 q 399 -187 290 -187 z "},"ķ":{"ha":810,"x_min":115,"x_max":788,"o":"m 401 326 l 264 185 l 264 0 l 115 0 l 115 1007 l 264 1007 l 264 354 l 596 694 l 771 694 l 506 422 l 788 0 l 615 0 l 401 326 m 413 -331 l 306 -331 l 361 -99 l 506 -99 l 413 -331 z "},"ļ":{"ha":433,"x_min":111,"x_max":424,"o":"m 260 203 q 275 131 260 151 q 332 111 290 111 q 377 115 358 111 q 424 129 396 118 l 407 10 q 292 -14 360 -14 q 155 33 199 -14 q 111 182 111 81 l 111 1007 l 260 1007 l 260 203 m 256 -331 l 149 -331 l 204 -99 l 349 -99 l 256 -331 z "},"ņ":{"ha":860,"x_min":115,"x_max":750,"o":"m 489 708 q 677 642 604 708 q 750 450 750 575 l 750 0 l 601 0 l 601 403 q 453 586 601 586 q 319 533 375 586 q 264 368 264 479 l 264 0 l 115 0 l 115 694 l 247 694 l 254 579 q 350 676 289 644 q 489 708 411 708 m 435 -331 l 328 -331 l 383 -99 l 528 -99 l 435 -331 z "},"ŗ":{"ha":575,"x_min":72,"x_max":550,"o":"m 474 708 q 550 694 522 708 l 526 558 q 439 576 494 576 q 355 553 394 576 q 290 482 315 529 q 264 368 264 435 l 264 0 l 115 0 l 115 694 l 242 694 l 254 569 q 474 708 313 708 m 179 -331 l 72 -331 l 128 -99 l 272 -99 l 179 -331 z "},"ş":{"ha":735,"x_min":57,"x_max":669,"o":"m 669 196 q 615 66 669 119 q 461 -6 560 13 q 520 -71 500 -35 q 540 -146 540 -107 q 493 -256 540 -212 q 368 -299 446 -299 q 276 -286 314 -299 q 208 -247 238 -274 l 254 -161 q 297 -191 272 -179 q 351 -203 322 -203 q 407 -181 385 -203 q 429 -125 429 -160 q 408 -63 429 -89 q 329 -12 386 -37 q 167 29 238 -7 q 57 132 96 65 l 157 218 q 239 131 183 158 q 372 103 294 103 q 482 126 443 103 q 521 186 521 149 q 485 240 521 219 q 360 278 449 260 q 143 356 206 307 q 81 493 81 404 q 115 599 81 550 q 216 678 150 649 q 372 708 282 708 q 557 670 488 708 q 664 551 626 632 l 558 474 q 488 563 533 535 q 374 592 443 592 q 270 566 311 592 q 229 507 229 540 q 266 447 229 469 q 400 407 303 425 q 608 332 547 381 q 669 196 669 283 z "},"ţ":{"ha":611,"x_min":36,"x_max":565,"o":"m 442 -8 q 517 -146 517 -67 q 469 -256 517 -212 q 343 -299 422 -299 q 185 -249 242 -299 l 231 -161 q 274 -191 249 -179 q 326 -203 299 -203 q 383 -181 361 -203 q 406 -125 406 -160 q 382 -59 406 -86 q 294 -3 358 -32 q 168 183 169 36 l 168 578 l 36 578 l 36 694 l 168 694 l 168 857 l 317 899 l 317 694 l 560 694 l 560 578 l 317 578 l 317 208 q 344 134 317 158 q 418 110 371 110 q 531 154 482 110 l 565 46 q 442 -8 514 4 z "},"ș":{"ha":735,"x_min":57,"x_max":669,"o":"m 367 -14 q 180 22 261 -14 q 57 132 99 58 l 157 218 q 239 131 183 158 q 372 103 294 103 q 482 126 443 103 q 521 186 521 149 q 485 240 521 219 q 360 278 449 260 q 143 356 206 307 q 81 493 81 404 q 115 599 81 550 q 216 678 150 649 q 372 708 282 708 q 557 670 488 708 q 664 551 626 632 l 558 474 q 488 563 533 535 q 374 592 443 592 q 270 566 311 592 q 229 507 229 540 q 266 447 229 469 q 400 407 303 425 q 608 332 547 381 q 669 196 669 283 q 589 44 669 103 q 367 -14 508 -14 m 356 -331 l 249 -331 l 304 -99 l 449 -99 l 356 -331 z "},"ț":{"ha":589,"x_min":36,"x_max":565,"o":"m 565 46 q 484 2 532 18 q 381 -14 436 -14 q 227 34 285 -14 q 168 183 169 82 l 168 578 l 36 578 l 36 694 l 168 694 l 168 857 l 317 899 l 317 694 l 560 694 l 560 578 l 317 578 l 317 208 q 344 134 317 158 q 418 110 371 110 q 531 154 482 110 l 565 46 m 324 -331 l 217 -331 l 272 -99 l 417 -99 l 324 -331 z "},"ų":{"ha":860,"x_min":110,"x_max":757,"o":"m 757 -269 q 703 -291 735 -283 q 636 -299 671 -299 q 519 -262 560 -299 q 478 -162 478 -226 q 513 -65 478 -106 q 618 8 547 -24 l 604 128 q 501 24 567 61 q 360 -14 435 -14 q 178 48 247 -14 q 110 238 110 110 l 110 694 l 258 694 l 258 276 q 294 147 258 185 q 396 108 329 108 q 496 135 450 108 q 569 211 542 161 q 596 329 596 261 l 596 694 l 744 694 l 744 0 q 623 -69 660 -37 q 586 -139 586 -101 q 660 -203 586 -203 q 732 -186 708 -203 l 757 -269 z "},"ů":{"ha":860,"x_min":110,"x_max":744,"o":"m 744 694 l 744 0 l 613 0 l 607 113 q 360 -14 536 -14 q 178 48 247 -14 q 110 238 110 110 l 110 694 l 258 694 l 258 276 q 294 147 258 185 q 401 108 331 108 q 541 162 486 108 q 596 319 596 215 l 596 694 l 744 694 m 425 1119 q 553 1074 506 1119 q 601 956 601 1029 q 553 834 601 879 q 425 789 506 789 q 294 834 343 789 q 246 956 246 879 q 295 1074 246 1029 q 425 1119 344 1119 m 425 1043 q 359 1019 385 1043 q 333 956 333 994 q 359 892 333 917 q 425 867 385 867 q 490 892 465 867 q 515 956 515 917 q 490 1019 515 994 q 425 1043 465 1043 z "},"v":{"ha":739,"x_min":11,"x_max":728,"o":"m 728 694 l 451 0 l 289 0 l 11 694 l 175 694 l 371 121 l 572 694 l 728 694 z "},"w":{"ha":1210,"x_min":40,"x_max":1171,"o":"m 1171 694 l 939 0 l 776 0 l 601 525 l 435 0 l 272 0 l 40 694 l 201 694 l 358 139 l 532 694 l 679 694 l 851 139 l 1010 694 l 1171 694 z "},"x":{"ha":764,"x_min":31,"x_max":729,"o":"m 554 0 l 379 261 l 199 0 l 31 0 l 292 350 l 44 694 l 222 694 l 389 443 l 554 694 l 725 694 l 476 354 l 729 0 l 554 0 z "},"y":{"ha":758,"x_min":15,"x_max":740,"o":"m 436 -82 q 332 -250 390 -201 q 179 -299 274 -299 q 85 -285 125 -299 q 15 -243 46 -272 l 58 -129 q 172 -179 100 -179 q 242 -158 214 -179 q 293 -79 271 -136 l 324 -4 l 251 168 l 35 694 l 201 694 l 354 258 l 394 128 l 442 271 l 586 694 l 740 694 l 436 -82 z "},"ý":{"ha":758,"x_min":15,"x_max":740,"o":"m 436 -82 q 332 -250 390 -201 q 179 -299 274 -299 q 85 -285 125 -299 q 15 -243 46 -272 l 58 -129 q 172 -179 100 -179 q 242 -158 214 -179 q 293 -79 271 -136 l 324 -4 l 251 168 l 35 694 l 201 694 l 354 258 l 394 128 l 442 271 l 586 694 l 740 694 l 436 -82 m 564 1036 l 426 803 l 313 803 l 414 1036 l 564 1036 z "},"ÿ":{"ha":758,"x_min":15,"x_max":740,"o":"m 436 -82 q 332 -250 390 -201 q 179 -299 274 -299 q 85 -285 125 -299 q 15 -243 46 -272 l 58 -129 q 172 -179 100 -179 q 242 -158 214 -179 q 293 -79 271 -136 l 324 -4 l 251 168 l 35 694 l 201 694 l 354 258 l 394 128 l 442 271 l 586 694 l 740 694 l 436 -82 m 251 972 q 318 949 293 972 q 343 885 343 925 q 318 821 343 844 q 251 797 293 797 q 186 822 211 797 q 161 885 161 846 q 186 949 161 925 q 251 972 211 972 m 532 972 q 599 949 574 972 q 624 885 624 925 q 599 821 624 844 q 532 797 574 797 q 466 821 490 797 q 442 885 442 844 q 466 949 442 925 q 532 972 490 972 z "},"z":{"ha":733,"x_min":71,"x_max":668,"o":"m 71 103 l 408 494 l 492 581 l 372 578 l 74 578 l 74 694 l 656 694 l 656 592 l 319 200 l 236 114 l 368 117 l 668 117 l 668 0 l 71 0 l 71 103 z "},"ź":{"ha":733,"x_min":71,"x_max":668,"o":"m 71 103 l 408 494 l 492 581 l 372 578 l 74 578 l 74 694 l 656 694 l 656 592 l 319 200 l 236 114 l 368 117 l 668 117 l 668 0 l 71 0 l 71 103 m 522 1036 l 385 803 l 271 803 l 372 1036 l 522 1036 z "},"ž":{"ha":733,"x_min":71,"x_max":668,"o":"m 71 103 l 408 494 l 492 581 l 372 578 l 74 578 l 74 694 l 656 694 l 656 592 l 319 200 l 236 114 l 368 117 l 668 117 l 668 0 l 71 0 l 71 103 m 428 803 l 269 803 l 115 1036 l 238 1036 l 349 893 l 460 1036 l 582 1036 l 428 803 z "},"ż":{"ha":733,"x_min":71,"x_max":668,"o":"m 71 103 l 408 494 l 492 581 l 372 578 l 74 578 l 74 694 l 656 694 l 656 592 l 319 200 l 236 114 l 368 117 l 668 117 l 668 0 l 71 0 l 71 103 m 350 997 q 421 973 394 997 q 447 906 447 949 q 421 838 447 863 q 350 814 394 814 q 280 838 306 814 q 254 906 254 863 q 280 973 254 949 q 350 997 306 997 z "},"ﬁ":{"ha":935,"x_min":38,"x_max":844,"o":"m 313 694 l 538 694 l 538 578 l 317 578 l 317 0 l 168 0 l 168 578 l 38 578 l 38 694 l 168 694 l 168 794 q 232 958 168 900 q 411 1017 296 1017 q 488 1008 453 1017 q 542 983 522 999 l 514 875 q 435 896 482 896 q 313 783 313 896 l 313 694 m 746 811 q 672 835 699 811 q 646 904 646 860 q 672 972 646 949 q 746 996 699 996 q 819 972 793 996 q 844 904 844 949 q 819 835 844 860 q 746 811 793 811 m 819 0 l 671 0 l 671 694 l 819 694 l 819 0 z "},"ﬂ":{"ha":989,"x_min":38,"x_max":979,"o":"m 313 694 l 538 694 l 538 578 l 317 578 l 317 0 l 168 0 l 168 578 l 38 578 l 38 694 l 168 694 l 168 794 q 232 958 168 900 q 411 1017 296 1017 q 488 1008 453 1017 q 542 983 522 999 l 514 875 q 435 896 482 896 q 313 783 313 896 l 313 694 m 815 203 q 831 131 815 151 q 888 111 846 111 q 933 115 914 111 q 979 129 951 118 l 963 10 q 847 -14 915 -14 q 710 33 754 -14 q 667 182 667 81 l 667 1007 l 815 1007 l 815 203 z "},"ª":{"ha":554,"x_min":28,"x_max":526,"o":"m 494 525 q 526 531 517 525 l 518 460 q 457 446 490 446 q 390 464 417 446 q 356 517 364 482 q 285 465 331 483 q 181 446 240 446 q 68 476 108 446 q 28 561 28 506 q 72 656 28 619 q 211 710 115 692 l 335 732 l 335 750 q 310 813 335 790 q 243 835 286 835 q 171 817 200 835 q 126 754 142 799 l 36 792 q 105 888 50 853 q 249 922 160 922 q 401 879 350 922 q 453 751 453 836 l 453 568 q 494 525 453 525 m 219 529 q 299 553 263 529 q 335 614 335 576 l 335 667 l 249 649 q 171 622 194 638 q 147 578 147 606 q 165 540 147 551 q 219 529 183 529 m 39 347 l 503 347 l 503 258 l 39 258 l 39 347 z "},"º":{"ha":526,"x_min":35,"x_max":492,"o":"m 263 446 q 94 508 153 446 q 35 683 35 571 q 94 860 35 797 q 263 922 153 922 q 433 860 374 922 q 492 683 492 797 q 433 508 492 571 q 263 446 374 446 m 263 533 q 371 683 371 533 q 263 836 371 836 q 156 683 156 836 q 263 533 156 533 m 50 347 l 476 347 l 476 258 l 50 258 l 50 347 z "},"π":{"ha":1044,"x_min":39,"x_max":992,"o":"m 788 581 l 788 208 q 822 132 788 154 q 935 113 857 110 l 913 -1 q 751 13 810 -4 q 665 72 692 31 q 639 183 639 113 l 639 581 l 371 581 l 371 0 l 222 0 l 222 581 l 39 581 l 39 694 l 992 694 l 992 581 l 788 581 z "},"⁄":{"ha":351,"x_min":-219,"x_max":569,"o":"m 443 917 l 569 917 l -93 0 l -219 0 l 443 917 z "},"½":{"ha":1228,"x_min":18,"x_max":1190,"o":"m 290 924 l 290 372 l 171 372 l 171 707 q 175 803 171 749 q 18 726 99 736 l 18 828 q 113 864 60 835 q 186 924 165 893 l 290 924 m 803 917 l 929 917 l 267 0 l 140 0 l 803 917 m 760 74 q 886 160 835 122 q 1019 278 983 233 q 1054 367 1054 322 q 1030 432 1054 407 q 960 457 1006 457 q 883 424 911 457 q 854 335 856 392 l 743 369 q 807 504 747 456 q 964 553 867 553 q 1124 501 1069 553 q 1179 375 1179 449 q 1135 259 1179 317 q 999 138 1092 201 q 915 88 978 124 l 915 86 q 1015 90 978 90 l 1190 90 l 1190 -6 l 760 -6 l 760 74 z "},"¼":{"ha":1135,"x_min":18,"x_max":1108,"o":"m 290 924 l 290 372 l 171 372 l 171 707 q 175 803 171 749 q 18 726 99 736 l 18 828 q 113 864 60 835 q 186 924 165 893 l 290 924 m 803 917 l 929 917 l 267 0 l 140 0 l 803 917 m 1108 126 l 1015 126 l 1015 -6 l 913 -6 l 913 126 l 636 126 l 636 186 l 879 546 l 1015 546 l 1015 208 l 1108 208 l 1108 126 m 913 208 l 913 351 q 917 460 913 408 l 913 460 q 869 382 890 415 l 746 208 l 913 208 z "},"¾":{"ha":1285,"x_min":28,"x_max":1258,"o":"m 254 931 q 401 890 349 931 q 454 779 454 849 q 421 687 454 721 q 343 650 388 653 l 343 647 q 430 613 393 646 q 467 524 467 581 q 408 408 467 451 q 253 364 349 364 q 28 499 72 364 l 140 546 q 249 457 153 457 q 319 479 293 457 q 344 539 344 501 q 249 608 344 608 l 215 608 l 215 683 l 244 683 q 310 703 288 683 q 332 758 332 722 q 310 815 332 796 q 249 835 289 835 q 151 756 165 835 l 43 793 q 116 896 60 861 q 254 931 172 931 m 953 917 l 1079 917 l 417 0 l 290 0 l 953 917 m 1258 126 l 1165 126 l 1165 -6 l 1063 -6 l 1063 126 l 786 126 l 786 186 l 1029 546 l 1165 546 l 1165 208 l 1258 208 l 1258 126 m 1063 208 l 1063 351 q 1067 460 1063 408 l 1063 460 q 1019 382 1040 415 l 896 208 l 1063 208 z "},"➀":{"ha":1264,"x_min":110,"x_max":1154,"o":"m 632 -56 q 359 9 478 -56 q 175 190 240 74 q 110 458 110 307 q 175 726 110 610 q 359 908 240 843 q 632 972 478 972 q 905 908 786 972 q 1089 726 1024 843 q 1154 458 1154 610 q 1089 190 1154 307 q 905 9 1024 74 q 632 -56 786 -56 m 632 36 q 851 89 756 36 q 1000 238 947 142 q 1053 458 1053 333 q 1000 679 1053 583 q 851 828 947 775 q 632 881 756 881 q 413 828 508 881 q 264 679 317 775 q 211 458 211 583 q 264 238 211 333 q 413 89 317 142 q 632 36 508 36 m 724 740 l 724 189 l 604 189 l 604 524 q 608 619 604 565 q 451 543 529 553 l 451 644 q 546 681 493 651 q 619 740 599 710 l 724 740 z "},"➁":{"ha":1264,"x_min":110,"x_max":1154,"o":"m 632 -56 q 359 9 478 -56 q 175 190 240 74 q 110 458 110 307 q 175 726 110 610 q 359 908 240 843 q 632 972 478 972 q 905 908 786 972 q 1089 726 1024 843 q 1154 458 1154 610 q 1089 190 1154 307 q 905 9 1024 74 q 632 -56 786 -56 m 632 36 q 851 89 756 36 q 1000 238 947 142 q 1053 458 1053 333 q 1000 679 1053 583 q 851 828 947 775 q 632 881 756 881 q 413 828 508 881 q 264 679 317 775 q 211 458 211 583 q 264 238 211 333 q 413 89 317 142 q 632 36 508 36 m 422 282 q 549 368 497 331 q 681 486 646 442 q 717 575 717 531 q 692 640 717 615 q 622 665 668 665 q 546 633 574 665 q 517 543 518 600 l 406 578 q 469 713 410 664 q 626 761 529 761 q 787 709 732 761 q 842 583 842 657 q 798 467 842 525 q 661 346 754 410 q 578 296 640 332 l 578 294 q 678 299 640 299 l 853 299 l 853 203 l 422 203 l 422 282 z "},"➂":{"ha":1264,"x_min":110,"x_max":1154,"o":"m 632 -56 q 359 9 478 -56 q 175 190 240 74 q 110 458 110 307 q 175 726 110 610 q 359 908 240 843 q 632 972 478 972 q 905 908 786 972 q 1089 726 1024 843 q 1154 458 1154 610 q 1089 190 1154 307 q 905 9 1024 74 q 632 -56 786 -56 m 632 36 q 851 89 756 36 q 1000 238 947 142 q 1053 458 1053 333 q 1000 679 1053 583 q 851 828 947 775 q 632 881 756 881 q 413 828 508 881 q 264 679 317 775 q 211 458 211 583 q 264 238 211 333 q 413 89 317 142 q 632 36 508 36 m 640 743 q 788 702 735 743 q 840 592 840 661 q 807 499 840 533 q 729 463 774 465 l 729 460 q 816 426 779 458 q 853 336 853 393 q 794 220 853 264 q 639 176 735 176 q 414 311 458 176 l 526 358 q 635 269 539 269 q 705 292 679 269 q 731 351 731 314 q 635 421 731 421 l 601 421 l 601 496 l 631 496 q 696 515 674 496 q 718 571 718 535 q 697 628 718 608 q 635 647 675 647 q 538 568 551 647 l 429 606 q 502 708 446 674 q 640 743 558 743 z "},"➃":{"ha":1264,"x_min":110,"x_max":1154,"o":"m 632 -56 q 359 9 478 -56 q 175 190 240 74 q 110 458 110 307 q 175 726 110 610 q 359 908 240 843 q 632 972 478 972 q 905 908 786 972 q 1089 726 1024 843 q 1154 458 1154 610 q 1089 190 1154 307 q 905 9 1024 74 q 632 -56 786 -56 m 632 36 q 851 89 756 36 q 1000 238 947 142 q 1053 458 1053 333 q 1000 679 1053 583 q 851 828 947 775 q 632 881 756 881 q 413 828 508 881 q 264 679 317 775 q 211 458 211 583 q 264 238 211 333 q 413 89 317 142 q 632 36 508 36 m 835 321 l 742 321 l 742 189 l 639 189 l 639 321 l 363 321 l 363 381 l 606 740 l 742 740 l 742 403 l 835 403 l 835 321 m 639 403 l 639 546 q 643 654 639 603 l 639 654 q 596 576 617 610 l 472 403 l 639 403 z "},"➄":{"ha":1264,"x_min":110,"x_max":1154,"o":"m 632 -56 q 359 9 478 -56 q 175 190 240 74 q 110 458 110 307 q 175 726 110 610 q 359 908 240 843 q 632 972 478 972 q 905 908 786 972 q 1089 726 1024 843 q 1154 458 1154 610 q 1089 190 1154 307 q 905 9 1024 74 q 632 -56 786 -56 m 632 36 q 851 89 756 36 q 1000 238 947 142 q 1053 458 1053 333 q 1000 679 1053 583 q 851 828 947 775 q 632 881 756 881 q 413 828 508 881 q 264 679 317 775 q 211 458 211 583 q 264 238 211 333 q 413 89 317 142 q 632 36 508 36 m 667 532 q 799 483 750 532 q 849 360 849 435 q 788 219 849 268 q 632 169 728 169 q 494 197 550 169 q 408 286 439 224 l 517 342 q 628 263 536 263 q 703 288 675 263 q 732 357 732 314 q 632 449 732 449 q 567 437 592 449 q 526 401 542 425 l 432 406 l 460 728 l 821 728 l 821 633 l 551 633 l 542 525 q 533 488 540 503 l 535 488 q 584 521 554 510 q 667 532 614 532 z "},"➅":{"ha":1264,"x_min":110,"x_max":1154,"o":"m 632 -56 q 359 9 478 -56 q 175 190 240 74 q 110 458 110 307 q 175 726 110 610 q 359 908 240 843 q 632 972 478 972 q 905 908 786 972 q 1089 726 1024 843 q 1154 458 1154 610 q 1089 190 1154 307 q 905 9 1024 74 q 632 -56 786 -56 m 632 36 q 851 89 756 36 q 1000 238 947 142 q 1053 458 1053 333 q 1000 679 1053 583 q 851 828 947 775 q 632 881 756 881 q 413 828 508 881 q 264 679 317 775 q 211 458 211 583 q 264 238 211 333 q 413 89 317 142 q 632 36 508 36 m 628 175 q 453 247 514 175 q 392 458 392 319 q 460 669 392 596 q 640 742 529 742 q 762 714 714 742 q 835 626 810 686 l 739 578 q 640 649 718 649 q 541 597 576 649 q 506 469 506 544 l 506 453 l 507 453 q 568 509 533 492 q 654 526 603 526 q 792 480 740 526 q 843 351 843 433 q 786 222 843 269 q 628 175 729 175 m 629 268 q 704 290 678 268 q 731 353 731 313 q 703 417 731 393 q 629 440 676 440 q 557 415 585 440 q 529 353 529 389 q 556 291 529 314 q 629 268 583 268 z "},"➆":{"ha":1264,"x_min":110,"x_max":1154,"o":"m 632 -56 q 359 9 478 -56 q 175 190 240 74 q 110 458 110 307 q 175 726 110 610 q 359 908 240 843 q 632 972 478 972 q 905 908 786 972 q 1089 726 1024 843 q 1154 458 1154 610 q 1089 190 1154 307 q 905 9 1024 74 q 632 -56 786 -56 m 632 36 q 851 89 756 36 q 1000 238 947 142 q 1053 458 1053 333 q 1000 679 1053 583 q 851 828 947 775 q 632 881 756 881 q 413 828 508 881 q 264 679 317 775 q 211 458 211 583 q 264 238 211 333 q 413 89 317 142 q 632 36 508 36 m 860 718 l 860 629 q 721 418 763 529 q 679 167 679 307 l 560 167 q 605 410 560 293 q 742 621 650 526 l 425 621 l 425 718 l 860 718 z "},"➇":{"ha":1264,"x_min":110,"x_max":1154,"o":"m 632 -56 q 359 9 478 -56 q 175 190 240 74 q 110 458 110 307 q 175 726 110 610 q 359 908 240 843 q 632 972 478 972 q 905 908 786 972 q 1089 726 1024 843 q 1154 458 1154 610 q 1089 190 1154 307 q 905 9 1024 74 q 632 -56 786 -56 m 632 36 q 851 89 756 36 q 1000 238 947 142 q 1053 458 1053 333 q 1000 679 1053 583 q 851 828 947 775 q 632 881 756 881 q 413 828 508 881 q 264 679 317 775 q 211 458 211 583 q 264 238 211 333 q 413 89 317 142 q 632 36 508 36 m 632 742 q 784 701 728 742 q 840 590 840 660 q 815 514 840 546 q 743 468 790 482 l 743 467 q 829 417 799 451 q 860 335 860 383 q 799 219 860 261 q 632 176 738 176 q 466 219 528 176 q 404 335 404 261 q 434 417 404 383 q 519 467 464 451 l 519 468 q 449 514 474 482 q 424 590 424 546 q 479 701 424 660 q 632 742 535 742 m 632 658 q 564 639 589 658 q 539 585 539 619 q 564 530 539 550 q 632 510 589 510 q 700 530 675 510 q 725 585 725 550 q 700 639 725 619 q 632 658 675 658 m 632 261 q 711 283 682 261 q 740 342 740 306 q 711 402 740 381 q 632 424 682 424 q 553 401 582 424 q 524 342 524 379 q 553 283 524 306 q 632 261 582 261 z "},"➈":{"ha":1264,"x_min":110,"x_max":1154,"o":"m 632 -56 q 359 9 478 -56 q 175 190 240 74 q 110 458 110 307 q 175 726 110 610 q 359 908 240 843 q 632 972 478 972 q 905 908 786 972 q 1089 726 1024 843 q 1154 458 1154 610 q 1089 190 1154 307 q 905 9 1024 74 q 632 -56 786 -56 m 632 36 q 851 89 756 36 q 1000 238 947 142 q 1053 458 1053 333 q 1000 679 1053 583 q 851 828 947 775 q 632 881 756 881 q 413 828 508 881 q 264 679 317 775 q 211 458 211 583 q 264 238 211 333 q 413 89 317 142 q 632 36 508 36 m 635 743 q 810 669 747 743 q 872 458 872 596 q 808 248 872 319 q 631 176 743 176 q 422 299 464 176 l 531 342 q 561 288 538 306 q 632 269 585 269 q 728 317 697 269 q 758 433 758 364 q 757 458 758 450 l 756 458 q 703 410 744 431 q 618 389 663 389 q 472 436 525 389 q 418 563 418 483 q 476 695 418 647 q 635 743 535 743 m 639 650 q 563 627 590 650 q 536 563 536 604 q 563 499 536 522 q 638 476 590 476 q 712 501 683 476 q 740 563 740 525 q 712 626 740 601 q 639 650 683 650 z "},"₀":{"ha":557,"x_min":43,"x_max":514,"o":"m 279 -271 q 43 13 43 -271 q 279 296 43 296 q 455 224 396 296 q 514 13 514 153 q 455 -199 514 -128 q 279 -271 396 -271 m 279 -179 q 367 -132 339 -179 q 394 13 394 -85 q 367 157 394 110 q 279 204 339 204 q 191 157 219 204 q 163 13 163 110 q 191 -132 163 -85 q 279 -179 219 -179 z "},"₁":{"ha":360,"x_min":18,"x_max":290,"o":"m 290 289 l 290 -262 l 171 -262 l 171 72 q 175 168 171 114 q 18 92 96 101 l 18 193 q 113 229 60 200 q 186 289 165 258 l 290 289 z "},"₂":{"ha":518,"x_min":33,"x_max":481,"o":"m 50 -183 q 176 -97 125 -135 q 309 21 274 -24 q 344 110 344 65 q 320 175 344 150 q 250 200 296 200 q 174 167 201 200 q 144 78 146 135 l 33 113 q 97 247 38 199 q 254 296 157 296 q 415 244 360 296 q 469 118 469 192 q 426 2 469 60 q 289 -119 382 -56 q 206 -169 268 -133 l 206 -171 q 306 -167 268 -167 l 481 -167 l 481 -262 l 50 -262 l 50 -183 z "},"₃":{"ha":510,"x_min":28,"x_max":467,"o":"m 254 296 q 401 255 349 296 q 454 144 454 214 q 421 52 454 86 q 343 15 388 18 l 343 13 q 430 -22 393 11 q 467 -111 467 -54 q 408 -227 467 -183 q 253 -271 349 -271 q 28 -136 72 -271 l 140 -89 q 249 -178 153 -178 q 319 -156 293 -178 q 344 -96 344 -133 q 249 -26 344 -26 l 215 -26 l 215 49 l 244 49 q 310 68 288 49 q 332 124 332 88 q 310 181 332 161 q 249 200 289 200 q 151 121 165 200 l 43 158 q 116 261 60 226 q 254 296 172 296 z "},"₄":{"ha":513,"x_min":14,"x_max":486,"o":"m 486 -131 l 393 -131 l 393 -262 l 290 -262 l 290 -131 l 14 -131 l 14 -71 l 257 289 l 393 289 l 393 -49 l 486 -49 l 486 -131 m 290 -49 l 290 94 q 294 203 290 151 l 290 203 q 247 125 268 158 l 124 -49 l 290 -49 z "},"₅":{"ha":511,"x_min":31,"x_max":471,"o":"m 289 93 q 422 44 372 93 q 471 -79 471 -4 q 410 -220 471 -171 q 254 -269 350 -269 q 117 -242 172 -269 q 31 -153 61 -215 l 139 -97 q 250 -176 158 -176 q 326 -151 297 -176 q 354 -82 354 -125 q 254 10 354 10 q 189 -2 214 10 q 149 -37 164 -14 l 54 -33 l 82 289 l 443 289 l 443 194 l 174 194 l 164 86 q 156 49 163 64 l 157 49 q 206 82 176 71 q 289 93 236 93 z "},"₆":{"ha":535,"x_min":44,"x_max":496,"o":"m 281 -271 q 106 -199 167 -271 q 44 13 44 -126 q 113 223 44 150 q 293 296 182 296 q 415 268 367 296 q 488 181 463 240 l 392 132 q 293 203 371 203 q 194 151 229 203 q 158 24 158 99 l 158 7 l 160 7 q 221 63 186 46 q 307 81 256 81 q 444 34 393 81 q 496 -94 496 -12 q 439 -224 496 -176 q 281 -271 382 -271 m 282 -178 q 357 -156 331 -178 q 383 -93 383 -133 q 356 -29 383 -53 q 282 -6 329 -6 q 210 -31 238 -6 q 182 -93 182 -57 q 209 -155 182 -132 q 282 -178 236 -178 z "},"₇":{"ha":451,"x_min":7,"x_max":442,"o":"m 442 289 l 442 200 q 303 -11 344 100 q 261 -262 261 -122 l 142 -262 q 187 -19 142 -136 q 324 192 232 97 l 7 192 l 7 289 l 442 289 z "},"₈":{"ha":549,"x_min":46,"x_max":501,"o":"m 274 294 q 426 253 369 294 q 482 143 482 213 q 457 67 482 99 q 385 21 432 35 l 385 19 q 471 -30 440 4 q 501 -112 501 -64 q 440 -228 501 -186 q 274 -271 379 -271 q 108 -228 169 -271 q 46 -112 46 -186 q 76 -30 46 -64 q 161 19 106 4 l 161 21 q 90 67 115 35 q 65 143 65 99 q 121 253 65 213 q 274 294 176 294 m 274 211 q 206 192 231 211 q 181 138 181 172 q 206 83 181 103 q 274 63 231 63 q 342 83 317 63 q 367 138 367 103 q 342 192 367 172 q 274 211 317 211 m 274 -186 q 353 -164 324 -186 q 382 -106 382 -142 q 353 -45 382 -67 q 274 -24 324 -24 q 194 -46 224 -24 q 165 -106 165 -68 q 194 -164 165 -142 q 274 -186 224 -186 z "},"₉":{"ha":542,"x_min":43,"x_max":497,"o":"m 260 296 q 435 222 372 296 q 497 11 497 149 q 433 -199 497 -128 q 256 -271 368 -271 q 47 -149 89 -271 l 156 -106 q 186 -160 163 -142 q 257 -178 210 -178 q 353 -131 322 -178 q 383 -14 383 -83 q 382 11 383 3 l 381 11 q 328 -37 369 -17 q 243 -58 288 -58 q 97 -11 150 -58 q 43 115 43 36 q 101 248 43 200 q 260 296 160 296 m 264 203 q 188 180 215 203 q 161 115 161 157 q 188 52 161 75 q 263 29 215 29 q 337 53 308 29 q 365 115 365 78 q 337 178 365 154 q 264 203 308 203 z "},"⁰":{"ha":557,"x_min":43,"x_max":514,"o":"m 279 454 q 43 738 43 454 q 279 1021 43 1021 q 455 949 396 1021 q 514 738 514 878 q 455 526 514 597 q 279 454 396 454 m 279 546 q 367 593 339 546 q 394 738 394 640 q 367 882 394 835 q 279 929 339 929 q 191 882 219 929 q 163 738 163 835 q 191 593 163 640 q 279 546 219 546 z "},"¹":{"ha":360,"x_min":18,"x_max":290,"o":"m 290 1014 l 290 463 l 171 463 l 171 797 q 175 893 171 839 q 18 817 96 826 l 18 918 q 113 954 60 925 q 186 1014 165 983 l 290 1014 z "},"²":{"ha":518,"x_min":33,"x_max":481,"o":"m 50 542 q 176 628 125 590 q 309 746 274 701 q 344 835 344 790 q 320 900 344 875 q 250 925 296 925 q 174 892 201 925 q 144 803 146 860 l 33 838 q 97 972 38 924 q 254 1021 157 1021 q 415 969 360 1021 q 469 843 469 917 q 426 727 469 785 q 289 606 382 669 q 206 556 268 592 l 206 554 q 306 558 268 558 l 481 558 l 481 463 l 50 463 l 50 542 z "},"³":{"ha":510,"x_min":28,"x_max":467,"o":"m 254 1021 q 401 980 349 1021 q 454 869 454 939 q 421 777 454 811 q 343 740 388 743 l 343 738 q 430 703 393 736 q 467 614 467 671 q 408 498 467 542 q 253 454 349 454 q 28 589 72 454 l 140 636 q 249 547 153 547 q 319 569 293 547 q 344 629 344 592 q 249 699 344 699 l 215 699 l 215 774 l 244 774 q 310 793 288 774 q 332 849 332 813 q 310 906 332 886 q 249 925 289 925 q 151 846 165 925 l 43 883 q 116 986 60 951 q 254 1021 172 1021 z "},"⁴":{"ha":513,"x_min":14,"x_max":486,"o":"m 486 594 l 393 594 l 393 463 l 290 463 l 290 594 l 14 594 l 14 654 l 257 1014 l 393 1014 l 393 676 l 486 676 l 486 594 m 290 676 l 290 819 q 294 928 290 876 l 290 928 q 247 850 268 883 l 124 676 l 290 676 z "},"⁵":{"ha":511,"x_min":31,"x_max":471,"o":"m 289 818 q 422 769 372 818 q 471 646 471 721 q 410 505 471 554 q 254 456 350 456 q 117 483 172 456 q 31 572 61 510 l 139 628 q 250 549 158 549 q 326 574 297 549 q 354 643 354 600 q 254 735 354 735 q 189 723 214 735 q 149 688 164 711 l 54 692 l 82 1014 l 443 1014 l 443 919 l 174 919 l 164 811 q 156 774 163 789 l 157 774 q 206 807 176 796 q 289 818 236 818 z "},"⁶":{"ha":535,"x_min":44,"x_max":496,"o":"m 281 454 q 106 526 167 454 q 44 738 44 599 q 113 948 44 875 q 293 1021 182 1021 q 415 993 367 1021 q 488 906 463 965 l 392 857 q 293 928 371 928 q 194 876 229 928 q 158 749 158 824 l 158 732 l 160 732 q 221 788 186 771 q 307 806 256 806 q 444 759 393 806 q 496 631 496 713 q 439 501 496 549 q 281 454 382 454 m 282 547 q 357 569 331 547 q 383 632 383 592 q 356 696 383 672 q 282 719 329 719 q 210 694 238 719 q 182 632 182 668 q 209 570 182 593 q 282 547 236 547 z "},"⁷":{"ha":451,"x_min":7,"x_max":442,"o":"m 442 1014 l 442 925 q 303 714 344 825 q 261 463 261 603 l 142 463 q 187 706 142 589 q 324 917 232 822 l 7 917 l 7 1014 l 442 1014 z "},"⁸":{"ha":549,"x_min":46,"x_max":501,"o":"m 274 1019 q 426 978 369 1019 q 482 868 482 938 q 457 792 482 824 q 385 746 432 760 l 385 744 q 471 695 440 729 q 501 613 501 661 q 440 497 501 539 q 274 454 379 454 q 108 497 169 454 q 46 613 46 539 q 76 695 46 661 q 161 744 106 729 l 161 746 q 90 792 115 760 q 65 868 65 824 q 121 978 65 938 q 274 1019 176 1019 m 274 936 q 206 917 231 936 q 181 863 181 897 q 206 808 181 828 q 274 788 231 788 q 342 808 317 788 q 367 863 367 828 q 342 917 367 897 q 274 936 317 936 m 274 539 q 353 561 324 539 q 382 619 382 583 q 353 680 382 658 q 274 701 324 701 q 194 679 224 701 q 165 619 165 657 q 194 561 165 583 q 274 539 224 539 z "},"⁹":{"ha":542,"x_min":43,"x_max":497,"o":"m 260 1021 q 435 947 372 1021 q 497 736 497 874 q 433 526 497 597 q 256 454 368 454 q 47 576 89 454 l 156 619 q 186 565 163 583 q 257 547 210 547 q 353 594 322 547 q 383 711 383 642 q 382 736 383 728 l 381 736 q 328 688 369 708 q 243 667 288 667 q 97 714 150 667 q 43 840 43 761 q 101 973 43 925 q 260 1021 160 1021 m 264 928 q 188 905 215 928 q 161 840 161 882 q 188 777 161 800 q 263 754 215 754 q 337 778 308 754 q 365 840 365 803 q 337 903 365 879 q 264 928 308 928 z "},"*":{"ha":801,"x_min":68,"x_max":733,"o":"m 539 588 l 642 446 l 550 379 l 447 521 l 400 611 l 353 521 l 251 379 l 160 446 l 263 588 l 333 660 l 233 678 l 68 731 l 101 838 l 268 783 l 360 739 l 344 839 l 343 1014 l 458 1014 l 457 839 l 442 739 l 533 783 l 700 838 l 733 731 l 568 678 l 467 660 l 539 588 z "},"\\":{"ha":621,"x_min":35,"x_max":588,"o":"m 174 1007 l 588 -97 l 449 -97 l 35 1007 l 174 1007 z "},"·":{"ha":333,"x_min":63,"x_max":272,"o":"m 167 593 q 244 566 215 593 q 272 492 272 539 q 244 419 272 446 q 167 392 215 392 q 91 419 119 392 q 63 492 63 446 q 90 566 63 539 q 167 593 118 593 z "},"•":{"ha":597,"x_min":113,"x_max":485,"o":"m 299 646 q 433 596 382 646 q 485 467 485 546 q 433 336 485 386 q 299 286 382 286 q 165 336 217 286 q 113 467 113 386 q 165 596 113 546 q 299 646 217 646 z "},":":{"ha":414,"x_min":101,"x_max":311,"o":"m 207 708 q 283 681 254 708 q 311 608 311 654 q 283 535 311 563 q 207 507 254 507 q 131 535 160 507 q 101 608 101 563 q 130 681 101 654 q 207 708 158 708 m 207 188 q 283 160 254 188 q 311 88 311 133 q 283 14 311 42 q 207 -14 254 -14 q 131 14 160 -14 q 101 88 101 42 q 130 160 101 133 q 207 188 158 188 z "},",":{"ha":379,"x_min":71,"x_max":307,"o":"m 189 188 q 276 147 244 188 q 307 40 307 106 q 265 -105 307 -39 q 143 -208 224 -171 l 71 -147 q 167 -90 128 -128 q 218 -4 206 -51 l 211 -1 q 172 -12 200 -12 q 110 13 138 -12 q 83 85 83 39 q 114 158 83 129 q 189 188 144 188 z "},"…":{"ha":1218,"x_min":93,"x_max":1125,"o":"m 1021 188 q 1097 160 1068 188 q 1125 88 1125 133 q 1097 14 1125 42 q 1021 -14 1068 -14 q 944 14 974 -14 q 915 88 915 42 q 944 160 915 133 q 1021 188 972 188 m 610 188 q 685 160 657 188 q 714 88 714 133 q 685 14 714 42 q 610 -14 657 -14 q 533 14 563 -14 q 504 88 504 42 q 533 160 504 133 q 610 188 561 188 m 199 188 q 274 160 246 188 q 303 88 303 133 q 274 14 303 42 q 199 -14 246 -14 q 122 14 151 -14 q 93 88 93 42 q 122 160 93 133 q 199 188 150 188 z "},"!":{"ha":390,"x_min":92,"x_max":299,"o":"m 272 550 l 253 292 l 136 292 l 117 550 l 117 917 l 272 917 l 272 550 m 194 183 q 270 156 242 183 q 299 85 299 129 q 271 14 299 40 q 194 -12 243 -12 q 119 14 147 -12 q 92 85 92 40 q 119 156 92 129 q 194 183 147 183 z "},"¡":{"ha":381,"x_min":88,"x_max":294,"o":"m 190 511 q 115 538 143 511 q 88 610 88 565 q 115 681 88 654 q 190 707 143 707 q 267 681 239 707 q 294 610 294 654 q 266 538 294 565 q 190 511 238 511 m 113 144 l 132 403 l 249 403 l 268 144 l 268 -222 l 113 -222 l 113 144 z "},"#":{"ha":910,"x_min":31,"x_max":878,"o":"m 692 572 l 656 350 l 817 350 l 817 249 l 639 249 l 597 0 l 483 0 l 524 249 l 308 249 l 268 0 l 153 0 l 194 249 l 31 249 l 31 350 l 211 350 l 247 572 l 90 572 l 90 674 l 265 674 l 304 917 l 419 917 l 379 674 l 594 674 l 635 917 l 749 917 l 708 674 l 878 674 l 878 572 l 692 572 m 578 572 l 363 572 l 325 350 l 542 350 l 578 572 z "},".":{"ha":379,"x_min":85,"x_max":294,"o":"m 190 188 q 266 160 238 188 q 294 88 294 133 q 266 14 294 42 q 190 -14 238 -14 q 114 14 143 -14 q 85 88 85 42 q 113 160 85 133 q 190 188 142 188 z "},"?":{"ha":781,"x_min":51,"x_max":714,"o":"m 393 931 q 626 867 538 931 q 714 690 714 804 q 642 508 714 572 q 451 432 569 444 l 447 292 l 306 292 l 303 501 q 497 558 439 518 q 556 669 556 597 q 512 765 556 731 q 383 800 468 800 q 249 754 300 800 q 189 626 197 708 l 51 692 q 162 865 74 800 q 393 931 250 931 m 376 185 q 451 158 424 185 q 479 86 479 131 q 451 14 479 40 q 376 -12 424 -12 q 300 14 328 -12 q 272 86 272 40 q 301 158 272 131 q 376 185 329 185 z "},"¿":{"ha":775,"x_min":63,"x_max":725,"o":"m 400 510 q 325 537 353 510 q 297 608 297 564 q 325 681 297 654 q 400 707 353 707 q 476 681 449 707 q 504 608 504 654 q 476 537 504 564 q 400 510 447 510 m 383 -236 q 151 -172 239 -236 q 63 6 63 -108 q 135 188 63 124 q 325 264 207 251 l 329 403 l 471 403 l 475 194 q 280 137 339 176 q 221 25 221 97 q 265 -71 221 -36 q 393 -106 308 -106 q 527 -59 475 -106 q 588 68 579 -12 l 725 3 q 615 -171 703 -106 q 383 -236 526 -236 z "},"\"":{"ha":578,"x_min":106,"x_max":499,"o":"m 461 597 l 353 597 l 353 953 l 499 953 l 461 597 m 214 597 l 106 597 l 106 953 l 251 953 l 214 597 z "},"'":{"ha":332,"x_min":106,"x_max":251,"o":"m 214 597 l 106 597 l 106 953 l 251 953 l 214 597 z "},";":{"ha":414,"x_min":90,"x_max":326,"o":"m 213 507 q 137 534 165 507 q 108 607 108 561 q 136 681 108 654 q 213 708 164 708 q 290 681 261 708 q 318 607 318 654 q 290 534 318 561 q 213 507 261 507 m 208 188 q 295 147 264 188 q 326 40 326 106 q 285 -105 326 -39 q 163 -208 243 -171 l 90 -147 q 186 -90 147 -128 q 238 -4 225 -51 l 231 -1 q 192 -12 219 -12 q 130 13 157 -12 q 103 85 103 39 q 133 158 103 129 q 208 188 164 188 z "},"/":{"ha":621,"x_min":33,"x_max":586,"o":"m 172 -97 l 33 -97 l 447 1007 l 586 1007 l 172 -97 z "},"_":{"ha":749,"x_min":0,"x_max":749,"o":"m 749 -251 l 0 -251 l 0 -122 l 749 -122 l 749 -251 z "},"₍":{"ha":326,"x_min":89,"x_max":335,"o":"m 335 356 q 232 206 263 285 q 201 13 201 126 q 232 -181 201 -101 q 335 -331 263 -260 l 268 -387 q 135 -213 181 -314 q 89 13 89 -112 q 135 238 89 138 q 268 413 181 339 l 335 356 z "},"₎":{"ha":326,"x_min":-7,"x_max":238,"o":"m 58 413 q 192 238 146 339 q 238 13 238 138 q 192 -213 238 -112 q 58 -387 146 -314 l -7 -331 q 94 -180 64 -260 q 125 13 125 -100 q 94 206 125 126 q -7 356 64 285 l 58 413 z "},"{":{"ha":517,"x_min":44,"x_max":467,"o":"m 329 -69 q 362 -135 329 -114 q 467 -156 394 -156 l 451 -264 q 258 -217 317 -264 q 200 -72 200 -171 l 200 185 q 165 296 200 263 q 44 329 129 329 l 44 443 q 165 476 129 443 q 200 588 200 510 l 200 846 q 258 991 200 944 q 451 1038 317 1038 l 467 929 q 362 908 394 929 q 329 843 329 888 l 329 567 q 175 386 329 425 q 329 207 329 350 l 329 -69 z "},"}":{"ha":517,"x_min":50,"x_max":472,"o":"m 317 588 q 352 476 317 510 q 472 443 388 443 l 472 329 q 352 296 388 329 q 317 185 317 263 l 317 -72 q 258 -217 317 -171 q 65 -264 200 -264 l 50 -156 q 154 -135 122 -156 q 186 -69 186 -115 l 186 207 q 340 386 186 350 q 186 567 186 425 l 186 843 q 154 908 186 888 q 50 929 122 929 l 65 1038 q 258 991 200 1038 q 317 846 317 944 l 317 588 z "},"[":{"ha":501,"x_min":119,"x_max":458,"o":"m 254 889 l 254 -115 l 458 -115 l 458 -233 l 119 -233 l 119 1007 l 458 1007 l 458 889 l 254 889 z "},"]":{"ha":501,"x_min":43,"x_max":382,"o":"m 382 -233 l 43 -233 l 43 -115 l 247 -115 l 247 889 l 43 889 l 43 1007 l 382 1007 l 382 -233 z "},"(":{"ha":503,"x_min":88,"x_max":471,"o":"m 471 960 q 285 708 340 840 q 231 386 231 576 q 285 65 231 196 q 471 -186 340 -67 l 393 -264 q 165 22 242 -142 q 88 386 88 186 q 165 751 88 588 q 393 1038 242 915 l 471 960 z "},")":{"ha":503,"x_min":32,"x_max":415,"o":"m 111 1038 q 338 751 261 915 q 415 386 415 588 q 338 22 415 186 q 111 -264 261 -142 l 32 -186 q 217 64 163 -68 q 272 386 272 196 q 217 709 272 576 q 32 960 163 842 l 111 1038 z "},"⁽":{"ha":326,"x_min":89,"x_max":335,"o":"m 335 1081 q 232 931 263 1010 q 201 738 201 851 q 232 544 201 624 q 335 394 263 465 l 268 338 q 135 512 181 411 q 89 738 89 613 q 135 963 89 863 q 268 1138 181 1064 l 335 1081 z "},"⁾":{"ha":326,"x_min":-7,"x_max":238,"o":"m 58 1138 q 192 963 146 1064 q 238 738 238 863 q 192 512 238 613 q 58 338 146 411 l -7 394 q 94 545 64 465 q 125 738 125 625 q 94 931 125 851 q -7 1081 64 1010 l 58 1138 z "},"—":{"ha":1404,"x_min":113,"x_max":1293,"o":"m 1293 301 l 113 301 l 113 431 l 1293 431 l 1293 301 z "},"–":{"ha":933,"x_min":113,"x_max":822,"o":"m 822 301 l 113 301 l 113 431 l 822 431 l 822 301 z "},"-":{"ha":715,"x_min":121,"x_max":594,"o":"m 594 297 l 121 297 l 121 435 l 594 435 l 594 297 z "},"­":{"ha":715,"x_min":121,"x_max":594,"o":"m 594 297 l 121 297 l 121 435 l 594 435 l 594 297 z "},"«":{"ha":724,"x_min":64,"x_max":658,"o":"m 210 368 l 385 96 l 239 96 l 64 368 l 239 640 l 385 640 l 210 368 m 483 368 l 658 96 l 513 96 l 338 368 l 513 640 l 658 640 l 483 368 z "},"»":{"ha":722,"x_min":64,"x_max":658,"o":"m 210 640 l 385 368 l 210 96 l 64 96 l 239 368 l 64 640 l 210 640 m 483 640 l 658 368 l 483 96 l 338 96 l 513 368 l 338 640 l 483 640 z "},"‹":{"ha":450,"x_min":64,"x_max":385,"o":"m 210 368 l 385 96 l 239 96 l 64 368 l 239 640 l 385 640 l 210 368 z "},"›":{"ha":450,"x_min":65,"x_max":386,"o":"m 211 640 l 386 368 l 211 96 l 65 96 l 240 368 l 65 640 l 211 640 z "},"„":{"ha":661,"x_min":68,"x_max":588,"o":"m 186 188 q 273 147 242 188 q 304 40 304 106 q 263 -105 304 -39 q 140 -208 221 -171 l 68 -147 q 164 -90 125 -128 q 215 -4 203 -51 l 208 -1 q 169 -12 197 -12 q 108 13 135 -12 q 81 85 81 39 q 111 158 81 129 q 186 188 142 188 m 469 188 q 556 147 525 188 q 588 40 588 106 q 546 -105 588 -39 q 424 -208 504 -171 l 351 -147 q 447 -90 408 -128 q 499 -4 486 -51 l 492 -1 q 453 -12 481 -12 q 391 13 418 -12 q 364 85 364 39 q 394 158 364 129 q 469 188 425 188 z "},"“":{"ha":656,"x_min":68,"x_max":589,"o":"m 186 572 q 99 613 131 572 q 68 721 68 654 q 109 865 68 800 q 232 968 150 931 l 304 908 q 208 851 247 889 q 157 765 169 813 l 164 763 q 203 774 175 774 q 265 748 238 774 q 292 676 292 722 q 261 602 292 632 q 186 572 231 572 m 471 572 q 384 613 415 572 q 353 721 353 654 q 394 865 353 800 q 517 968 435 931 l 589 908 q 493 851 532 889 q 442 765 454 813 l 449 763 q 488 774 460 774 q 549 748 522 774 q 576 676 576 722 q 546 602 576 632 q 471 572 515 572 z "},"”":{"ha":653,"x_min":72,"x_max":592,"o":"m 190 968 q 277 927 246 968 q 308 821 308 886 q 267 676 308 742 q 144 572 226 610 l 72 632 q 168 691 129 653 q 219 775 207 729 l 214 779 q 174 768 200 768 q 112 793 139 768 q 85 864 85 818 q 115 938 85 908 q 190 968 146 968 m 474 968 q 560 927 529 968 q 592 821 592 886 q 551 676 592 742 q 428 572 510 610 l 356 632 q 451 691 413 653 q 503 775 490 729 l 497 779 q 457 768 483 768 q 395 793 422 768 q 368 864 368 818 q 399 938 368 908 q 474 968 429 968 z "},"‘":{"ha":371,"x_min":68,"x_max":304,"o":"m 186 572 q 99 613 131 572 q 68 721 68 654 q 109 865 68 800 q 232 968 150 931 l 304 908 q 208 851 247 889 q 157 765 169 813 l 164 763 q 203 774 175 774 q 265 748 238 774 q 292 676 292 722 q 261 602 292 632 q 186 572 231 572 z "},"’":{"ha":371,"x_min":72,"x_max":308,"o":"m 190 968 q 277 927 246 968 q 308 821 308 886 q 267 676 308 742 q 144 572 226 610 l 72 632 q 168 691 129 653 q 219 775 207 729 l 214 779 q 174 768 200 768 q 112 793 139 768 q 85 864 85 818 q 115 938 85 908 q 190 968 146 968 z "},"‚":{"ha":378,"x_min":68,"x_max":304,"o":"m 186 188 q 273 147 242 188 q 304 40 304 106 q 263 -105 304 -39 q 140 -208 221 -171 l 68 -147 q 164 -90 125 -128 q 215 -4 203 -51 l 208 -1 q 169 -12 197 -12 q 108 13 135 -12 q 81 85 81 39 q 111 158 81 129 q 186 188 142 188 z "}," ":{"ha":451,"x_min":0,"x_max":0,"o":""},"€":{"ha":974,"x_min":71,"x_max":924,"o":"m 924 238 q 793 53 888 119 q 575 -14 699 -14 q 327 67 425 -14 q 194 296 229 149 l 71 296 l 71 390 l 179 390 q 176 458 176 435 q 178 500 176 486 l 71 500 l 71 596 l 189 596 q 319 842 219 754 q 572 931 419 931 q 785 874 696 931 q 911 715 875 818 l 788 658 q 713 772 768 732 q 583 813 657 813 q 426 756 490 813 q 335 596 361 700 l 664 596 l 633 500 l 321 500 q 319 458 319 486 q 322 390 319 435 l 608 390 l 579 296 l 340 296 q 428 153 368 203 q 578 104 489 104 q 715 150 654 104 q 799 279 776 196 l 924 238 z "},"¢":{"ha":792,"x_min":85,"x_max":733,"o":"m 733 194 q 643 51 710 106 q 475 -12 576 -3 l 475 -139 l 372 -139 l 372 -10 q 160 101 236 7 q 85 347 85 194 q 160 595 85 501 q 372 706 236 689 l 372 833 l 475 833 l 475 707 q 638 647 575 697 q 728 514 700 596 l 601 460 q 475 596 569 575 l 475 97 q 611 236 582 118 l 733 194 m 219 346 q 259 179 219 242 q 372 100 299 117 l 372 594 q 258 515 297 578 q 219 346 219 451 z "},"¤":{"ha":915,"x_min":83,"x_max":833,"o":"m 751 457 q 706 292 751 365 l 833 172 l 742 82 l 618 208 q 458 165 549 165 q 294 210 368 165 l 174 82 l 83 172 l 210 294 q 164 457 164 367 q 211 621 164 550 l 83 740 l 174 831 l 297 704 q 458 747 367 747 q 622 704 551 747 l 742 831 l 833 740 l 708 618 q 751 457 751 547 m 458 285 q 574 333 529 285 q 619 457 619 382 q 574 580 619 532 q 458 628 529 628 q 342 580 388 628 q 296 457 296 532 q 342 333 296 382 q 458 285 388 285 z "},"$":{"ha":864,"x_min":57,"x_max":793,"o":"m 388 1 q 57 219 142 22 l 164 297 q 244 178 183 226 q 388 117 306 131 l 388 406 q 234 449 296 425 q 131 520 172 472 q 90 647 90 568 q 170 828 90 754 q 388 915 250 903 l 388 1050 l 494 1050 l 494 914 q 671 861 601 906 q 793 731 740 817 l 694 640 q 612 753 658 715 q 494 799 565 790 l 494 506 q 648 462 586 486 q 751 388 710 438 q 792 258 792 339 q 710 81 792 150 q 494 1 629 13 l 494 -133 l 388 -133 l 388 1 m 388 799 q 269 753 310 790 q 229 657 229 717 q 270 574 229 603 q 388 528 311 546 l 388 799 m 494 115 q 654 249 654 131 q 613 333 654 304 q 494 382 572 363 l 494 115 z "},"ƒ":{"ha":689,"x_min":-26,"x_max":681,"o":"m 565 897 q 456 782 474 897 l 421 563 l 621 563 l 621 446 l 401 446 l 336 42 q 260 -122 318 -67 q 108 -178 203 -178 q 35 -171 63 -178 q -26 -143 7 -164 l -6 -29 q 89 -58 36 -58 q 197 58 181 -58 l 261 446 l 68 446 l 68 563 l 279 563 l 318 797 q 393 962 336 906 q 546 1018 450 1018 q 618 1010 590 1018 q 681 983 646 1003 l 660 868 q 565 897 619 897 z "},"£":{"ha":868,"x_min":63,"x_max":825,"o":"m 819 222 q 775 49 825 113 q 631 -14 725 -14 q 523 7 572 -14 q 415 67 474 28 q 219 -14 339 -14 q 106 19 149 -14 q 63 108 63 53 q 108 198 63 163 q 231 233 154 233 q 378 200 311 233 q 381 236 381 222 q 369 306 381 272 q 333 378 358 339 l 106 378 l 106 482 l 256 482 q 201 572 217 533 q 186 651 186 610 q 224 794 186 731 q 331 894 261 858 q 490 931 400 931 q 681 875 608 931 q 782 706 753 819 l 658 643 q 597 768 638 728 q 485 808 557 808 q 365 769 410 808 q 319 664 319 729 q 335 592 319 628 q 394 494 351 557 l 404 482 l 668 482 l 668 378 l 464 378 q 488 257 488 319 q 465 147 488 197 q 536 109 504 122 q 607 96 568 96 q 689 127 664 96 q 714 226 714 158 l 819 222 m 232 65 q 343 114 303 65 q 231 149 279 149 q 169 108 169 149 q 186 76 169 88 q 232 65 203 65 z "},"₺":{"ha":928,"x_min":76,"x_max":867,"o":"m 867 388 q 768 97 861 194 q 500 0 675 0 l 246 0 l 246 364 l 76 315 l 76 397 l 246 446 l 246 568 l 76 519 l 76 603 l 246 651 l 246 917 l 390 917 l 390 692 l 668 771 l 668 689 l 390 610 l 390 488 l 668 567 l 668 485 l 390 406 l 390 119 l 485 119 q 663 185 604 119 q 722 388 722 250 l 867 388 z "},"₽":{"ha":914,"x_min":65,"x_max":858,"o":"m 336 367 l 336 272 l 585 272 l 585 165 l 336 165 l 336 0 l 193 0 l 193 165 l 65 165 l 65 272 l 193 272 l 193 367 l 65 367 l 65 483 l 193 483 l 193 917 l 536 917 q 772 843 686 917 q 858 640 858 769 q 772 440 858 513 q 536 367 686 367 l 336 367 m 336 483 l 513 483 q 658 521 611 483 q 704 638 704 558 q 658 754 704 717 q 513 792 611 792 l 336 792 l 336 483 z "},"¥":{"ha":885,"x_min":42,"x_max":844,"o":"m 603 415 l 779 415 l 779 333 l 511 333 l 511 232 l 779 232 l 779 154 l 511 154 l 511 0 l 375 0 l 375 154 l 108 154 l 108 232 l 375 232 l 375 333 l 108 333 l 108 415 l 282 415 l 350 410 l 42 917 l 206 917 l 376 594 l 442 456 l 444 456 l 510 596 l 681 917 l 844 917 l 535 410 l 603 415 z "},"≈":{"ha":839,"x_min":82,"x_max":757,"o":"m 264 703 q 346 690 307 703 q 436 653 385 676 q 515 620 483 631 q 578 610 546 610 q 669 626 628 610 q 757 685 711 642 l 757 561 q 672 504 715 522 q 579 486 629 486 q 505 498 540 486 q 417 535 469 510 q 335 569 369 557 q 264 581 300 581 q 165 563 206 581 q 82 504 125 546 l 82 628 q 167 686 128 669 q 264 703 207 703 m 264 411 q 346 398 307 411 q 436 361 385 385 q 515 328 483 339 q 578 318 546 318 q 670 334 629 318 q 757 393 711 350 l 757 269 q 672 213 715 231 q 579 194 629 194 q 505 206 540 194 q 417 243 469 218 q 335 277 369 265 q 264 289 300 289 q 165 272 206 289 q 82 213 125 254 l 82 336 q 167 394 128 378 q 264 411 207 411 z "},"~":{"ha":774,"x_min":60,"x_max":714,"o":"m 714 550 q 658 382 707 439 q 521 325 610 325 q 439 340 474 325 q 365 383 404 356 q 313 414 332 404 q 269 424 293 424 q 189 326 204 424 l 60 326 q 254 553 75 553 q 333 538 300 553 q 408 496 365 524 q 460 465 439 475 q 506 454 481 454 q 585 550 569 454 l 714 550 z "},"÷":{"ha":839,"x_min":78,"x_max":761,"o":"m 421 821 q 494 794 467 821 q 521 722 521 768 q 494 651 521 678 q 421 625 467 625 q 347 651 374 625 q 319 722 319 678 q 347 794 319 768 q 421 821 374 821 m 761 382 l 78 382 l 78 506 l 761 506 l 761 382 m 421 261 q 494 235 467 261 q 521 164 521 208 q 494 92 521 119 q 421 65 467 65 q 347 92 374 65 q 319 164 319 119 q 347 235 319 208 q 421 261 374 261 z "},"=":{"ha":839,"x_min":89,"x_max":750,"o":"m 750 508 l 89 508 l 89 631 l 750 631 l 750 508 m 750 224 l 89 224 l 89 346 l 750 346 l 750 224 z "},"₌":{"ha":540,"x_min":75,"x_max":465,"o":"m 75 150 l 465 150 l 465 61 l 75 61 l 75 150 m 75 -37 l 465 -37 l 465 -125 l 75 -125 l 75 -37 z "},"⁼":{"ha":540,"x_min":75,"x_max":465,"o":"m 75 875 l 465 875 l 465 786 l 75 786 l 75 875 m 75 688 l 465 688 l 465 600 l 75 600 l 75 688 z "},">":{"ha":839,"x_min":76,"x_max":744,"o":"m 744 490 l 744 339 l 76 29 l 76 178 l 635 415 l 76 653 l 76 800 l 744 490 z "},"≥":{"ha":839,"x_min":75,"x_max":746,"o":"m 746 626 l 746 451 l 75 190 l 75 332 l 653 539 l 75 746 l 75 888 l 746 626 m 75 124 l 746 124 l 746 0 l 75 0 l 75 124 z "},"∞":{"ha":1254,"x_min":85,"x_max":1168,"o":"m 929 706 q 1049 673 994 706 q 1136 574 1104 640 q 1168 415 1168 508 q 1099 201 1168 276 q 922 126 1029 126 q 778 170 844 126 q 615 319 711 214 q 493 193 539 233 q 412 140 447 153 q 325 126 376 126 q 204 159 258 126 q 117 257 150 192 q 85 415 85 322 q 117 574 85 508 q 205 673 150 640 q 325 706 260 706 q 474 663 404 706 q 639 514 544 621 q 765 642 717 601 q 848 693 814 682 q 929 706 882 704 m 929 275 q 1010 319 978 275 q 1042 439 1042 364 q 1010 560 1042 515 q 931 604 978 604 q 875 593 899 604 q 815 546 851 582 q 710 431 779 510 q 833 311 782 347 q 929 275 883 275 m 324 228 q 379 240 356 228 q 438 286 403 251 q 542 401 472 321 q 417 523 461 490 q 326 556 372 556 q 245 512 278 556 q 213 392 213 468 q 245 272 213 315 q 324 228 278 228 z "},"∫":{"ha":646,"x_min":31,"x_max":617,"o":"m 479 1053 q 558 1044 529 1053 q 617 1017 588 1035 l 600 903 q 556 926 578 918 q 501 933 533 933 q 424 905 454 933 q 394 819 394 876 l 394 44 q 333 -118 394 -58 q 168 -178 271 -178 q 88 -169 117 -178 q 31 -142 58 -160 l 47 -28 q 144 -58 90 -58 q 222 -30 192 -58 q 251 56 251 -1 l 251 831 q 314 993 251 933 q 479 1053 376 1053 z "},"<":{"ha":839,"x_min":94,"x_max":763,"o":"m 763 653 l 204 415 l 763 178 l 763 29 l 94 339 l 94 490 l 763 800 l 763 653 z "},"≤":{"ha":839,"x_min":93,"x_max":764,"o":"m 764 746 l 186 539 l 764 332 l 764 190 l 93 451 l 93 626 l 764 888 l 764 746 m 93 124 l 764 124 l 764 0 l 93 0 l 93 124 z "},"¬":{"ha":839,"x_min":82,"x_max":757,"o":"m 757 506 l 757 168 l 622 168 l 622 382 l 82 382 l 82 506 l 757 506 z "},"−":{"ha":839,"x_min":82,"x_max":757,"o":"m 757 379 l 82 379 l 82 507 l 757 507 l 757 379 z "},"₋":{"ha":479,"x_min":40,"x_max":440,"o":"m 40 54 l 440 54 l 440 -32 l 40 -32 l 40 54 z "},"⁻":{"ha":479,"x_min":40,"x_max":440,"o":"m 40 779 l 440 779 l 440 693 l 40 693 l 40 779 z "},"×":{"ha":839,"x_min":101,"x_max":736,"o":"m 508 444 l 736 217 l 647 126 l 419 354 l 192 126 l 101 217 l 329 444 l 101 672 l 192 763 l 419 535 l 647 763 l 736 672 l 508 444 z "},"≠":{"ha":839,"x_min":85,"x_max":754,"o":"m 524 517 l 436 338 l 754 338 l 754 221 l 381 221 l 308 74 l 188 74 l 260 221 l 85 221 l 85 338 l 315 338 l 403 517 l 85 517 l 85 632 l 458 632 l 531 782 l 653 782 l 581 632 l 754 632 l 754 517 l 524 517 z "},"∂":{"ha":878,"x_min":90,"x_max":783,"o":"m 404 931 q 690 810 597 931 q 783 463 783 689 q 688 106 783 226 q 410 -14 592 -14 q 244 24 317 -14 q 131 133 171 63 q 90 294 90 203 q 131 454 90 385 q 243 563 172 524 q 403 601 314 601 q 544 569 481 601 q 646 475 607 536 q 578 728 642 650 q 392 807 514 807 q 288 788 331 807 q 200 725 246 769 l 131 828 q 256 905 190 879 q 404 931 322 931 m 421 111 q 636 326 599 111 q 559 440 614 397 q 417 482 504 482 q 287 433 333 482 q 240 297 240 383 q 287 160 240 210 q 421 111 333 111 z "},"%":{"ha":1222,"x_min":51,"x_max":1171,"o":"m 283 931 q 452 860 389 931 q 515 675 515 790 q 452 490 515 560 q 283 419 389 419 q 115 490 178 419 q 51 675 51 560 q 115 860 51 790 q 283 931 178 931 m 847 917 l 975 917 l 376 0 l 247 0 l 847 917 m 283 822 q 202 784 231 822 q 174 675 174 746 q 202 567 174 606 q 283 529 231 529 q 366 567 338 529 q 394 675 394 606 q 366 784 394 746 q 283 822 338 822 m 939 497 q 1108 427 1044 497 q 1171 242 1171 357 q 1108 56 1171 126 q 939 -14 1044 -14 q 770 56 833 -14 q 707 242 707 126 q 770 427 707 357 q 939 497 833 497 m 939 388 q 858 349 886 388 q 829 242 829 311 q 858 133 829 171 q 939 94 886 94 q 1022 133 993 94 q 1050 242 1050 171 q 1022 349 1050 311 q 939 388 993 388 z "},"‰":{"ha":1774,"x_min":51,"x_max":1722,"o":"m 283 931 q 452 860 389 931 q 515 675 515 790 q 452 490 515 560 q 283 419 389 419 q 115 490 178 419 q 51 675 51 560 q 115 860 51 790 q 283 931 178 931 m 847 917 l 975 917 l 376 0 l 247 0 l 847 917 m 283 822 q 202 784 231 822 q 174 675 174 746 q 202 567 174 606 q 283 529 231 529 q 366 567 338 529 q 394 675 394 606 q 366 784 394 746 q 283 822 338 822 m 939 497 q 1108 427 1044 497 q 1171 242 1171 357 q 1108 56 1171 126 q 939 -14 1044 -14 q 770 56 833 -14 q 707 242 707 126 q 770 427 707 357 q 939 497 833 497 m 1490 497 q 1659 427 1596 497 q 1722 242 1722 357 q 1659 56 1722 126 q 1490 -14 1596 -14 q 1322 56 1385 -14 q 1258 242 1258 126 q 1322 427 1258 357 q 1490 497 1385 497 m 939 388 q 858 349 886 388 q 829 242 829 311 q 858 133 829 171 q 939 94 886 94 q 1022 133 993 94 q 1050 242 1050 171 q 1022 349 1050 311 q 939 388 993 388 m 1490 388 q 1409 349 1438 388 q 1381 242 1381 311 q 1409 133 1381 171 q 1490 94 1438 94 q 1573 133 1544 94 q 1601 242 1601 171 q 1573 349 1601 311 q 1490 388 1544 388 z "},"+":{"ha":839,"x_min":78,"x_max":761,"o":"m 761 382 l 485 382 l 485 92 l 356 92 l 356 382 l 78 382 l 78 506 l 356 506 l 356 794 l 485 794 l 485 506 l 761 506 l 761 382 z "},"₊":{"ha":479,"x_min":36,"x_max":444,"o":"m 444 -31 l 288 -31 l 288 -193 l 194 -193 l 194 -31 l 36 -31 l 36 53 l 194 53 l 194 215 l 288 215 l 288 53 l 444 53 l 444 -31 z "},"±":{"ha":839,"x_min":78,"x_max":761,"o":"m 761 621 l 761 499 l 482 499 l 482 226 l 358 226 l 358 499 l 78 499 l 78 621 l 358 621 l 358 894 l 482 894 l 482 621 l 761 621 m 78 121 l 761 121 l 761 0 l 78 0 l 78 121 z "},"⁺":{"ha":479,"x_min":36,"x_max":444,"o":"m 444 694 l 288 694 l 288 532 l 194 532 l 194 694 l 36 694 l 36 778 l 194 778 l 194 940 l 288 940 l 288 778 l 444 778 l 444 694 z "},"∏":{"ha":971,"x_min":117,"x_max":856,"o":"m 856 -178 l 711 -178 l 711 789 l 261 789 l 261 -178 l 117 -178 l 117 917 l 856 917 l 856 -178 z "},"√":{"ha":940,"x_min":25,"x_max":957,"o":"m 957 1136 l 510 0 l 363 0 l 169 476 l 25 476 l 25 604 l 250 604 l 396 249 l 438 118 l 482 256 l 821 1136 l 957 1136 z "},"∑":{"ha":900,"x_min":79,"x_max":814,"o":"m 814 792 l 258 792 l 679 385 l 679 358 l 257 -54 l 814 -54 l 814 -178 l 79 -178 l 79 -54 l 510 372 l 79 792 l 79 917 l 814 917 l 814 792 z "},"µ":{"ha":851,"x_min":108,"x_max":743,"o":"m 743 694 l 743 0 l 618 0 l 608 118 q 368 -14 542 -14 q 257 17 304 -14 l 257 -292 l 108 -292 l 108 694 l 257 694 l 257 276 q 294 147 257 185 q 401 108 331 108 q 533 151 482 108 q 594 269 585 193 l 594 694 l 743 694 z "},"Ω":{"ha":1076,"x_min":93,"x_max":983,"o":"m 983 114 l 983 0 l 610 0 l 610 114 q 765 226 710 139 q 821 457 821 314 q 745 710 821 619 q 539 801 669 801 q 333 710 408 801 q 257 457 257 619 q 312 226 257 314 q 467 114 367 139 l 467 0 l 93 0 l 93 114 l 299 114 q 156 258 206 168 q 106 468 106 349 q 158 714 106 610 q 309 874 211 818 q 539 931 407 931 q 768 874 671 931 q 918 714 865 818 q 971 468 971 610 q 921 258 971 349 q 778 114 871 168 l 983 114 z "},"∆":{"ha":985,"x_min":56,"x_max":929,"o":"m 929 108 l 929 0 l 56 0 l 56 108 l 410 917 l 575 917 l 929 108 m 183 115 l 801 115 l 492 815 l 183 115 z "},"∕":{"ha":351,"x_min":-219,"x_max":569,"o":"m 443 917 l 569 917 l -93 0 l -219 0 l 443 917 z "},"∙":{"ha":333,"x_min":63,"x_max":272,"o":"m 168 575 q 244 548 215 575 q 272 475 272 521 q 244 401 272 429 q 168 374 215 374 q 92 401 121 374 q 63 475 63 429 q 91 548 63 521 q 168 575 119 575 z "},"↑":{"ha":1042,"x_min":53,"x_max":986,"o":"m 524 925 q 717 709 610 806 q 986 515 825 613 l 899 401 q 578 693 688 542 q 594 443 594 574 l 594 0 l 446 0 l 446 443 q 461 693 446 583 q 140 401 351 542 l 53 515 q 321 708 214 613 q 515 925 428 804 l 524 925 z "},"↗":{"ha":1042,"x_min":161,"x_max":875,"o":"m 875 822 q 847 461 847 640 q 871 163 847 303 l 733 151 q 722 336 722 231 q 749 621 722 486 q 574 429 679 533 l 260 115 l 161 214 l 475 528 q 667 703 579 633 q 376 675 535 675 q 199 686 276 675 l 208 825 q 507 801 349 801 q 869 829 686 801 l 875 822 z "},"→":{"ha":1042,"x_min":71,"x_max":996,"o":"m 586 926 q 780 658 683 765 q 996 464 876 550 l 996 456 q 779 261 875 368 q 586 -7 683 154 l 472 81 q 765 401 611 289 q 514 386 654 386 l 71 386 l 71 535 l 514 535 q 765 518 644 535 q 472 839 611 631 l 586 926 z "},"↘":{"ha":1042,"x_min":150,"x_max":865,"o":"m 861 799 q 838 499 838 658 q 865 138 838 319 l 858 132 q 497 160 676 160 q 197 136 339 160 l 188 275 q 365 286 265 286 q 656 258 524 286 q 464 433 560 333 l 150 747 l 250 846 l 564 532 q 738 340 664 433 q 711 624 711 475 q 722 808 711 729 l 861 799 z "},"↓":{"ha":1042,"x_min":56,"x_max":989,"o":"m 989 401 q 720 208 828 304 q 526 -8 613 111 l 518 -8 q 324 208 431 113 q 56 401 217 304 l 143 515 q 464 222 351 376 q 449 474 449 333 l 449 917 l 597 917 l 597 474 q 581 222 597 343 q 901 515 693 376 l 989 401 z "},"↙":{"ha":1042,"x_min":176,"x_max":892,"o":"m 386 258 q 676 286 518 286 q 854 275 776 286 l 844 136 q 544 160 703 160 q 183 132 365 160 l 176 138 q 204 499 204 319 q 181 799 204 658 l 319 808 q 331 624 331 729 q 304 340 331 475 q 478 532 378 433 l 792 846 l 892 747 l 578 433 q 386 258 482 333 z "},"←":{"ha":1042,"x_min":46,"x_max":971,"o":"m 528 386 q 276 401 388 386 q 569 81 431 289 l 456 -7 q 263 261 358 154 q 46 456 167 368 l 46 464 q 262 658 165 550 q 456 926 358 765 l 569 839 q 276 518 431 631 q 528 535 397 535 l 971 535 l 971 386 l 528 386 z "},"↖":{"ha":1042,"x_min":167,"x_max":881,"o":"m 881 214 l 782 115 l 468 429 q 293 619 365 531 q 321 331 321 488 q 310 151 321 229 l 171 163 q 194 461 194 303 q 167 822 194 640 l 172 829 q 535 801 356 801 q 833 825 693 801 l 843 686 q 664 675 765 675 q 375 703 507 675 q 567 528 463 633 l 881 214 z "},"↔":{"ha":1490,"x_min":46,"x_max":1444,"o":"m 1035 951 q 1228 683 1132 790 q 1444 489 1325 575 l 1444 481 q 1228 286 1324 393 q 1035 18 1132 179 l 913 94 q 1211 425 1057 314 q 1007 411 1114 411 l 482 411 q 279 425 376 411 q 578 94 433 314 l 456 18 q 263 286 358 179 q 46 481 167 393 l 46 489 q 262 683 165 575 q 456 951 358 790 l 578 876 q 278 546 432 657 q 482 560 378 560 l 1007 560 q 1211 546 1114 560 q 913 876 1057 657 l 1035 951 z "},"↕":{"ha":1042,"x_min":53,"x_max":986,"o":"m 581 -8 q 911 292 692 146 l 986 169 q 717 -24 825 72 q 524 -240 610 -121 l 515 -240 q 321 -24 428 -119 q 53 169 214 72 l 129 292 q 460 -8 349 146 q 446 196 446 89 l 446 721 q 460 925 446 828 q 129 625 349 771 l 53 747 q 321 940 214 844 q 515 1157 428 1036 l 524 1157 q 717 941 610 1038 q 986 747 825 844 l 911 625 q 581 925 692 771 q 594 721 594 828 l 594 196 q 581 -8 594 89 z "},"●":{"ha":833,"x_min":56,"x_max":778,"o":"m 417 -14 q 233 33 315 -14 q 103 163 150 81 q 56 347 56 246 q 103 531 56 449 q 233 661 150 614 q 417 708 315 708 q 601 661 518 708 q 731 531 683 614 q 778 347 778 449 q 731 163 778 246 q 601 33 683 81 q 417 -14 518 -14 z "},"○":{"ha":833,"x_min":51,"x_max":782,"o":"m 417 -14 q 231 33 315 -14 q 99 163 147 81 q 51 347 51 246 q 99 531 51 449 q 231 661 147 614 q 417 708 315 708 q 602 661 518 708 q 734 531 686 614 q 782 347 782 449 q 734 163 782 246 q 602 33 686 81 q 417 -14 518 -14 m 417 107 q 537 138 483 107 q 621 225 590 169 q 651 347 651 281 q 621 469 651 414 q 537 556 590 525 q 417 588 483 588 q 297 556 350 588 q 213 469 243 525 q 182 347 182 414 q 213 225 182 281 q 297 138 243 169 q 417 107 350 107 z "},"◆":{"ha":833,"x_min":49,"x_max":785,"o":"m 49 360 l 417 728 l 785 360 l 417 -8 l 49 360 z "},"◇":{"ha":833,"x_min":49,"x_max":785,"o":"m 49 360 l 417 728 l 785 360 l 417 -8 l 49 360 m 617 360 l 417 560 l 217 360 l 417 160 l 617 360 z "},"◊":{"ha":843,"x_min":67,"x_max":778,"o":"m 778 458 l 504 0 l 339 0 l 67 458 l 339 917 l 504 917 l 778 458 m 622 458 l 422 822 l 221 458 l 422 94 l 622 458 z "},"▪":{"ha":833,"x_min":69,"x_max":764,"o":"m 764 694 l 764 0 l 69 0 l 69 694 l 764 694 z "},"▫":{"ha":833,"x_min":67,"x_max":767,"o":"m 67 694 l 767 694 l 767 0 l 67 0 l 67 694 m 639 113 l 639 582 l 194 582 l 194 113 l 639 113 z "},"❛":{"ha":1001,"x_min":90,"x_max":910,"o":"m 872 817 q 467 757 608 817 q 254 579 326 697 l 264 572 q 374 631 317 613 q 526 650 432 650 q 806 563 703 650 q 910 321 910 476 q 806 74 910 161 q 517 -14 701 -14 q 90 389 90 -14 q 263 782 90 640 q 804 924 435 924 l 872 817 z "},"❜":{"ha":1001,"x_min":93,"x_max":911,"o":"m 129 -81 q 534 -21 393 -81 q 747 157 675 39 l 738 164 q 627 105 685 124 q 475 86 569 86 q 196 173 299 86 q 93 415 93 260 q 197 663 93 575 q 485 750 300 750 q 911 347 911 750 q 739 -46 911 96 q 197 -187 567 -187 l 129 -81 z "},"❝":{"ha":1738,"x_min":90,"x_max":1644,"o":"m 1263 650 q 1542 563 1439 650 q 1644 321 1644 476 q 1541 74 1644 161 q 1253 -14 1438 -14 q 875 163 969 -14 q 740 31 832 76 q 517 -14 649 -14 q 90 389 90 -14 q 263 782 90 640 q 804 924 435 924 l 872 817 q 467 757 608 817 q 254 579 326 697 l 264 572 q 374 631 317 613 q 526 650 432 650 q 711 619 631 650 q 840 528 792 588 q 1055 820 883 717 q 1540 924 1226 924 l 1608 817 q 1203 757 1344 817 q 990 579 1063 697 l 1000 572 q 1110 631 1053 613 q 1263 650 1168 650 z "},"❞":{"ha":1738,"x_min":93,"x_max":1647,"o":"m 1221 750 q 1647 347 1647 750 q 1475 -46 1647 96 q 932 -187 1303 -187 l 865 -81 q 1270 -21 1129 -81 q 1483 157 1411 39 l 1474 164 q 1362 105 1419 124 q 1211 86 1304 86 q 1026 117 1107 86 q 896 208 946 149 q 682 -84 853 19 q 197 -187 511 -187 l 129 -81 q 534 -21 393 -81 q 747 157 675 39 l 738 164 q 627 105 685 124 q 475 86 569 86 q 196 173 299 86 q 93 415 93 260 q 197 663 93 575 q 485 750 300 750 q 863 575 765 750 q 997 706 906 661 q 1221 750 1089 750 z "},"❡":{"ha":928,"x_min":81,"x_max":833,"o":"m 833 101 q 733 -185 833 -72 q 396 -299 632 -299 q 186 -240 267 -299 q 106 -79 106 -181 q 115 -10 106 -43 l 211 13 q 203 -50 203 -21 q 242 -157 203 -118 q 343 -196 282 -196 q 449 -149 417 -196 q 481 -14 481 -103 l 481 294 l 417 294 q 244 333 321 294 q 124 441 168 371 q 81 604 81 511 q 125 768 81 697 q 252 878 169 839 q 444 917 335 917 l 833 917 l 833 101 m 596 806 l 596 -32 q 576 -130 596 -83 q 524 -197 556 -176 l 528 -203 q 666 -96 621 -171 q 711 82 711 -21 l 711 806 l 596 806 z "},"|":{"ha":369,"x_min":119,"x_max":250,"o":"m 250 -233 l 119 -233 l 119 1007 l 250 1007 l 250 -233 z "},"¦":{"ha":361,"x_min":115,"x_max":246,"o":"m 246 496 l 115 496 l 115 1007 l 246 1007 l 246 496 m 246 -233 l 115 -233 l 115 278 l 246 278 l 246 -233 z "},"@":{"ha":1351,"x_min":85,"x_max":1263,"o":"m 699 917 q 1008 845 882 917 q 1199 649 1135 774 q 1263 361 1263 524 q 1228 165 1263 247 q 1134 39 1194 82 q 996 -4 1074 -4 q 883 31 925 -4 q 825 119 842 65 q 728 32 788 63 q 589 1 668 1 q 469 35 522 1 q 386 131 417 69 q 356 276 356 193 q 401 476 356 392 q 519 603 446 560 q 676 647 592 647 q 869 531 825 647 l 897 638 l 999 638 l 942 215 q 939 179 939 190 q 1024 85 939 85 q 1131 155 1093 85 q 1169 361 1169 225 q 1115 608 1169 503 q 956 770 1061 713 q 699 828 850 828 q 426 765 542 828 q 247 585 310 701 q 185 310 185 468 q 248 50 185 161 q 419 -119 311 -61 q 661 -178 528 -178 q 833 -156 768 -178 q 956 -92 897 -133 l 1007 -161 q 858 -240 933 -212 q 660 -267 782 -267 q 360 -196 490 -267 q 157 6 229 -125 q 85 310 85 136 q 161 626 85 489 q 377 840 238 764 q 699 917 517 917 m 692 543 q 542 476 599 543 q 486 289 486 408 q 525 155 486 203 q 635 107 564 107 q 760 152 706 107 q 824 281 814 197 l 835 363 q 838 400 838 388 q 802 505 838 467 q 692 543 767 543 z "},"&":{"ha":875,"x_min":57,"x_max":878,"o":"m 851 -14 q 742 6 789 -14 q 629 86 694 26 q 509 13 578 39 q 358 -14 440 -14 q 202 17 271 -14 q 95 102 133 47 q 57 228 57 157 q 106 377 57 310 q 268 499 156 444 q 188 619 210 572 q 165 718 165 667 q 192 822 165 772 q 272 901 219 871 q 400 931 325 931 q 567 880 503 931 q 631 733 631 829 q 590 593 631 653 q 444 478 550 533 q 529 375 501 407 q 636 249 606 283 q 686 454 686 339 l 685 486 l 794 478 q 775 314 797 393 q 706 172 753 235 q 792 108 756 124 q 878 94 828 92 l 851 -14 m 400 818 q 325 790 351 818 q 299 717 299 761 q 315 650 299 682 q 383 551 331 618 q 482 636 458 596 q 506 728 506 676 q 478 795 506 772 q 400 818 451 818 m 190 238 q 240 136 190 176 q 363 96 290 96 q 558 160 474 96 q 442 292 494 228 l 421 315 l 333 419 q 219 328 249 368 q 190 238 190 288 z "},"¶":{"ha":928,"x_min":54,"x_max":811,"o":"m 811 -139 l 686 -139 l 686 797 l 515 797 l 515 -139 l 388 -139 l 388 331 q 142 409 231 332 q 54 622 54 486 q 147 840 54 763 q 417 917 240 917 l 811 917 l 811 -139 z "},"©":{"ha":1119,"x_min":83,"x_max":1036,"o":"m 560 931 q 810 872 703 931 q 977 707 918 814 q 1036 458 1036 600 q 977 210 1036 317 q 810 44 918 103 q 560 -14 703 -14 q 309 44 417 -14 q 142 210 201 103 q 83 458 83 317 q 142 707 83 600 q 309 872 201 814 q 560 931 417 931 m 560 832 q 365 786 449 832 q 235 656 281 740 q 189 458 189 571 q 235 261 189 346 q 365 131 281 176 q 560 85 449 85 q 755 131 671 85 q 884 261 839 176 q 929 458 929 346 q 884 656 929 571 q 755 786 839 740 q 560 832 671 832 m 565 715 q 792 576 733 715 l 694 529 q 647 589 678 569 q 568 608 617 608 q 465 568 503 608 q 428 456 428 528 q 465 343 428 383 q 568 303 503 303 q 703 388 671 303 l 794 347 q 710 235 765 272 q 565 197 654 197 q 381 267 449 197 q 314 456 314 336 q 381 646 314 576 q 565 715 449 715 z "},"®":{"ha":1119,"x_min":83,"x_max":1036,"o":"m 560 931 q 810 872 703 931 q 977 707 918 814 q 1036 458 1036 600 q 977 210 1036 317 q 810 44 918 103 q 560 -14 703 -14 q 309 44 417 -14 q 142 210 201 103 q 83 458 83 317 q 142 707 83 600 q 309 872 201 814 q 560 931 417 931 m 560 85 q 755 131 671 85 q 884 261 839 176 q 929 458 929 346 q 884 656 929 571 q 755 786 839 740 q 560 832 671 832 q 365 786 449 832 q 235 656 281 740 q 189 458 189 571 q 235 261 189 346 q 365 131 281 176 q 560 85 449 85 m 786 549 q 754 450 786 490 q 665 394 722 410 l 797 203 l 672 203 l 560 385 l 482 385 l 482 203 l 375 203 l 375 714 l 596 714 q 733 669 681 714 q 786 549 786 624 m 482 463 l 585 463 q 678 546 678 463 q 585 629 678 629 l 482 629 l 482 463 z "},"§":{"ha":840,"x_min":40,"x_max":804,"o":"m 804 379 q 772 267 804 315 q 685 186 739 219 q 721 64 721 138 q 684 -48 721 1 q 579 -125 647 -97 q 421 -153 511 -153 q 238 -118 311 -153 q 115 -14 165 -83 l 210 67 q 292 -13 242 13 q 419 -39 342 -39 q 546 -15 501 -39 q 590 51 590 8 q 540 133 590 104 q 361 178 490 161 q 114 249 188 199 q 40 396 40 300 q 73 508 40 458 q 161 589 106 557 q 125 710 125 635 q 162 823 125 772 q 269 902 199 874 q 432 931 339 931 q 613 895 544 931 q 731 792 682 860 l 639 713 q 555 791 603 765 q 431 817 507 817 q 301 792 347 817 q 256 724 256 767 q 305 641 256 669 q 483 597 354 613 q 731 526 657 576 q 804 379 804 475 m 169 413 q 216 340 169 365 q 385 301 263 315 q 585 257 514 286 q 676 363 676 296 q 628 434 676 410 q 460 472 581 458 q 260 517 331 488 q 169 413 169 478 z "},"™":{"ha":1160,"x_min":61,"x_max":1054,"o":"m 451 833 l 313 833 l 313 458 l 203 458 l 203 833 l 61 833 l 61 917 l 451 917 l 451 833 m 1054 917 l 1054 458 l 946 458 l 946 667 l 954 793 l 953 793 l 936 738 l 833 458 l 751 458 l 649 738 l 632 793 l 631 793 l 639 667 l 639 458 l 531 458 l 531 917 l 676 917 l 763 679 l 792 590 l 794 590 l 824 679 l 911 917 l 1054 917 z "},"°":{"ha":654,"x_min":78,"x_max":576,"o":"m 326 454 q 147 521 215 454 q 78 693 78 588 q 147 865 78 799 q 326 931 217 931 q 507 865 438 931 q 576 693 576 799 q 507 520 576 586 q 326 454 438 454 m 326 564 q 420 600 383 564 q 457 693 457 636 q 420 786 457 750 q 326 822 383 822 q 234 786 271 822 q 197 693 197 750 q 233 600 197 636 q 326 564 269 564 z "},"℮":{"ha":1106,"x_min":88,"x_max":1029,"o":"m 560 931 q 906 799 783 931 q 1028 417 1029 667 l 276 417 l 276 186 q 410 99 331 129 q 586 68 489 68 q 813 123 713 68 q 986 296 913 178 l 986 182 q 824 35 926 83 q 588 -14 721 -14 q 319 44 432 -14 q 147 209 207 103 q 88 458 88 315 q 146 707 88 600 q 311 872 204 814 q 560 931 418 931 m 560 849 q 276 732 381 849 l 276 501 l 842 501 l 842 735 q 719 819 790 790 q 560 849 649 849 z "},"ℓ":{"ha":576,"x_min":61,"x_max":511,"o":"m 392 97 q 449 102 424 97 q 511 117 475 107 l 501 7 q 372 -14 447 -14 q 212 33 263 -14 q 161 182 161 79 l 161 278 q 61 243 111 256 l 61 343 q 161 379 113 356 l 161 728 q 332 931 161 931 q 458 885 419 931 q 496 743 496 839 q 442 538 496 640 q 293 358 389 435 l 293 200 q 319 126 293 156 q 392 97 344 97 m 347 833 q 305 811 317 833 q 293 740 293 789 l 293 476 q 372 603 346 533 q 399 750 399 674 q 387 815 399 797 q 347 833 375 833 z "},"^":{"ha":800,"x_min":36,"x_max":763,"o":"m 622 493 l 400 901 l 178 493 l 36 493 l 333 1011 l 467 1011 l 763 493 l 622 493 z "},"†":{"ha":747,"x_min":53,"x_max":694,"o":"m 694 508 l 446 508 l 446 -139 l 301 -139 l 301 508 l 53 508 l 53 631 l 301 631 l 301 917 l 446 917 l 446 631 l 694 631 l 694 508 z "},"‡":{"ha":747,"x_min":53,"x_max":694,"o":"m 446 508 l 446 269 l 694 269 l 694 147 l 446 147 l 446 -139 l 301 -139 l 301 147 l 53 147 l 53 269 l 301 269 l 301 508 l 53 508 l 53 631 l 301 631 l 301 917 l 446 917 l 446 631 l 694 631 l 694 508 l 446 508 z "},"":{"ha":1569,"x_min":24,"x_max":1513,"o":"m 1501 393 l 1414 351 l 1471 281 l 1375 264 l 1414 179 l 1329 174 q 1290 153 1310 161 l 1290 40 q 1250 0 1290 0 l 1186 0 q 1146 32 1146 0 q 1186 67 1146 67 l 1201 67 l 1201 121 q 1110 107 1163 111 l 1110 40 q 1069 0 1110 0 l 1006 0 q 965 32 965 0 q 1006 67 965 67 l 1021 67 l 1021 104 l 707 104 l 707 40 q 667 0 707 0 l 603 0 q 561 32 561 0 q 572 58 561 49 q 603 67 583 67 l 619 67 l 619 104 l 497 104 l 497 40 q 456 0 497 0 l 394 0 q 351 32 351 0 q 394 67 351 67 l 408 67 l 408 118 q 228 153 315 122 q 88 231 142 183 l 81 231 q 41 248 58 231 q 24 288 24 265 q 41 328 24 311 q 81 344 58 344 q 96 342 88 344 q 188 451 149 382 q 228 581 228 521 l 233 696 l 311 657 l 311 753 l 389 711 l 383 797 l 476 761 l 483 853 l 574 807 l 585 897 l 678 847 l 701 938 l 781 868 l 822 957 l 890 888 l 958 963 l 1010 881 l 1079 957 l 1115 868 l 1203 929 l 1213 833 l 1310 876 l 1294 781 l 1400 803 l 1371 714 l 1472 718 l 1417 640 l 1508 608 l 1433 556 l 1513 501 l 1431 453 l 1501 393 m 549 343 q 599 378 581 354 q 617 438 617 403 q 585 516 617 486 q 506 546 553 546 q 475 539 490 546 q 449 522 460 532 l 464 496 q 501 513 481 511 q 558 493 538 514 q 579 435 579 472 q 532 372 579 383 l 549 343 m 331 322 q 397 346 372 322 q 421 411 421 369 l 388 411 q 374 372 388 383 q 331 360 360 360 q 288 372 301 360 q 274 411 274 383 l 240 411 q 265 346 240 369 q 331 322 289 322 z "},"̦":{"ha":0,"x_min":-461,"x_max":-261,"o":"m -354 -331 l -461 -331 l -406 -99 l -261 -99 l -354 -331 z "},"ˉ":{"ha":694,"x_min":100,"x_max":594,"o":"m 594 817 l 100 817 l 100 925 l 594 925 l 594 817 z "},"´":{"ha":694,"x_min":279,"x_max":531,"o":"m 531 1036 l 393 803 l 279 803 l 381 1036 l 531 1036 z "},"˘":{"ha":694,"x_min":133,"x_max":561,"o":"m 561 1004 q 503 850 561 908 q 347 792 444 792 q 192 850 250 792 q 133 1004 133 908 l 243 1004 q 272 924 243 957 q 347 890 301 890 q 422 924 393 890 q 451 1004 451 957 l 561 1004 z "},"ˇ":{"ha":694,"x_min":114,"x_max":581,"o":"m 426 803 l 268 803 l 114 1036 l 236 1036 l 347 893 l 458 1036 l 581 1036 l 426 803 z "},"¸":{"ha":694,"x_min":193,"x_max":525,"o":"m 333 43 q 475 -31 425 21 q 525 -146 525 -83 q 478 -256 525 -212 q 353 -299 431 -299 q 260 -286 299 -299 q 193 -247 222 -274 l 239 -161 q 282 -191 257 -179 q 336 -203 307 -203 q 392 -181 369 -203 q 414 -125 414 -160 q 385 -56 414 -83 q 274 4 356 -28 l 333 43 z "},"ˆ":{"ha":694,"x_min":114,"x_max":581,"o":"m 458 793 l 347 938 l 236 793 l 114 793 l 268 1028 l 426 1028 l 581 793 l 458 793 z "},"¨":{"ha":694,"x_min":119,"x_max":582,"o":"m 210 972 q 276 949 251 972 q 301 885 301 925 q 276 821 301 844 q 210 797 251 797 q 144 822 169 797 q 119 885 119 846 q 144 949 119 925 q 210 972 169 972 m 490 972 q 557 949 532 972 q 582 885 582 925 q 557 821 582 844 q 490 797 532 797 q 424 821 449 797 q 400 885 400 844 q 424 949 400 925 q 490 972 449 972 z "},"˙":{"ha":694,"x_min":251,"x_max":444,"o":"m 347 997 q 418 973 392 997 q 444 906 444 949 q 418 838 444 863 q 347 814 392 814 q 277 838 303 814 q 251 906 251 863 q 277 973 251 949 q 347 997 303 997 z "},"`":{"ha":694,"x_min":164,"x_max":415,"o":"m 415 803 l 301 803 l 164 1036 l 314 1036 l 415 803 z "},"˝":{"ha":694,"x_min":106,"x_max":611,"o":"m 218 803 l 106 803 l 208 1036 l 353 1036 l 218 803 m 476 803 l 365 803 l 468 1036 l 611 1036 l 476 803 z "},"¯":{"ha":694,"x_min":100,"x_max":594,"o":"m 594 817 l 100 817 l 100 925 l 594 925 l 594 817 z "},"˛":{"ha":707,"x_min":190,"x_max":486,"o":"m 481 21 q 344 -56 386 -18 q 303 -133 303 -94 q 326 -185 303 -167 q 388 -203 349 -203 q 461 -187 436 -203 l 486 -272 q 364 -299 442 -299 q 238 -260 286 -299 q 190 -156 190 -221 q 244 -33 190 -81 q 408 54 297 15 l 481 21 z "},"˚":{"ha":694,"x_min":169,"x_max":525,"o":"m 349 1119 q 477 1074 429 1119 q 525 956 525 1029 q 477 834 525 879 q 349 789 429 789 q 218 834 267 789 q 169 956 169 879 q 219 1074 169 1029 q 349 1119 268 1119 m 349 1043 q 283 1019 308 1043 q 257 956 257 994 q 283 892 257 917 q 349 867 308 867 q 414 892 389 867 q 439 956 439 917 q 414 1019 439 994 q 349 1043 389 1043 z "},"˜":{"ha":694,"x_min":89,"x_max":606,"o":"m 606 996 q 442 800 593 800 q 374 815 401 800 q 318 856 347 829 q 282 883 294 875 q 253 890 269 890 q 212 867 226 890 q 190 799 197 844 l 89 799 q 254 996 101 996 q 319 982 293 996 q 376 940 344 968 q 413 913 400 921 q 440 906 425 906 q 483 928 468 906 q 504 996 497 950 l 606 996 z "}}}
